<?xml version="1.0" standalone="no"?>
<!DOCTYPE svg PUBLIC "-//W3C//DTD SVG 1.1//EN" "http://www.w3.org/Graphics/SVG/1.1/DTD/svg11.dtd" >
<svg xmlns="http://www.w3.org/2000/svg">
<metadata></metadata>
<defs>
<font id="peachesandcreamregularw00Rg" horiz-adv-x="587" >
<font-face units-per-em="2048" ascent="1638" descent="-410" />
<missing-glyph horiz-adv-x="245" />
<glyph unicode="&#xfb01;" horiz-adv-x="600" d="M-36 -343q-5 56 18 161q10 41 16 106.5t14 145.5q-27 18 -25.5 67t40.5 103l6 63q8 117 13 213t17 195q25 186 96.5 253.5t151.5 28.5q37 -18 54.5 -55t9.5 -105.5t-45 -175t-109 -266.5q78 49 132.5 70.5t82.5 32.5q16 4 27 2q25 4 49.5 -7.5t46.5 -31.5 q2 -2 -18.5 -63.5t-28.5 -157.5q-8 -82 6 -117t39 -39q18 -4 34.5 7t30 27.5t22.5 37t15 36.5q0 2 6.5 1t10.5 -7t4 -18t-8 -33q-10 -25 -32 -51.5t-50.5 -47t-62 -31.5t-68.5 -3q-41 8 -64.5 50t-34 98.5t-8.5 121t15 117.5q4 16 8 25q-45 -23 -90 -49.5t-90 -57.5v-10 q-4 -68 -9.5 -136.5t-9.5 -133t-9 -121t-9 -97.5q-6 -61 -4 -114t8 -111q-29 -18 -58 -26q-25 -8 -51 -7.5t-49 21.5q-35 33 -40 89zM203 430q92 225 114.5 356.5t-26.5 155.5q-23 10 -35 -5t-19.5 -49t-11.5 -82t-6 -106zM397 715q4 43 42 69.5t83 26.5t75 -26.5t26 -69.5 q-2 -23 -19.5 -44.5t-41 -39t-45 -27.5t-34.5 -10q-12 0 -27.5 10t-28.5 27.5t-22.5 39t-7.5 44.5z" />
<glyph unicode="&#xfb02;" horiz-adv-x="647" d="M-29 -337q-4 56 19 161q8 49 18 123q-29 10 -31 53t46 98q4 49 8 102.5t8 108.5q10 117 14 213t19 195q25 186 96.5 253.5t148.5 28.5q72 -35 52.5 -200.5t-133.5 -489.5l114 97q16 186 47 308t69 188.5t82 84t87 -7.5q29 -16 43 -57t4 -102.5t-48 -139.5t-112 -166 q-2 -10 -2 -22.5v-24.5q-4 -113 -6 -188.5t0 -122.5t10 -70t23 -27q25 -10 46 0.5t38.5 32t32 49t22.5 54.5q0 2 5 0t10.5 -8.5t5.5 -18.5t-9 -33q-39 -86 -107.5 -130t-150.5 -25q-23 4 -43 24.5t-34.5 62.5t-19.5 108.5t3 164.5v10l-147 -147q-4 -8 -4 -13 q-8 -111 -15.5 -211t-13.5 -167q-6 -61 -4 -114.5t6 -111.5q-29 -18 -55 -26q-25 -8 -52.5 -7t-50.5 21q-35 33 -39 89zM201 305q41 129 70.5 240.5t43 196.5t10.5 139.5t-28 66.5q-23 10 -35 -5t-19 -49t-10.5 -82t-7.5 -105zM526 578q53 76 80 138t35 109t-0.5 78 t-22.5 41q-37 25 -58 -60t-34 -306z" />
<glyph unicode="&#xfb03;" horiz-adv-x="983" d="M-34 -328.5q-5 56.5 18 160.5q14 70 26.5 196t22.5 281q4 57 7 105.5t6 93.5t8 90t12 94q12 92 37.5 154.5t58.5 97.5t71.5 41t77.5 -12q37 -18 54.5 -53t13.5 -99.5t-34 -161t-89 -237.5q45 25 80 39t61 22q4 59 8.5 116.5t14.5 117.5q25 186 91 265t146 40 q29 -14 44.5 -55t14.5 -114t-23.5 -181.5t-71.5 -255.5q61 37 107 57.5t75 24.5q4 0 5 1t5 1q27 4 54.5 -6.5t50.5 -32.5l-6 -17q-5 -18 -13 -46.5t-17.5 -69.5t-13.5 -88q-8 -82 6.5 -117t38.5 -39q20 -4 37 7t30 27.5t22.5 37t13.5 37.5q0 2 6 1t10 -7.5t4 -19.5t-8 -34 q-10 -25 -31.5 -50.5t-49 -46t-61.5 -31.5t-71 -3q-41 8 -64.5 50t-33.5 98.5t-7 121t15 117.5l6 25q-35 -18 -70.5 -41t-72.5 -49q-10 -29 -21.5 -58.5t-23.5 -62.5q-6 -117 -12.5 -226.5t-12.5 -177.5q-8 -63 -6 -116.5t8 -110.5q-29 -18 -57 -27q-25 -8 -51.5 -7 t-49.5 24q-35 31 -40 88t18 162q10 45 16 104t13 137q-25 2 -40.5 20.5t-16.5 45t15.5 59.5t53.5 66l6 65l6 115q-88 -41 -180 -96l-9 -22.5t-11 -22.5q-8 -135 -15.5 -258t-15.5 -205q-8 -61 -6 -114.5t8 -111.5q-29 -18 -58 -26q-25 -8 -51 -7t-49 23q-35 31 -40 87.5z M201 397q92 227 115.5 364.5t-25.5 162.5q-23 8 -35 -7.5t-19.5 -49t-10.5 -82t-7 -105.5zM553 373l22 16q37 121 59.5 223.5t31 179t4.5 124t-23 57.5q-23 8 -36 -11.5t-20 -57.5t-11.5 -90t-6.5 -109zM756 717q4 45 42 71.5t83 26.5q43 0 72.5 -26.5t25.5 -71.5 q-2 -23 -19.5 -43.5t-41 -38t-45 -27.5t-33.5 -10t-26.5 10t-28 27.5t-22.5 38t-7 43.5z" />
<glyph horiz-adv-x="0" />
<glyph unicode="&#xd;" horiz-adv-x="681" />
<glyph unicode=" "  horiz-adv-x="245" />
<glyph unicode="&#x09;" horiz-adv-x="245" />
<glyph unicode="&#xa0;" horiz-adv-x="245" />
<glyph unicode="!" horiz-adv-x="360" d="M76 104q0 45 39 73t84 28q47 0 77.5 -31t18.5 -74q-8 -25 -26.5 -43t-40 -30.5t-42 -18.5t-32.5 -6q-23 0 -51.5 26.5t-26.5 75.5zM164 299q-6 29 1 118t11 206q4 68 2 121t-12 104q29 18 55 26q23 8 49.5 6.5t48.5 -22.5q35 -33 41.5 -88.5t-30.5 -157.5 q-29 -72 -51.5 -139t-38.5 -115q-8 -33 -13 -59q-2 -14 -2 -27q-16 -6 -34.5 -1t-26.5 28z" />
<glyph unicode="&#x22;" horiz-adv-x="382" d="M0 903q25 8 49 12q20 4 44 2t44 -16q33 -23 38 -75t-28 -138q-27 -72 -52 -110.5t-40 -49.5q-12 -10 -27.5 -7t-19.5 18q6 20 12 45q4 23 9.5 54.5t5.5 76.5q0 59 -11.5 106t-23.5 82zM158 549q16 23 30 51q12 25 25.5 59.5t19.5 75.5q8 57 4 100.5t-8 77.5q27 6 52 5 q23 -2 43 -9.5t36 -23.5q23 -29 22 -71.5t-42 -108.5q-18 -31 -39.5 -60t-41 -52.5t-36 -38.5t-22.5 -19q-14 -8 -28.5 -3t-14.5 17z" />
<glyph unicode="#" horiz-adv-x="1058" d="M37 125.5q2 11.5 4 13.5l4 1t19.5 2t46 3t84.5 5h14q41 98 87 208.5t89 223.5q-59 2 -101 4t-48 6q-31 12 -28 23.5t5 15.5q4 0 23 2q16 2 45.5 3t83.5 5h20t25 2q12 35 24 67.5t23 67.5q25 74 31 122t6 85q20 4 43 4q18 0 37.5 -6t35.5 -22q23 -23 22 -76.5t-36 -124.5 q-12 -23 -26.5 -52.5t-30.5 -60.5l241 4q12 33 23.5 65t21.5 62q25 74 31 122t6 85q20 4 43 4q18 0 38 -6t36 -22q23 -23 21.5 -76.5t-35.5 -124.5l-54 -107q41 2 69 2t36 2q2 -4 4 -12q2 -10 -4 -35q-10 -23 -31.5 -32t-79.5 -9h-39q-47 -94 -100 -199.5t-100 -207.5 q70 2 120 3t60 3q2 -4 4 -12q0 -6 -1 -16.5t-5 -20.5q-8 -23 -29.5 -32t-81.5 -9h-106q-39 -82 -64.5 -149.5t-36.5 -108.5q-6 -33 -6 -45.5t-2 -12.5q-23 -6 -44 6.5t-17 45.5q4 37 28.5 105.5t63.5 160.5l-287 8q-41 -86 -67.5 -155.5t-36.5 -112.5q-6 -33 -6 -45.5 t-2 -12.5q-23 -6 -44.5 6.5t-17.5 45.5q4 39 30.5 110.5t65.5 167.5q-49 2 -80.5 4t-37.5 6q-31 12 -29 23.5zM293 154l289 6q41 94 84 198.5t84 212.5l-246 7q-49 -98 -105.5 -209t-105.5 -215z" />
<glyph unicode="$" horiz-adv-x="481" d="M15.5 151.5q9.5 28.5 31 47t49 22.5t56.5 -10q27 -14 31.5 -29.5t0.5 -29.5q-6 -16 -18 -33q-31 29 -59.5 19.5t-30.5 -32.5q-4 -33 25.5 -56t95.5 -23h12v87t2 101q-84 27 -124 75t-26 107q10 41 51.5 69t104.5 32v108q4 2 10 2q8 0 27 -6q16 -6 21 -23.5t1 -58.5 q-2 -6 -2 -24q51 -6 82 -21.5t44.5 -35t14.5 -38t-5 -28.5q-10 -16 -27.5 -20.5t-33 -2.5t-26 6t-8.5 6q25 35 11.5 62t-56.5 37q-2 -23 -2 -51.5t-4 -63.5q4 0 5 -1t5 -1q90 -29 129 -78t23 -129q-10 -53 -59.5 -92t-124.5 -49q-2 -14 -3 -27.5t-1 -19.5 q-2 -16 -14.5 -17.5t-14.5 2.5v60h-16q-25 0 -51.5 5t-51 16.5t-44 28.5t-28.5 44q-12 35 -2.5 63.5zM152 424q0 -16 13 -29.5t48 -29.5q0 10 1 17t1 13q0 18 1 36t1 34q-29 -4 -46 -15.5t-19 -25.5zM244 31q41 6 62.5 24t27.5 43q4 23 -9.5 48.5t-68.5 50.5z" />
<glyph unicode="%" horiz-adv-x="878" d="M63 754q6 111 72 179t168 68q78 0 130 -59t44 -170q-6 -104 -66.5 -166.5t-162.5 -62.5q-86 0 -138.5 58t-46.5 153zM186 -188q6 49 47 152.5t96.5 237.5t117 283.5t108.5 290.5q25 74 31 123t6 84q20 6 43 6q18 0 37.5 -7t36.5 -24q23 -23 22.5 -74.5t-35.5 -123.5 q-27 -53 -67.5 -133t-86.5 -170t-92.5 -184.5t-86 -181.5t-68.5 -157.5t-37 -113.5q-8 -33 -8 -46.5t-2 -13.5q-23 -6 -44.5 7.5t-17.5 44.5zM199 770q-8 -98 13 -146.5t56 -48.5q33 0 53.5 50.5t30.5 128.5q10 102 -7 158.5t-52 56.5q-39 0 -63.5 -57.5t-30.5 -141.5z M401 -49q6 109 72 178.5t168 69.5q78 0 130 -59.5t44 -170.5q-6 -104 -66.5 -166.5t-162.5 -62.5q-86 0 -138.5 57.5t-46.5 153.5zM537 -35q-8 -98 13 -145t56 -47q33 0 53.5 49t30.5 127q10 102 -7 158.5t-52 56.5q-37 0 -62.5 -57.5t-31.5 -141.5z" />
<glyph unicode="&#x26;" horiz-adv-x="739" d="M-51 209q6 43 29.5 74.5t62.5 55t88 40t104 29.5q-45 6 -86 17t-72.5 29.5t-51 44t-21.5 56.5q-4 45 24.5 86t80 72.5t121 52t147.5 22.5q51 0 97 -7t80 -22.5t53.5 -40t19.5 -54.5q0 -45 -28 -79t-66.5 -55.5t-79.5 -28.5t-68 5t-29 31.5t4 37.5q8 23 27 46 q25 -25 57.5 -32t62.5 -2t51.5 22.5t21.5 45.5q0 47 -59.5 71t-151.5 19q-92 -4 -153.5 -46t-57.5 -109q0 -35 16 -65.5t45 -54.5t68 -34t86 -4q10 2 10 -10q0 -6 -4 -12h-2q-4 -6 -13 -7q-45 -6 -87 -15t-76.5 -27.5t-59 -50t-30.5 -81.5q-6 -45 9 -79.5t43.5 -58t68.5 -34 t83 -6.5q88 6 141.5 61.5t55.5 161.5h-31q-57 0 -78.5 -12t-23.5 -31q-4 -23 18.5 -37t44.5 -18q4 0 -3 -11t-36 -1q-37 10 -63.5 46t-22.5 83t81 71.5t216 18.5q70 -4 87.5 -44t-13.5 -79q-2 -2 -46 3t-103 9q-6 -111 -65 -174.5t-163 -83.5q-72 -16 -139.5 -10 t-118.5 31.5t-79.5 70t-22.5 103.5z" />
<glyph unicode="'" horiz-adv-x="212" d="M37 903q25 8 49 12q20 4 44 2t44 -16q33 -23 38 -75t-28 -138q-27 -72 -52.5 -110.5t-39.5 -49.5q-12 -10 -27.5 -7t-19.5 18q6 20 12 45q4 23 9.5 54.5t5.5 76.5q0 59 -11.5 106t-23.5 82z" />
<glyph unicode="(" horiz-adv-x="833" d="M2 244q6 180 60.5 350t149.5 305t227 222t296 104q31 2 35 -5.5t-4 -17.5t-23.5 -19t-25.5 -9q-111 -12 -204 -92.5t-160.5 -203t-106.5 -277.5t-45 -318q-6 -197 22.5 -364t92 -283.5t161.5 -177t234 -44.5q16 2 28.5 -4t16.5 -14t-3.5 -17.5t-29.5 -11.5 q-145 -23 -278.5 23.5t-234.5 157t-158.5 284.5t-49.5 412z" />
<glyph unicode=")" horiz-adv-x="833" d="M2 -635q-4 8 4 18.5t23.5 19.5t25.5 9q113 12 205 92t159.5 203t106.5 277.5t43 318.5q6 197 -21.5 364t-91 283.5t-161.5 176t-234 42.5q-16 -2 -28.5 4.5t-16.5 15.5t3.5 17t29.5 13q145 20 278.5 -25t235 -155.5t158.5 -284.5t49 -412q-6 -180 -60.5 -351 t-149.5 -306.5t-228 -222.5t-297 -101q-29 -4 -33 4z" />
<glyph unicode="*" horiz-adv-x="651" d="M40 635.5q-7 19.5 3 44.5q12 29 42 38t85 -7q45 -14 83 -41t58 -49l-14 118q-4 39 -14.5 72t-18.5 43q0 2 16.5 15.5t45.5 9.5q31 -4 48 -28t17 -83q2 -47 -11 -92t-28 -72q25 10 56.5 25.5t60.5 27.5q37 16 65.5 37t34.5 31q0 -2 18.5 -13.5t24.5 -37.5q4 -31 -13 -55.5 t-73 -43.5q-43 -16 -89 -17t-75 5q16 -20 40 -43.5t42 -44.5q29 -29 56.5 -49t38.5 -25q-2 -10 -7 -20q-4 -10 -10 -19.5t-18 -15.5q-27 -16 -55.5 -7t-63.5 56q-33 41 -48 88t-15 76q-14 -23 -31 -54.5t-31 -55.5q-20 -35 -31.5 -68t-11.5 -45q-12 -4 -22 -2q-23 0 -41 18 q-23 23 -24 52.5t34 76.5q27 37 60.5 63.5t62.5 41.5l-119 24q-39 8 -74 8t-47 -4q0 2 -7 21.5z" />
<glyph unicode="+" horiz-adv-x="432" d="M37 263q2 11 4 16h4t18.5 1t42 3t76.5 4q-4 39 -6 62.5t-3 40t-2 26.5t-3 22q4 2 12 4q10 2 37 -4q23 -10 31 -31.5t8 -78.5v-18.5t-2 -18.5q66 4 90.5 7t46.5 7q2 -4 4 -12q0 -6 -1 -16.5t-5 -20.5q-8 -23 -29.5 -31t-80.5 -8h-29q-4 -35 -8 -64.5t-9 -39.5 q-12 -31 -23 -28t-15 5q0 4 -2 21q-2 14 -3.5 38.5t-3.5 71.5q-41 4 -74.5 9.5t-45.5 9.5q-31 12 -29 23z" />
<glyph unicode="," horiz-adv-x="356" d="M76 113q4 45 40 68.5t81 23.5q59 0 85 -45t3 -113q-12 -39 -37 -70.5t-52.5 -52t-54 -30t-41.5 -3.5q-18 6 -17 13.5t5 7.5q74 29 82 65.5t-33 55.5q-27 12 -46 31.5t-15 48.5z" />
<glyph unicode="-" horiz-adv-x="444" d="M24.5 263q2.5 11 4.5 16h4t19.5 1t46 3t83.5 4q53 4 86 7t52.5 5t32 3t26.5 3q2 -4 4 -12q0 -6 -1 -16.5t-5 -20.5q-8 -23 -30 -31t-81 -8q-27 0 -59.5 2t-63 5t-55.5 7.5t-35 8.5q-31 12 -28.5 23z" />
<glyph unicode="." horiz-adv-x="348" d="M74 104q0 45 40 73t85 28t76.5 -31t19.5 -74q-8 -25 -26.5 -43t-40 -30.5t-42 -18.5t-32.5 -6q-25 0 -52.5 26.5t-27.5 75.5z" />
<glyph unicode="/" horiz-adv-x="436" d="M2 -186q4 31 24.5 89t51.5 134t68.5 166t76.5 186t78 195.5t70 193.5q25 74 31 122t6 85q20 4 43 4q18 0 37.5 -6t35.5 -22q23 -23 22 -76t-36 -125q-27 -53 -67 -132t-86 -169t-93 -185.5t-87 -181.5t-68.5 -157.5t-36.5 -114.5q-6 -33 -6 -45.5t-3 -12.5 q-23 -6 -44 6.5t-17 45.5z" />
<glyph unicode="0" horiz-adv-x="616" d="M2 246q4 76 32.5 134t74 99t101 62.5t114.5 21.5q41 0 84 -16.5t77.5 -52t54 -90t15.5 -130.5q-4 -74 -31.5 -132t-70.5 -99t-98.5 -62.5t-112.5 -21.5q-49 0 -94.5 20.5t-79 57.5t-52 90t-14.5 119zM152 266q-10 -137 26.5 -200.5t83.5 -63.5t87 66.5t54 177.5 q14 135 -14.5 204.5t-81.5 69.5t-99 -68.5t-56 -185.5z" />
<glyph unicode="1" horiz-adv-x="296" d="M14 412q0 16 4 34q25 4 49.5 19.5t46 34t38 36t24.5 27.5q6 8 17.5 10t22.5 -1t20.5 -8t9.5 -9q2 -4 -14.5 -60.5t-22.5 -179.5q-6 -119 -5 -201.5t-3 -117.5q-25 -4 -47 -4q-20 0 -41 2t-35 8q-23 10 -35 39.5t0 95.5q14 72 52 169t75 190q-25 -41 -47 -72 q-20 -27 -43 -46.5t-39 -10.5q-16 6 -21.5 18t-5.5 27z" />
<glyph unicode="2" d="M-10 386q0 44 27.5 84t87 67.5t157.5 27.5q100 0 152.5 -26.5t69 -66.5t3 -88t-46.5 -93q-41 -53 -86 -102.5t-90 -90.5q106 -55 159.5 -27.5t80.5 111.5q0 2 6 1t10 -7t4 -19.5t-8 -33.5q-35 -78 -100.5 -117t-136.5 -29q-78 14 -123 37q-29 -20 -53.5 -31.5 t-41.5 -11.5q-29 0 -42 36t10 83q23 41 72 55.5t106 -14.5q16 16 37.5 42t46.5 60q43 59 55 112.5t1 93.5t-42 63.5t-76 23.5q-41 0 -67.5 -17t-39.5 -42t-12 -55.5t13 -59.5q8 -16 16 -25.5t15 -15.5q8 -8 14 -10q-33 -20 -64 -29q-27 -6 -54 -1t-44 40q-16 31 -16 75z" />
<glyph unicode="3" horiz-adv-x="561" d="M-59 -43q-4 39 18 68q25 33 54.5 42t55 8t43 -8.5t19.5 -7.5q-2 -2 -16.5 -11t-28.5 -40q-31 -70 -5.5 -121t97.5 -53q55 -2 91 41t44 125q6 80 -27.5 118t-125.5 40q-12 -2 -24.5 -2h-22.5q-2 0 -5.5 8t-3.5 18.5t6.5 17.5t22.5 5q41 -8 87 1t85 44q29 27 47.5 64.5 t22.5 82.5q4 59 -28 95t-103 34q-41 0 -66.5 -17t-38 -43t-10.5 -56.5t14 -57.5q8 -16 16.5 -25.5t14.5 -15.5q8 -8 14 -10q-27 -18 -53 -27q-23 -6 -49.5 -0.5t-46.5 37.5q-23 33 -16.5 77t36 83t84 66.5t131.5 27.5q115 0 168.5 -41t57.5 -100q2 -43 -12.5 -79t-40 -63.5 t-60.5 -50t-74 -36.5q88 -16 135.5 -59.5t43.5 -100.5q-4 -45 -30 -88t-69 -77t-102.5 -54.5t-130.5 -20.5q-66 0 -114 25.5t-74.5 61.5t-30.5 75z" />
<glyph unicode="4" horiz-adv-x="505" d="M-35 63q2 33 34 54.5t79 15.5q2 0 4 -1t6 -1q0 4 2 6q25 59 37 119.5t15 114t-1 95.5t-14 66q0 2 12.5 8.5t30.5 11.5t41 4t43 -13q31 -18 32 -59.5t-16 -94.5q-23 -78 -54.5 -145.5t-65.5 -120.5q29 -4 61.5 -8t60.5 -6q10 29 21.5 54t21.5 48q14 31 27.5 43t25 15 t18.5 0t9 -7l-3 -7t-8 -23.5t-11 -47t-13 -78.5q72 6 80 39q0 2 13.5 0t15.5 -34q2 -43 -30.5 -74t-86.5 -37q-4 -47 -3 -80t4 -55.5t6 -37.5t6 -28q-18 -4 -37 -6q-16 -2 -34 0t-32 8q-29 12 -40 40t-1 100q2 12 6 29.5t9 33.5q-88 16 -146 45q-37 -37 -67 -41 q-23 -4 -42.5 11.5t-15.5 43.5z" />
<glyph unicode="5" horiz-adv-x="567" d="M-49 -43q-2 39 20 68q25 33 54.5 42t55 8t43 -8.5t19.5 -7.5q-2 -2 -16 -11t-29 -40q-31 -70 -12.5 -121t90.5 -53q55 -2 94 51.5t43 139.5q4 88 -49 140t-158 46q-12 -29 -25 -35t-28 -2q-23 6 -21.5 32.5t27.5 35.5q4 0 17 4q4 18 8 48t6 77v123q-76 43 -57 86 q10 18 29.5 27t40 6t37 -18t18.5 -44v-14q18 -4 42.5 -7.5t57.5 -5.5q68 -8 123 9.5t70 35.5q12 -10 20 -24q6 -12 8 -31.5t-8 -46.5q-18 -49 -90 -56.5t-205 42.5q-12 4 -20 8l-6 -60q-6 -49 -13.5 -84.5t-15.5 -62.5q78 12 146.5 6t119.5 -29.5t79 -65.5t26 -106 q-4 -55 -30 -103t-69 -84t-102.5 -56.5t-130.5 -20.5q-66 0 -112 25.5t-70.5 61.5t-26.5 75z" />
<glyph unicode="6" horiz-adv-x="593" d="M2 369q6 78 30.5 151.5t67.5 132t101.5 96t132.5 44.5q55 4 99 -15.5t69.5 -51.5t33 -70t-11.5 -70q-16 -29 -48 -37t-62 -8q-37 0 -78 10q10 4 18 12q8 6 16.5 17.5t12.5 29.5q18 59 -2.5 103.5t-63.5 38.5q-49 -6 -84.5 -78t-54.5 -180q104 16 178 -1.5t118 -53.5 t63.5 -84t17.5 -93q-2 -68 -29.5 -123t-71.5 -94t-100.5 -58.5t-117.5 -13.5q-66 6 -112 38t-75 84t-40 122t-7 152zM166 247.5q4 -69.5 16.5 -120.5t30.5 -82t43 -33q25 -4 50.5 13.5t46 47t33.5 69.5t15 85q4 104 -54 166t-175 58q-2 -12 -3 -24.5t-1 -25.5 q-6 -84 -2 -153.5z" />
<glyph unicode="7" horiz-adv-x="518" d="M2 508q4 41 38 66.5t97 23.5q68 -4 130.5 -29.5t105.5 -50.5q18 14 33.5 24.5t31.5 14.5q33 10 58.5 -7.5t17.5 -51.5q-4 -29 -31.5 -46.5t-74.5 -15.5q-8 0 -18.5 1t-24.5 3q-41 -49 -72 -118.5t-52.5 -151.5t-31.5 -172t-10 -178l-13 -5q-14 -5 -34.5 -7.5t-43 1 t-42.5 15.5q-29 23 -29 62.5t16 93.5q18 63 46 127.5t62 126t69.5 117t72.5 98.5q-39 4 -77 11t-62 11q-63 12 -88 -3t-29 -36q0 -2 -8 0t-17.5 10.5t-16.5 24.5t-3 41z" />
<glyph unicode="8" horiz-adv-x="526" d="M-16 147q2 33 23.5 67t53 67.5t70.5 64.5t78 57q-51 57 -83 100.5t-36 96.5q-6 78 59.5 127t169.5 45q72 -2 114 -37t42 -88q-2 -57 -39 -106t-94 -99q92 -82 128 -145.5t30 -132.5q-6 -59 -35 -99t-72 -65t-96 -34t-109 -7q-94 4 -151 52t-53 136zM82 162 q-4 -63 29.5 -108.5t95.5 -49.5q47 -2 92 31t49 92q4 51 -20.5 109.5t-83.5 128.5q-68 -53 -113 -101.5t-49 -101.5zM203 647q0 -39 28.5 -85t69.5 -83q41 41 59.5 78t20.5 76q4 100 -80 104q-47 2 -72.5 -22.5t-25.5 -67.5z" />
<glyph unicode="9" horiz-adv-x="600" d="M1 2q-5 37 13 70q20 37 54 47t66 7t55.5 -11.5t25.5 -8.5q-2 -2 -19.5 -13t-25.5 -42q-16 -53 -6 -97t47 -48q41 -2 84 75.5t65 221.5q-74 -10 -137 0t-109 35.5t-74 66.5t-30 92q-4 51 13.5 104.5t54.5 96.5t93 68.5t132 19.5q123 -8 183.5 -96t50.5 -250 q-6 -92 -32 -176t-70 -148.5t-105.5 -104.5t-134.5 -44q-55 -2 -97.5 17.5t-67 50t-29.5 67.5zM152 432q4 -98 60 -145t155 -43l6 61q6 70 2 131.5t-16.5 107.5t-32 72.5t-43.5 30.5q-25 2 -49.5 -10t-43 -39t-29.5 -69t-9 -97z" />
<glyph unicode=":" horiz-adv-x="307" d="M74 104q2 45 41 73t84 28t76.5 -31t19.5 -74q-8 -25 -26.5 -43t-40 -30.5t-42 -18.5t-32.5 -6q-23 0 -51.5 26.5t-28.5 75.5zM82 408q2 47 42 74.5t83 27.5q23 0 43 -8t34.5 -23.5t19.5 -35.5t-1 -40q-8 -25 -26.5 -43t-40 -30.5t-42 -18.5t-32.5 -6q-23 0 -51.5 26.5 t-28.5 76.5z" />
<glyph unicode=";" horiz-adv-x="305" d="M76 113q4 45 40 68.5t81 23.5q59 0 85 -45t3 -113q-12 -39 -37 -70.5t-52.5 -52t-54 -30t-41.5 -3.5q-18 6 -17 13.5t5 7.5q74 29 82 65.5t-33 55.5q-27 12 -46 31.5t-15 48.5zM80 408q2 47 41 74.5t84 27.5q47 0 77.5 -32t18.5 -75q-8 -25 -26.5 -43t-40 -30.5 t-42 -18.5t-32.5 -6q-23 0 -51.5 26.5t-28.5 76.5z" />
<glyph unicode="&#x3c;" horiz-adv-x="428" d="M63 293v2l7 6q0 2 2 2l112 86q43 33 69 52.5t41 32.5t24.5 21.5t19.5 16.5q4 -2 10 -8q4 -4 8 -13.5t9 -19.5q6 -25 -8.5 -44t-61.5 -50q-20 -14 -47 -29.5t-52.5 -30t-48 -24.5t-36.5 -14l84 -74q39 -37 64.5 -57.5t40.5 -34t24.5 -20.5t19.5 -15q-2 -6 -6 -12 l-11.5 -11.5t-17.5 -11.5q-23 -10 -44 0t-62 51q-18 18 -40 43t-41.5 49.5t-33.5 45t-18 30.5q-10 18 -7 31z" />
<glyph unicode="=" horiz-adv-x="364" d="M0 263q2 11 6 16h4t19.5 1t45 2t83.5 1q55 0 86.5 1t52 3t33 3t24.5 1q2 -4 4 -12q0 -6 -1 -16.5t-5 -20.5q-10 -23 -31.5 -30t-78.5 -5q-27 2 -59.5 5t-63.5 8t-56.5 10.5t-35.5 9.5q-29 12 -27 23zM6 377.5q2 11.5 4 13.5q0 2 4 3t19.5 2t46.5 2t84 5q53 2 85 4.5 t52.5 4.5t32.5 4l24 4q2 -4 4 -12q2 -12 -4 -37q-8 -23 -29.5 -32t-80.5 -9q-27 0 -59.5 2t-63.5 5t-55.5 8t-36.5 9q-29 12 -27 23.5z" />
<glyph unicode="&#x3e;" horiz-adv-x="428" d="M63 70q-6 25 8.5 44t61.5 50q20 14 46 29.5t51.5 29t48 24.5t36.5 15l-82 74q-41 37 -65.5 57.5t-39.5 33.5t-24.5 20.5t-19.5 15.5q2 6 6 12q8 12 29 23q23 10 44 -0.5t62 -51.5q18 -18 40 -42.5t41.5 -49t33.5 -45t18 -30.5q8 -23 7 -31v-2l-3 -4q-2 0 -2 -1t-2 -1 q-6 -6 -29.5 -23.5t-84.5 -64.5q-43 -33 -68.5 -52.5t-41 -33t-25 -21.5t-19.5 -16q-4 2 -10 8q-10 10 -17 33z" />
<glyph unicode="?" horiz-adv-x="534" d="M25 690q0 43 27.5 83t87 68.5t157.5 28.5q125 0 182 -45t53 -106q-6 -76 -62 -142.5t-161 -140.5q-53 -39 -81.5 -78t-24.5 -92q0 -4 -11.5 -7t-25.5 -2t-24.5 10t-8.5 30q6 37 57.5 98.5t137.5 155.5q39 47 57 89t16 77q-2 53 -38.5 83.5t-98.5 30.5q-41 0 -66.5 -17 t-36.5 -43t-9 -56.5t16 -59.5q6 -16 14 -26.5t15 -14.5q8 -6 16 -8q-35 -20 -68 -28q-29 -6 -58.5 -1t-45.5 39q-16 31 -16 74zM78 104q2 45 42 73t85 28q43 0 75.5 -31t18.5 -74q-8 -25 -26.5 -43t-40 -30.5t-42 -18.5t-32.5 -6q-23 0 -51.5 26.5t-28.5 75.5z" />
<glyph unicode="@" horiz-adv-x="1544" d="M39 252q14 186 87 324.5t183.5 232.5t247.5 143t281 60q168 8 296 -32t213 -113.5t124.5 -174t31.5 -211.5q-8 -121 -53 -215t-111.5 -155.5t-147.5 -86t-159 -6.5q-23 6 -51.5 19.5t-56 35t-51 54.5t-35.5 80q-35 -98 -95.5 -154.5t-126.5 -48.5q-25 2 -50 20.5 t-43.5 49t-25.5 75t5 99.5q16 84 58 138t95.5 82t109.5 30t103 -19q31 37 75 35t79 -37q2 -2 -15.5 -57t-31.5 -166q-4 -41 4 -72.5t25.5 -53.5t42 -33t49.5 -11q37 0 73.5 20.5t66.5 63.5t51.5 109.5t29.5 156.5q12 125 -19.5 222.5t-98 163t-164 97t-216.5 27.5t-220 -55 t-177 -138t-124 -203t-60 -249q-14 -174 32.5 -298t128.5 -202t187.5 -110.5t208.5 -22.5q55 4 93 14.5t63.5 21.5t41 20.5t25.5 13.5q4 2 10 -9.5t2 -27.5q-2 -10 -13 -23.5t-39 -28t-76 -27.5t-124 -21q-139 -14 -275 25.5t-243.5 125.5t-170 213t-50.5 289zM646 204 q1 -36 9.5 -60.5t21.5 -37t25 -12.5q18 0 39 18.5t37.5 50.5t29.5 74t17 91q0 28 6 63q4 31 13 51q-51 14 -107.5 -23.5t-81.5 -133.5q-10 -45 -9 -81z" />
<glyph unicode="A" horiz-adv-x="1239" d="M2 -108q6 50 33 102q39 72 91 123t106 83q55 32 105 46q44 12 76 12h9q35 -4 49 -24.5t15 -43t-4 -41t-7 -18.5q-39 5 -76 5q-78 0 -147 -22q-102 -34 -160 -128q-23 -37 -30 -79q-3 -18 -3 -35q-1 -23 5 -44q10 -37 33.5 -63.5t60.5 -32.5q10 -2 19 -2q36 0 77 24 q51 30 103.5 89t101.5 148t90 202q59 166 115.5 285.5t109.5 200.5t102.5 128t92.5 65q-4 33 -12.5 50.5t-18.5 29.5q33 18 66 27q26 7 53 7h7q30 -1 54 -21q25 -23 37 -55t13 -84v-8q0 -50 -10 -120q-11 -76 -32 -184q-20 -98 -31.5 -179t-15.5 -149q23 10 39.5 18.5 t28.5 16.5q10 -10 18 -24q7 -14 7 -32.5t-7 -39.5q-10 -29 -32.5 -46.5t-55.5 -27.5q6 -129 38 -182t61 -57q18 -4 34.5 5t29.5 24.5t22.5 35t15.5 35.5q0 2 6 1t10 -7t4 -19.5t-8 -33.5q-10 -25 -32.5 -51.5t-53 -47t-65.5 -32.5q-21 -7 -42 -6q-15 0 -30 3 q-27 6 -50.5 25.5t-41 56.5t-28.5 94.5t-15 139.5q-33 0 -71 3t-74.5 7t-71.5 12.5t-60 18.5q-47 -109 -106.5 -189t-127 -129t-139.5 -66q-37 -9 -75 -9q-35 0 -70 8q-49 10 -81 39q-32 30 -46 71q-9 28 -10 61q0 14 2 30zM690 162q37 -1 79 -1h43q67 1 118 1q0 51 4 109 t10 124q14 159 22 259q6 79 5 132v27q-29 -23 -58.5 -63.5t-61.5 -109.5t-66.5 -167t-71.5 -235z" />
<glyph unicode="B" horiz-adv-x="1521" d="M4 16q-5 28 -5 53q0 60 30 104q43 63 111.5 96.5t147.5 40.5q24 2 46 3q49 0 86 -12q20 -6 27.5 -19.5t5.5 -25.5q-2 -14 -11 -31q-39 5 -77 5q-29 0 -57 -3q-66 -6 -116 -29q-52 -22 -82 -60q-29 -36 -28 -85v-6q2 -49 38 -93t98.5 -80t146.5 -61.5t180 -37.5 q79 -10 153 -10q66 0 128 8q130 16 228.5 58t159 106.5t70.5 144.5q2 16 2 31q0 59 -26 102q-32 53 -89 84t-131 42q-54 8 -109 8q-20 0 -40 -1q-23 -4 -47.5 -6t-46.5 -4q-6 16 -6 29q0 10 5 20t25 12q61 4 122 28t109 62.5t77.5 93t31.5 119.5v10q0 110 -88 172 q-78 55 -233 56q-29 0 -60 -2q-139 -10 -237.5 -45t-156.5 -78t-76 -84q-8 -19 -9 -33q0 -17 12 -28q4 -4 -2 -12.5t-20.5 -12.5t-33.5 0t-40 27q-19 19 -19 53q0 13 2 29q10 55 75 112.5t193 103.5t337 56q42 2 81 2q86 0 158 -9q106 -13 177 -49t108 -96q33 -55 33 -130 v-17q-6 -106 -74.5 -186t-179.5 -129q88 0 157.5 -14.5t119 -46.5t75.5 -83q25 -47 26 -115q0 -5 -1 -10q-2 -109 -76 -196.5t-203 -146t-305 -82.5q-97 -13 -204 -14q-87 0 -181 9q-86 8 -172 29.5t-157.5 58.5t-121 90.5t-61.5 124.5zM558 -72q1 36 8 112.5t19.5 212.5 t24.5 365q4 61 4 114.5t-6 111.5q31 18 62 26q25 8 53 8h3q30 0 52 -22q35 -34 38 -90v-17q0 -54 -15 -143q-31 -160 -53.5 -266.5t-38 -182t-23.5 -135t-8 -122.5q0 -47 4 -64.5t2 -19.5q-24 -10 -47 -10q-13 0 -26 3q-36 9 -46 52q-7 28 -7 59v8z" />
<glyph unicode="C" horiz-adv-x="657" d="M2 291q4 203 62.5 350t152.5 241q94 92 214 132q92 30 187 31q29 0 58 -3q55 -6 97 -27.5t69.5 -55t37.5 -77.5q6 -25 7 -51q0 -20 -4 -40q-16 -90 -66.5 -147.5t-114.5 -85.5q-57 -25 -121 -25q-7 1 -15 1q-72 4 -132 35q-20 10 -21 41v9q0 27 5 55q8 37 20 84 q66 -52 128 -74q53 -18 97 -19q8 0 16 1q50 4 86 30.5t48 69.5q8 26 8 51q0 14 -3 28q-7 38 -28.5 66.5t-58.5 47t-86 20.5q-13 1 -25 1q-70 0 -136 -28q-76 -34 -136.5 -110t-99.5 -197t-47 -293q-1 -28 -1 -55q0 -105 18 -191q24 -106 70 -182t108.5 -121t133.5 -63 q51 -13 104 -13q67 0 134 21q121 37 213 129q14 14 23.5 12t13.5 -10q6 -8 8 -24q-140 -137 -290 -187q-103 -35 -199 -35q-44 0 -86 7q-96 16 -180.5 69t-144.5 136t-94 196q-30 101 -30 221v29z" />
<glyph unicode="D" horiz-adv-x="1507" d="M5 -66q13 22 35.5 35t46.5 15t30 -13q25 -51 111.5 -102t252.5 -70q71 -8 135 -8q126 1 226 31q150 46 247 137.5t143 220.5t50 277v11q0 114 -40 203q-42 93 -123 155q-81 64 -195 92q-89 22 -195 22q-30 0 -61 -2q-139 -10 -237.5 -45t-156.5 -78q-60 -43 -78 -84 q-8 -18 -7 -32q0 -18 12 -29q4 -4 -3.5 -12.5t-20.5 -12.5t-32.5 0t-40.5 27q-19 19 -19 53q1 13 3 29q10 55 74.5 112.5t192.5 103.5t337 56q42 2 81 2q142 0 259 -22q150 -28 252 -96t154 -174q46 -95 46 -225q0 -15 -1 -30q-8 -174 -81 -322.5t-204 -254t-318 -157.5 q-139 -39 -307 -39q-58 0 -120 5q-104 8 -180 25.5t-129.5 40t-86 51.5t-49.5 57q-9 14 -9 27q0 10 6 20zM454 54q8 72 19.5 203.5t24.5 360.5q3 49 3 93v21q-1 54 -5 112q31 18 61 26q25 8 53 8h4q30 0 52 -22q36 -34 38 -90v-13q0 -55 -18 -147q-31 -160 -52.5 -262 t-36.5 -174t-23.5 -127t-8.5 -119q0 -47 4 -64.5t0 -19.5q-22 -10 -45 -10q-14 0 -26 3q-36 9 -45 52q-8 29 -8 60q1 32 9 109z" />
<glyph unicode="E" horiz-adv-x="966" d="M-4 649q-1 14 -1 28q0 93 47 177q54 96 156.5 171t244 126.5t307.5 69.5q69 7 129 7q154 0 250 -46q125 -60 124 -175v-16q-6 -84 -64.5 -154.5t-140.5 -114.5q-84 -44 -174 -56q-24 -3 -46 -4q-63 0 -113 26q-59 29 -67 66q-3 13 -3 25q0 23 10 46q18 39 62 80 q84 -63 169 -79q40 -7 76 -7q42 -1 78 9q68 18 111 60t47 91v10q0 101 -120 145q-77 28 -190 28q-71 0 -157 -11q-104 -12 -201.5 -50t-172 -96.5t-119.5 -132.5q-43 -71 -43 -152v-7q2 -96 53 -173t133 -128q81 -52 185 -74q58 -12 117 -12q46 0 93 8q18 4 22.5 -5.5 t0.5 -21.5q-4 -14 -15 -33q-4 0 -5 -1t-3 -1q-10 -10 -24 -10q-82 -10 -159 -33.5t-139.5 -63.5t-104.5 -96.5t-52 -131.5q-2 -19 -3 -37q0 -54 24 -100q30 -62 90.5 -101t146.5 -51q30 -4 62 -5q59 0 123 15q98 23 205.5 82t211.5 164q14 14 22.5 12t12.5 -10q6 -8 8 -25 q-121 -119 -253 -192.5t-259 -105.5q-103 -26 -196 -26q-22 -1 -44 1q-112 8 -194 50t-126 116q-35 58 -35 133q0 21 3 43q16 135 123 225t277 143q-102 12 -191.5 44t-156 81t-106.5 113.5t-46 142.5z" />
<glyph unicode="F" horiz-adv-x="849" d="M-98 974q20 44 69 73q28 18 48 18q7 -1 13 -3q22 -10 19 -13q-45 -35 -62.5 -63t2 -47t79.5 -27q26 -3 62 -3q47 0 110 6q131 10 256 25.5t253 31t261 29t278 21.5q28 2 53 2q69 0 113 -12q60 -16 82 -64q8 -18 8 -36q0 -10 -3 -20q-7 -26 -21 -48q-16 -25 -39 -49 q-55 16 -113.5 25t-122.5 16q-152 14 -294 16h-70q-104 0 -200 -4q-128 -6 -239.5 -16.5t-199.5 -16.5q-44 -3 -82 -3q-93 0 -150 18q-80 24 -106 62q-14 21 -14 44q1 18 10 38zM233 211q0 12 3.5 18.5t7.5 6.5q31 -14 80 -17q35 156 59.5 288t28.5 202q2 43 -2 61t-2 18 q23 11 46 11q10 0 22 -3q34 -8 44 -48q4 -18 4 -48q0 -48 -10 -126q-16 -128 -41 -357h20.5t20.5 2q86 4 132 22.5t71 34.5q12 -16 20 -36q5 -16 9 -39q1 -6 1 -11q0 -17 -8 -34q-14 -33 -42.5 -49.5t-65.5 -22.5q-22 -4 -47 -4q-16 0 -34 2q-44 4 -91 10q-4 -45 -8.5 -92 t-8.5 -100q-4 -46 -4 -87v-27q2 -54 6 -114q-29 -14 -59 -22q-23 -5 -48 -5h-9q-30 1 -56 17q-36 25 -36 103q0 59 20 147q10 53 22.5 106.5t24.5 108.5q-31 12 -47 29q-14 14 -18.5 28.5t-4.5 26.5z" />
<glyph unicode="G" horiz-adv-x="882" d="M10 164q-9 48 -9 105q0 79 17 175q25 131 83.5 243t142.5 194t192 125q94 37 200 37q15 0 30 -1q63 -4 107 -24.5t69.5 -53t35.5 -73.5q5 -25 5 -52q0 -17 -2 -34q-12 -84 -55.5 -137.5t-101.5 -77.5q-54 -23 -113 -23h-9q-65 2 -121 33q-18 10 -20 39t4 59q6 37 20 78 q55 -61 111 -86q49 -23 90 -23q7 0 13 1q46 4 81 35.5t47 84.5q4 19 4 37q0 53 -35 95q-48 57 -157 63h-13q-71 0 -132 -39q-66 -43 -119 -115.5t-91 -167t-59 -190.5q-32 -145 -32 -243q0 -10 1 -20q3 -102 30.5 -154t73.5 -60q12 -2 23 -2q36 0 74 18q45 23 83 62t70 89 t58.5 108.5t48.5 119.5q20 98 79 115q16 5 31 5q42 0 81 -36q2 -2 -20.5 -56.5t-34.5 -166.5q-10 -96 -18.5 -166t-18.5 -123q84 -2 167 -24.5t144 -69.5q1 -1 1 -4q0 -9 -8 -15q-7 -4 -19.5 -4t-32.5 13q-59 35 -127 46q-58 9 -111 9h-20l-9 -49q-27 -170 -68.5 -276.5 t-91 -164t-101.5 -74.5q-29 -9 -55 -9q-22 0 -42 7q-45 13 -79 49t-46 79q-8 30 -8 62q0 24 4 48q10 60 45 119t96.5 115.5t149.5 99.5q20 10 51 21l6 45q6 72 11 124t12 99q-47 -88 -106.5 -161t-137.5 -112q-61 -29 -120 -29q-20 0 -40 3q-78 14 -133 77.5t-76 178.5z M311 -451q6 -37 31 -59t56 -24h4q30 0 62 23q34 24 56 79q10 27 20.5 65.5t19.5 81.5t16.5 89t13.5 87q-29 -6 -45 -16q-55 -27 -100.5 -67.5t-77 -86t-47.5 -90.5q-11 -32 -11 -61q0 -11 2 -21z" />
<glyph unicode="H" horiz-adv-x="1286" d="M-95 -288q-3 21 -3 42q0 42 12 84q20 76 64.5 141.5t101.5 110.5q56 46 124 66q43 13 86 12q25 0 50 -4q45 -8 62.5 -36t19.5 -58.5t-4 -54t-8 -23.5q-70 13 -130 13q-82 0 -147 -24q-113 -42 -149 -147q-16 -47 -16 -89q0 -17 2 -34q10 -57 42.5 -99t82.5 -62 q39 -16 83 -16q13 0 27 1q167 20 247 307q69 249 70 709q0 69 -2 143q-2 63 -4 123t-10 117q31 20 61 29q27 8 55.5 7t51.5 -22q37 -31 41 -91q3 -40 3 -102q0 -31 -1 -67q-4 -150 -15.5 -281t-31.5 -243q27 -2 62.5 -3t75.5 -1t80 1t73 1l8 227q8 160 8 260.5t-3 159.5 t-10.5 89t-13.5 48q33 18 66 29q29 10 59.5 10t54.5 -18q25 -20 38 -53q12 -34 13 -86v-10q-1 -50 -9 -118q-10 -76 -27 -186q-16 -100 -25.5 -182t-13.5 -152q31 10 51.5 21.5t36.5 21.5q10 -12 18 -26q6 -12 8.5 -31t-6.5 -41q-12 -33 -42.5 -51.5t-71.5 -28.5 q0 -150 27.5 -209t68.5 -61q29 -2 57.5 15t53 43t43 54.5t24.5 49.5q0 2 5 1t10.5 -7.5t5.5 -19.5t-9 -34q-12 -29 -35.5 -61.5t-56 -60t-71.5 -46t-84 -18.5q-90 0 -130 81t-46 265q-41 2 -87.5 5t-88.5 10t-75.5 17.5t-52.5 24.5q-2 0 -2 1t-2 1q-61 -289 -182 -442.5 t-293 -159.5h-10q-75 0 -130 28q-58 30 -92 79t-43 111z" />
<glyph unicode="I" horiz-adv-x="997" d="M4 -83q12 71 80 120q52 37 110 44q21 3 43 2q39 1 81 -7q66 -12 140 -39t156 -55q47 164 64 432q5 92 5 167q1 151 -19 233q-25 106 -89 106q-9 0 -20 -2q-61 -14 -94 -69.5t-39 -139.5q-1 -19 -1 -39q-1 -70 15 -152q20 -106 66 -221q8 -23 7 -44.5t-8 -28.5t-20.5 2.5 t-27.5 47.5q-49 127 -71 247q-14 77 -14 143q0 38 4 74q12 96 61.5 161.5t141.5 85.5q47 10 85 9q43 0 76 -11q63 -22 97.5 -87t44.5 -172q6 -61 7 -136q0 -57 -4 -123q-18 -334 -115 -533q70 -18 141.5 -30.5t149.5 -14.5q1 -6 1 -11q0 -16 -5 -30q-4 -16 -15.5 -27.5 t-33.5 -8.5q-74 6 -141.5 20t-133.5 35q-70 -111 -171 -169t-241 -63h-18q-97 0 -165 40q-74 45 -108 109q-25 47 -25 98q0 18 3 37zM75 -64q-2 -14 -2 -29q-1 -42 19 -82q26 -54 92 -93q58 -35 144 -35h18q164 10 244 219q-76 31 -143.5 59.5t-125 46t-104.5 20.5h-11 q-40 0 -73 -19q-49 -31 -58 -87z" />
<glyph unicode="J" horiz-adv-x="1032" d="M10 -356q19 84 94 149q49 41 113 63.5t137 31.5q50 7 104 7q25 0 51 -1q81 -5 165 -19q4 0 8 -1t8 -1q33 115 53.5 250t28.5 291q4 80 4 146t-4 117q-8 103 -31.5 160.5t-61.5 74.5q-23 11 -50 11q-18 0 -39 -5q-47 -10 -94 -47t-84 -92.5t-60.5 -126t-25.5 -150.5v-13 q0 -74 22 -153q23 -86 80 -170q14 -20 18.5 -41t-2 -31t-21.5 -3t-38 42q-61 92 -88 187q-25 89 -25 174v12q2 90 29 170t72 144.5t106.5 107.5t130.5 57t123 14q32 0 59 -5q74 -13 118 -72.5t58 -171.5q10 -71 10 -169q0 -54 -3 -116q-10 -170 -41 -324.5t-82 -290.5 q100 -12 196 -17q54 -3 99 -3q36 0 67 2q2 -12 2 -22.5t-2 -20.5q-4 -16 -12 -30.5t-31 -14.5q-12 -1 -26 -1q-48 0 -117 11q-90 13 -201 33q-45 -104 -102 -191.5t-122.5 -148.5t-141.5 -96t-158 -37h-16q-98 0 -167 46q-73 50 -102 125q-16 45 -16 92q0 33 8 67zM81 -342 q-8 -31 -8 -60q0 -38 13 -74q23 -65 84 -108q55 -39 143 -39h17q100 4 190 118t154 319l-37 6q-134 23 -245 23q-19 0 -37 -1q-126 -4 -201 -67q-55 -47 -73 -117z" />
<glyph unicode="K" horiz-adv-x="901" d="M2 314q4 36 37 66t88 40q18 150 31 334q4 61 4 116.5t-6 112.5q33 16 63 25q23 5 47 5h8q28 -1 52 -22q35 -33 39 -89q1 -8 1 -18q0 -54 -20 -143q-23 -96 -39 -179t-33 -156q92 -27 187 -103q96 53 165.5 140t113.5 183.5t64 190.5q18 85 17 151v13q4 2 10 6q4 4 10.5 5 t14.5 5q29 8 62.5 8.5t59.5 -17t39 -59.5q7 -22 7 -52q0 -28 -6 -64q-14 -96 -59.5 -181t-113 -155.5t-151.5 -127t-178 -93.5q80 -74 169 -180.5t206 -251.5q69 -86 135 -127q63 -39 113 -39h5q52 2 84 50t32 140l9 6q9 5 20 7t20.5 -4.5t9.5 -28.5q0 -92 -47 -154 q-47 -64 -126 -82q-28 -7 -58 -6q-56 0 -122 22q-102 34 -208 132q-127 117 -224.5 244t-175.5 225q-31 -6 -62.5 -9t-64.5 -5q-25 -131 -44 -240t-35 -215q-8 -47 -8 -70.5t-5 -23.5q-15 -4 -29 -4q-22 0 -42 10q-32 16 -35 61q-1 12 -1 27q0 55 18 145q22 115 50 316 q-54 14 -78 46q-20 27 -21 57q0 5 1 10zM58 317q-1 -5 -1 -9q0 -32 49 -52q4 27 7.5 55.5t7.5 57.5q-55 -14 -63 -52zM242 242q23 2 42 4t40 6q-37 43 -66 72q-4 -23 -8 -42.5t-8 -39.5z" />
<glyph unicode="L" horiz-adv-x="886" d="M1 -14q5 34 38 65t92 43q42 8 89 7q52 0 110 -9q57 140 84 451q12 150 55 246t103 145q62 49 132 56q16 2 31 2q54 0 109 -19q43 -16 70.5 -50t41.5 -76q12 -37 11 -74v-11q-2 -43 -23 -80q-14 -25 -36.5 -38t-47 -16t-47 4t-37.5 19l-10 11q-2 2 -2 4q20 18 42 57t32 81 q6 25 6 49q0 16 -3 31q-7 38 -44 54q-22 10 -42 10q-13 0 -26 -4q-33 -10 -60.5 -54t-47 -126t-27.5 -209q-10 -160 -47 -282.5t-94 -209.5q82 -25 170 -67.5t182 -108.5q90 -61 170 -106q81 -45 143 -55q14 -2 26 -1q45 0 76 25q40 33 50 125q0 2 7 4t16.5 1t15.5 -7t6 -23 q0 -80 -50.5 -129t-135.5 -62q-28 -4 -59 -4q-62 -1 -138 17q-112 26 -240 103q-109 66 -189.5 111.5t-146.5 74.5q-101 -78 -217 -78q-18 0 -37 2q-54 6 -80 36q-21 25 -22 53q0 6 1 12zM70 -21.5q0 -15.5 14 -27.5t45 -14q7 0 14 -1q77 0 131 62q-81 28 -133 28 q-12 0 -22 -1q-23 -4 -36 -17.5t-13 -29z" />
<glyph unicode="M" horiz-adv-x="1787" d="M2 -150v10q0 24 8 38q10 16 23.5 22t25 6t11.5 -4q-1 -12 0 -23q0 -57 16 -100q20 -51 76 -67q28 -9 59 -9q29 0 59 8q62 17 126.5 65t125 122t113.5 170q61 113 113.5 230.5t90.5 227.5q37 112 57 208q15 74 15 132q0 18 -1 34q0 4 -1 6t1 6q-2 14 6 16q39 14 88 20 q9 1 18 1q36 0 60 -19q39 -29 48 -133q2 -26 2 -59q0 -98 -20 -258q-20 -166 -26 -272q-3 -58 -3 -103q0 -37 2 -65q5 -62 21.5 -86.5t40.5 -28.5q20 -4 45 19.5t52.5 67.5t55 107.5t54.5 139.5q25 66 50.5 154.5t47 180t34.5 175t13 139.5q0 10 2 14q0 10 9 12q37 12 87 13 h2q48 0 74 -23q18 -16 27.5 -49t9.5 -86t-11 -131t-32 -184q-41 -201 -43 -331v-26q0 -112 16 -182q18 -78 47 -110.5t52 -34.5q18 -4 37.5 6t35 25.5t27 34t15.5 34.5q0 2 6 1t10 -7t4 -19.5t-8 -34.5q-10 -25 -31.5 -51t-53.5 -46.5t-72 -32.5q-21 -6 -45 -6q-21 0 -44 5 q-41 6 -77.5 41t-58.5 110q-20 75 -24 200q0 15 -1 32q0 116 22 281q8 61 13 112.5t9 96.5q-23 -86 -48 -169t-46 -149q-35 -104 -79 -190t-92 -146t-97 -88q-38 -22 -73 -22q-10 0 -19 2q-83 16 -105 152q-14 87 -14 223q0 76 4 168q6 139 6 235v45q-23 -135 -72 -285.5 t-114 -279.5q-59 -119 -135 -203t-159 -134q-83 -49 -168 -65q-38 -7 -75 -7q-45 0 -86 10q-68 16 -103.5 65t-35.5 96z" />
<glyph unicode="N" horiz-adv-x="1439" d="M0 -158q0 31 11.5 46.5t24.5 21.5t23.5 5t10.5 -5q-1 -13 -1 -25q0 -56 15 -98q18 -51 74 -72q31 -10 61 -9q27 0 51 6q54 16 100 66t80.5 135t51.5 206q12 96 22.5 208.5t15.5 220.5q3 67 3 128q0 38 -1 72q-3 92 -16 149q-2 8 0 14q-6 10 2 15q36 18 86 30q19 4 34 4 q26 0 44 -12q41 -23 90 -123t105 -311q55 -217 96 -346t72.5 -196.5t57.5 -86t50 -14.5q27 4 48.5 63.5t33.5 170t12 269t-18 361.5q-4 63 -14.5 117.5t-26.5 110.5q27 20 55 30q25 11 53 13h7q24 0 47 -15q39 -29 49 -85q6 -31 6 -77q0 -37 -4 -84q-18 -289 -53 -477 t-77 -298.5t-88 -155.5t-87 -45t-84 29.5t-87 97t-88 177t-89 267.5q-39 137 -74 232.5t-63 160.5q13 -97 13 -202q0 -26 -1 -53q-4 -134 -21 -314q-14 -143 -61 -244.5t-113 -163.5q-67 -62 -147 -82q-39 -10 -76 -9q-40 0 -80 11q-68 18 -101.5 67.5t-33.5 98.5z" />
<glyph unicode="O" horiz-adv-x="1269" d="M2 315q10 180 75.5 315.5t160.5 233.5q-31 53 -46.5 107.5t-17.5 101.5v21q0 35 5 66q7 40 24 65q25 41 51 59q28 19 48 21h6q16 -1 24 -9q10 -10 2 -24q-12 -20 -18.5 -54t-6.5 -76t8.5 -89t28.5 -95q86 63 176 99.5t174 46.5q43 5 81 6q47 0 89 -8q76 -14 127 -49 t74 -89q15 -35 15 -75q0 -23 -5 -47q78 -72 118 -184q36 -102 36 -210v-22q-4 -141 -54.5 -284.5t-138.5 -256t-212 -182.5q-113 -64 -248 -64q-14 0 -27 1q-137 4 -242.5 63t-176.5 153q-70 96 -104 214q-27 96 -28 196q0 25 2 49zM217 414q-5 -62 -6 -120q-1 -76 9 -148 q16 -128 62 -223t119.5 -154.5t178.5 -65.5l32 -2q60 1 114 19q68 22 121.5 63t94.5 99.5t66 125.5q29 76 46 161t23 169q4 56 4 109q0 26 -1 52q-3 77 -15 138q-4 25 -13.5 47.5t-19.5 42.5q-33 -47 -91 -84t-132 -53q-49 -11 -102 -11q-27 1 -56 3q-84 8 -168 53 q-55 29 -97 61.5t-77 69.5q-74 -139 -92 -352zM387 881q33 -45 74 -84q63 -59 147 -88t162 -33q14 -1 27 0q61 0 111 14q60 18 79 58q8 14 10 28q-41 51 -95 81t-101 38q-23 4 -23 10t15.5 12.5t40 9.5t49.5 1q68 -6 116 -33q-14 41 -44.5 72.5t-73.5 51t-95 25.5 q-20 2 -40 3q-34 0 -68 -7q-86 -16 -159 -55t-132 -104z" />
<glyph unicode="P" horiz-adv-x="1310" d="M2 639q8 72 57.5 134.5t122 111.5t160.5 83t174 48q154 26 283 26q54 0 103 -4q167 -16 276 -70q110 -52 158 -136q35 -61 35 -133q0 -27 -5 -56q-18 -100 -93 -183t-182.5 -142.5t-231.5 -89.5q-110 -27 -214 -27h-27q-14 -68 -24 -121t-17.5 -97t-12.5 -80t-9 -71 q-4 -43 1 -61.5t1 -18.5q-23 -11 -46 -11q-11 0 -21 3q-32 8 -44 49q-4 17 -4 44q0 21 2 51q6 64 19.5 170t31 253.5t29.5 341.5q2 51 2 109.5t-6 118.5q31 16 62 24q27 6 56.5 5t51.5 -21q35 -31 39 -87q1 -9 1 -19q0 -54 -19 -142q-27 -125 -47.5 -221t-36.5 -174 q13 -1 26 0q81 0 160 20q92 24 167 74.5t123 123.5t58 165q2 25 2 47q0 94 -40 156q-50 76 -140 110.5t-207 35.5h-9q-113 0 -230 -24q-96 -18 -179.5 -55t-144.5 -84t-97 -99q-34 -49 -34 -97v-5q2 -53 35 -90t85 -55q52 -19 118 -21h20q57 0 115 13q10 -16 12 -31 q2 -12 -4 -24.5t-27 -20.5q-35 -15 -83 -19q-18 -2 -36 -1q-30 1 -62 5q-50 8 -98 27t-85 51q-38 31 -58 79q-15 35 -14 77q0 17 2 35z" />
<glyph unicode="Q" horiz-adv-x="1155" d="M4 416q12 147 71.5 269t148.5 210t202 137t236 49q131 0 223 -44t146 -123.5t73 -192.5q13 -70 13 -150q0 -49 -5 -102q-12 -141 -51 -255t-93.5 -202t-122 -154.5t-138.5 -111.5q100 -63 204 -174q96 -104 173 -164.5t138 -86.5q51 -22 93 -22q7 0 14 1q47 4 88 26 q25 14 41.5 44t20.5 67q2 14 2 29q0 24 -5 49q-6 41 -24 77q-2 4 22.5 21.5t55.5 30t57.5 8.5t32.5 -41q2 -18 2 -35q0 -30 -6 -60q-10 -48 -35 -92.5t-60.5 -81t-78.5 -59.5q-61 -35 -134 -44q-22 -3 -44 -3q-54 0 -115 16q-86 21 -188.5 78.5t-221.5 157.5q-61 51 -111 94 t-91 78q-57 -23 -109.5 -33t-93.5 -12h-8q-58 0 -96 27q-40 30 -44 61q-2 10 -2 20q0 40 32 77q40 46 151 50q12 1 25 1q48 0 100 -12q67 -15 141 -52q49 39 94 92t83 125t64.5 162t36.5 205q9 92 9 171q0 189 -50 308q-69 168 -237 168q-57 0 -117.5 -22.5t-116 -63.5 t-100.5 -98t-70 -125q-63 -172 -66 -315v-17q0 -131 43 -216q46 -91 135 -121q32 -11 69 -11q64 0 141 34q10 -14 14 -32q4 -16 0 -35t-26 -35q-37 -31 -95 -41q-28 -5 -58 -5t-62 5q-62 10 -124.5 44t-109.5 94.5t-72 148.5q-17 62 -17 142q0 32 3 67zM295 -312 q32 -11 68 -11q10 0 20 1q47 6 100 25q-96 78 -149 92q-11 3 -21 3q-21 0 -37 -11q-24 -15 -24 -41q0 -42 43 -58z" />
<glyph unicode="R" horiz-adv-x="1380" d="M2 641q8 72 57.5 134.5t122 111.5t160.5 83t174 48q154 26 283 26q54 0 103 -4q167 -16 276.5 -69t157.5 -137q35 -61 35 -133q0 -27 -5 -56q-14 -76 -46 -138.5t-77 -112.5t-100.5 -86t-112.5 -60q68 -47 143.5 -120t161.5 -181q68 -86 135.5 -135.5t121.5 -55.5 q7 -1 14 -1q44 0 74 35q34 40 34 132l10 5q9 5 20 7.5t20.5 -4t9.5 -28.5q0 -92 -52 -150q-53 -58 -136 -70q-18 -2 -37 -3q-69 0 -149 33q-102 42 -200 151q-113 123 -186.5 208t-126.5 138q-42 -7 -80 -7h-10q-43 1 -80 9q-29 6 -42 24.5t-13 39t15 39t46 22.5q26 4 52 3 q31 0 61 -4q58 -9 122 -44q72 41 130.5 122t72.5 218q2 25 2 47q0 94 -40 156q-50 76 -139 111.5t-207 35.5t-238 -25q-96 -18 -180.5 -55t-145.5 -84t-97 -99q-34 -49 -34 -97v-5q2 -53 35 -88.5t85 -54t118 -21.5q12 -1 24 0q55 0 111 11q10 -16 12 -31q2 -12 -3 -24.5 t-26 -20.5q-50 -19 -124 -19h-7q-78 1 -149.5 29.5t-118.5 88.5q-39 49 -39 122q0 16 2 33zM446 -205q-3 15 -3 37q-1 24 3 58q6 64 19.5 170t30 253.5t28.5 341.5q2 51 2 110.5t-6 117.5q31 18 62 26q22 6 45 6h11q30 -2 52 -22q36 -33 40 -89q1 -9 0 -20q0 -54 -19 -141 q-41 -190 -68 -319t-44 -220.5t-27.5 -153t-16.5 -116.5q-4 -43 1 -60.5t1 -19.5q-23 -11 -46 -11q-11 0 -21 3q-32 8 -44 49zM712 267q0 -15 29 -19q19 -3 40 -2q28 0 59 4q-45 41 -85 41h-7q-36 -4 -36 -24z" />
<glyph unicode="S" horiz-adv-x="1531" d="M4 -37q-4 22 -4 44q0 59 31 118q43 80 121 136q78 57 182 79q43 9 87 8q63 0 128 -18q23 -8 28 -29.5t5 -46.5q-2 -29 -9 -61q-63 8 -118 8q-110 -1 -189 -33q-119 -50 -129 -162q-1 -7 -1 -15q0 -45 31 -93q36 -58 106.5 -108t174 -87t232.5 -47q62 -5 120 -5t112 5 q108 10 192 37.5t139.5 71t75.5 96.5q13 34 13 68q0 19 -4 37q-11 52 -64.5 105.5t-151.5 107.5t-250 112q-268 99 -404 209q-127 103 -127 206q0 8 1 15q6 53 50 107.5t124 96.5q80 43 194 65q73 14 159 14q50 0 104 -5q135 -10 228 -41.5t153.5 -73.5t91 -90.5t40.5 -92.5 q5 -22 4 -42q0 -19 -4 -37q-10 -36 -28 -53q-23 -18 -64 -22q-18 -2 -36 -2q-22 0 -44 3q-38 5 -66 13t-24 12q58 51 64 107q1 7 1 13q0 48 -34 89q-39 47 -117.5 82t-185.5 47q-52 5 -99 5q-31 0 -59 -2q-74 -5 -131 -21t-93 -43t-42 -62q-2 -9 -2 -19q0 -25 12 -49 q16 -34 67.5 -75t149 -90t254.5 -106q160 -59 260.5 -116t155.5 -117t71 -124q9 -36 8 -77q0 -31 -5 -64q-12 -88 -76.5 -162t-173.5 -123q-109 -50 -259 -70q-84 -12 -178 -11q-74 0 -153 7q-131 12 -241.5 40t-195.5 74t-138.5 109.5t-69.5 147.5z" />
<glyph unicode="T" horiz-adv-x="968" d="M10 972q20 42 60 64q20 10 42 12q12 1 22 2q8 0 16 -1q18 -2 28 -6.5t8 -6.5q-33 -18 -48 -41.5t1.5 -44t71.5 -32.5q28 -6 71 -6q41 0 95 6q262 20 505.5 41.5t469.5 37.5q39 3 70 3q56 0 92 -9q56 -14 81 -55q12 -20 12 -40q0 -8 -2 -16q-6 -28 -20 -53 q-16 -29 -41 -57q-55 16 -107.5 24.5t-115.5 14.5q-152 17 -290 21q-69 2 -134.5 2t-127.5 -2q-124 -4 -231.5 -11.5t-195.5 -13.5q-42 -3 -78 -3q-94 0 -150 20q-76 26 -100 67q-13 22 -13 45q0 19 9 38zM563 -88q25 117 51.5 236.5t49 227t38 194.5t17.5 139q2 43 -2 61 t-2 18q23 11 46 11q11 0 23 -3q34 -8 43 -48q4 -19 4 -49q0 -19 -2 -45q-4 -64 -16 -166.5t-29.5 -248t-33.5 -339.5q-4 -46 -5 -87q0 -13 1 -27q2 -54 6 -114q-29 -14 -60 -22q-23 -5 -48 -5h-8q-30 1 -56 17q-37 25 -37 104q0 58 20 146z" />
<glyph unicode="U" horiz-adv-x="1536" d="M2 152q-2 10 -2 19q0 23 10 46q14 33 43 57q8 8 17.5 6.5t15.5 -8t9 -14.5t1 -10q-25 -18 -35 -41t-6 -42.5t26.5 -35.5t63.5 -25q46 -10 98 -11q29 0 61 4q87 9 173 42q-6 47 -8 99q-1 26 -1 53t1 55q6 184 36 315.5t78 212.5q49 82 113 117q52 28 111 28q13 0 27 -1 q55 -6 89.5 -52t46.5 -116q7 -39 7 -83q0 -36 -4 -75q-10 -88 -46 -176t-97.5 -169t-149.5 -140l-25 -17q10 -205 68.5 -311t163.5 -106q66 0 128 57t117.5 183t99.5 327t73 485l6 60q0 2 1 3t1 5v2l6 14q4 12 30.5 12.5t58.5 -7t58.5 -20.5t30.5 -26q6 -23 5 -58.5 t-7 -83.5t-14 -106.5t-17 -125.5q-23 -203 -30 -332q-4 -67 -4 -119q0 -49 4 -85q6 -75 23.5 -104.5t39.5 -31.5q18 -4 37.5 6t35 25.5t27 34t15.5 34.5q0 2 6 1t10 -7t4 -19.5t-8 -33.5q-10 -25 -30.5 -50.5t-48 -46t-64.5 -30.5q-23 -6 -49 -6q-15 0 -31 2 q-80 10 -119 143q-25 84 -25 224q0 82 9 184q-37 -168 -85 -287t-105.5 -193.5t-124 -109.5t-136.5 -35q-123 2 -212 121t-120 323q-92 -39 -181 -53q-42 -7 -82 -7q-46 0 -89 9q-61 12 -92 40.5t-37 60.5zM653 233l31 25q57 49 100 117.5t70 143.5t39 149q9 56 9 104 q0 16 -1 32q-4 60 -26.5 99t-61.5 45h-7q-34 0 -56 -35q-26 -39 -44 -107.5t-29.5 -162t-17.5 -197.5q-6 -94 -6 -174v-39z" />
<glyph unicode="V" horiz-adv-x="878" d="M2 762v7q0 11 4 28q8 27 32.5 54.5t57.5 48t73 29.5q21 5 43 5q19 0 38 -4q53 -12 101 -49t89 -113t73 -196.5t54 -299.5l31 -280q47 254 174 518q39 82 97.5 176t129 180t151.5 152.5t169 95.5q12 4 21 4q4 0 8 -1q10 -3 15 -9q6 -8 6 -14q0 -2 -1 -2 q-90 -29 -167 -100.5t-137 -160t-106.5 -179.5t-74.5 -154q-49 -104 -90 -199.5t-74 -192t-56.5 -198t-35.5 -215.5q-2 -4 -17.5 -11.5t-27.5 -11.5q-32 -14 -60 -15h-3q-26 0 -54 17q-20 14 -28.5 50t-12.5 94.5t-7 140.5t-14 190q-23 227 -57.5 361.5t-72 206t-73.5 95.5 t-59 28q-20 2 -39.5 -6.5t-35 -23.5t-26.5 -34.5t-12 -36.5q0 -2 -7 -1t-12 7.5t-7 18.5z" />
<glyph unicode="W" horiz-adv-x="1298" d="M0 762v7q0 11 4 28q8 27 32.5 54.5t57.5 48t73 29.5q21 5 43 5q19 0 38 -4q53 -12 101 -49t89 -113t73 -196.5t54 -299.5q14 -113 23.5 -194.5t13.5 -143.5q33 213 87 403.5t120 367.5q14 41 37 32q16 2 40.5 -3t47 -14t40 -22.5t19.5 -27.5q7 -42 7 -127v-21 q-1 -102 -1 -250v-186q39 160 101.5 305.5t142.5 249.5q166 213 351.5 324.5t394.5 142.5q7 1 12 1q24 -1 30 -15q4 -11 4 -15q0 -2 -1 -2q-199 -29 -371 -152.5t-315 -310.5q-68 -86 -126.5 -192.5t-104.5 -225t-77.5 -246.5t-46.5 -257q-2 -6 -21.5 -14.5t-25.5 -4.5 q-39 -10 -61.5 -7t-40.5 18q-18 14 -26.5 48t-10.5 90q-1 28 -1 62t1 74q2 80 4 188q0 82 3 185.5t5 195.5q-59 -182 -109.5 -381.5t-84.5 -445.5q0 -4 -8.5 -10t-18.5 -13l-6 -4q-34 -16 -66 -19h-9q-27 0 -54 17q-20 14 -27.5 50t-11.5 94.5t-7 140.5t-14 190 q-23 227 -58.5 361.5t-73.5 206t-72.5 95.5t-59.5 28q-18 2 -37.5 -6.5t-36 -23.5t-27.5 -34.5t-12 -36.5q0 -2 -7 -1t-12 7.5t-7 18.5z" />
<glyph unicode="X" horiz-adv-x="1009" d="M0 932q33 25 70 41q32 14 70 21q14 3 28 3q24 0 49 -8q49 -16 83 -45t66.5 -78t67.5 -124.5t84 -186.5q29 -70 58.5 -130t58.5 -116l82 92q113 129 184.5 224.5t111.5 167t53 125.5q10 41 10 75q0 11 -1 21q45 14 84 22q20 2 40 2q15 0 29 -1q34 -3 52 -25q8 -12 10 -34 v-6q0 -20 -11 -48q-13 -32 -43 -74.5t-81 -99.5q-115 -123 -236.5 -260.5t-234.5 -270.5q125 -215 227.5 -312t165.5 -106q31 -4 56.5 7.5t45 30t33 40t17.5 35.5q0 2 6 0t10 -8t4 -18.5t-8 -32.5q-10 -23 -36.5 -53.5t-63.5 -56.5t-82 -39q-20 -6 -40 -6l-50 9 q-78 29 -166 125t-207 279q-86 -100 -152.5 -185.5t-103.5 -144.5q-27 -43 -31 -58.5t-6 -15.5q-20 -4 -36 -4q-21 1 -35 7q-26 12 -25 52q0 29 86 139.5t246 295.5q-33 53 -69 113.5t-75 125.5q-94 160 -159.5 255t-110.5 146.5t-75 70t-50 22.5z" />
<glyph unicode="Y" horiz-adv-x="1531" d="M2 152q-2 9 -2 19q0 23 10 46q15 33 43 57q8 8 17.5 6.5t15.5 -8t9 -14.5t1 -10q-25 -18 -35 -41t-6 -42.5t26.5 -35.5t63.5 -25q46 -10 98 -10q30 0 61 3q87 9 173 42q-6 47 -8 99q-1 27 -1 53.5t1 54.5q6 184 36 315.5t78 213t113 116.5q52 28 111 28q13 0 27 -1 q55 -6 89.5 -52t46.5 -116q7 -39 7 -83q0 -36 -4 -75q-10 -88 -46 -176t-97.5 -169t-149.5 -140l-25 -17q10 -205 68.5 -311t163.5 -106q68 0 130 58t117.5 186t99.5 332t73 495l6 53q2 12 29.5 14t60.5 -5t60.5 -20.5t31.5 -29.5q0 2 -2 -20.5t-4 -65.5 q-12 -188 -23.5 -342t-22.5 -278.5t-21.5 -225t-20.5 -180.5q84 -6 157.5 -31.5t131.5 -68.5q1 -1 1 -3t-1 -5q-2 -7 -8.5 -11t-18.5 -4t-33 12q-53 31 -113.5 45.5t-121.5 18.5q-10 -72 -21.5 -128t-25 -105.5t-27.5 -92.5t-31 -84q-37 -92 -86 -146t-99 -79 q-44 -22 -89 -22h-12q-52 4 -94 26.5t-72.5 61t-42.5 88.5q-9 35 -9 73q0 24 4 51q9 66 44.5 131.5t101 125t168.5 100.5q57 25 117 37l4 28q6 59 10 118t9 122.5t10.5 134t13.5 152.5q-37 -170 -85 -290t-106.5 -195.5t-124 -110.5t-137.5 -35q-123 2 -212 121t-120 323 q-92 -39 -181 -53q-42 -7 -82 -7q-45 0 -89 9q-61 12 -92 40t-37 61zM653 233l31 25q57 49 100 117.5t70 143.5t39 149q9 56 9 104q0 16 -1 32q-4 60 -26.5 99t-61.5 45h-7q-32 0 -56 -35q-25 -39 -43.5 -107.5t-30 -162t-17.5 -197.5q-6 -94 -6 -174v-39zM850 -709 q8 -66 46 -97q37 -31 82 -31h3q47 1 93 37t71 110q35 98 49 195.5t23 177.5q-61 -12 -109 -31q-70 -25 -121 -69t-84 -95t-46 -104q-9 -35 -9 -66q0 -14 2 -27z" />
<glyph unicode="Z" horiz-adv-x="972" d="M66 1053q6 35 19 48t27 16q5 1 9 1q8 0 14 -3q10 -5 10 -7q-2 -12 -2 -22q1 -28 13 -44q16 -22 71.5 -30t158.5 -8h269h172h132.5t105.5 -1.5t92 -3.5q55 -4 86 -18t42 -34.5t8 -44t-13 -46.5q-4 -10 -39 -31.5t-115 -89.5q-74 -61 -158.5 -137t-170.5 -157t-169 -163.5 t-150.5 -155.5t-116 -131.5t-66.5 -90.5l-21 -39q68 -7 162 -7h24q110 1 232.5 7t249.5 15.5t242 17.5q39 2 74 3q54 -1 94 -7q66 -10 106 -30q42 -20 56 -48q12 -23 12 -44q0 -6 -1 -10q-3 -26 -21.5 -50.5t-45.5 -39.5q-20 -10 -42 -12q-11 -1 -20.5 -1t-17.5 1 q-18 2 -28.5 6t-8.5 4q33 18 48.5 44t-1 47.5t-71.5 31.5q-25 5 -62 5q-44 0 -104 -7q-121 -12 -218 -25.5t-183 -24.5t-166 -21.5t-162 -18.5q-56 -5 -98 -5q-38 0 -64 4q-56 9 -82 50q-10 19 -10 44q0 14 3 31q9 46 38 93q0 2 2 4q35 59 108.5 154.5t181 215.5t248 257 t310.5 280l1 1q0 4 -35 4q-25 0 -69 -2q-112 -5 -372 -5q-125 0 -225.5 12.5t-170 40t-102.5 71.5q-24 32 -24 72q0 16 4 34z" />
<glyph unicode="[" horiz-adv-x="696" d="M1 -156.5q1 162.5 9 400.5q6 219 16.5 374.5t33 262t60.5 171t101.5 100.5t155.5 50.5t221 22.5q29 2 33 -5.5t-5.5 -17.5t-24.5 -18t-26 -8q-94 -8 -156.5 -18.5t-101 -41.5t-58 -86t-28 -152.5t-11.5 -243t-9 -351.5q-8 -219 -14.5 -373t-2 -255t24 -157.5t61.5 -83 t113.5 -28.5t179.5 6q16 2 28.5 -5.5t16 -16.5t-5 -17t-30.5 -10q-147 -14 -250 -19.5t-168.5 16t-101 77t-49 160t-12.5 267z" />
<glyph unicode="\" horiz-adv-x="550" d="M-45 909q12 18 29 33q14 12 32.5 21.5t40.5 7.5q33 -2 67.5 -39t57.5 -115q18 -57 44 -142t54.5 -182.5t60.5 -197.5t62.5 -190.5t59.5 -162t51 -108.5q16 -29 25.5 -38t9.5 -11q-14 -20 -39 -25.5t-43 19.5q-29 39 -71 143.5t-93 239.5t-110.5 286.5t-120.5 284.5 q-35 72 -62.5 111t-54.5 65z" />
<glyph unicode="]" horiz-adv-x="696" d="M3 -672q-3 8 6 17.5t23.5 18.5t24.5 11q94 6 156.5 17.5t101.5 41t58.5 85t29 152t12.5 241.5t9 354q6 219 12 373t2 255t-22.5 158.5t-61.5 83t-113.5 27.5t-179.5 -6q-16 -2 -28.5 5t-15.5 16.5t4.5 17.5t29.5 10q147 14 249.5 19.5t169.5 -16t101.5 -77t49 -160 t12.5 -268t-8 -399.5q-6 -219 -16.5 -374.5t-33 -262t-60.5 -171t-101.5 -101.5t-156.5 -51.5t-222 -22.5q-29 -2 -32 6z" />
<glyph unicode="^" horiz-adv-x="477" d="M2 580q4 4 16 12q10 8 30 22.5t54 40.5q92 72 129 93.5t54 11.5q10 -6 36.5 -29.5t56.5 -51.5t55.5 -53.5t31.5 -33.5q18 -18 9 -24.5t-11 -8.5q-2 0 -29.5 16.5t-93.5 51.5q-33 16 -55.5 28.5t-26.5 16.5q-14 -8 -29 -17q-12 -8 -26.5 -16t-28.5 -14q-41 -23 -81 -39.5 t-60 -22.5q-25 -6 -29 3t-2 14z" />
<glyph unicode="_" horiz-adv-x="606" d="M0 17.5q2 11.5 4 15.5h43t104.5 1t130 3t121.5 4q53 4 86 7t52.5 5t32 3t26.5 3q2 -4 4 -12q0 -6 -1 -16.5t-5 -20.5q-8 -23 -30 -31t-81 -8q-27 0 -97.5 2t-147 5.5t-140 7.5t-73.5 8q-31 12 -29 23.5z" />
<glyph unicode="`" horiz-adv-x="382" d="M0 733q0 16 9 27.5t22 19.5q14 8 32 15q23 -33 71 -71t145 -85q68 -35 85 -43t17 -10q2 -2 -1 -11.5t-26 -5.5q-18 4 -73.5 16.5t-118.5 28.5q-84 25 -123 51.5t-39 67.5z" />
<glyph unicode="a" d="M3 144q-3 16 -3 34q0 31 8 66q14 68 48 124t80 96t102 60q51 19 104 19h10q43 -2 76 -18.5t52.5 -40t25.5 -50t-4 -49.5q-18 -41 -53 -48q-18 -4 -35 -3.5t-34 3.5q-34 7 -57.5 20.5t-17.5 15.5q31 8 51 33q21 25 21 51q0 7 -1 15q-7 34 -48 36h-7q-53 0 -95 -60 q-44 -64 -64 -167q-8 -46 -8 -81.5t8 -59.5q16 -50 43 -50q37 0 69.5 60.5t53.5 154.5q0 10 2 17q0 8 22.5 2.5t48 -17.5t47 -26.5t19.5 -26.5q-3 -28 -3 -51q0 -47 14 -72q20 -37 46 -41q18 -4 36 6t32 25.5t24.5 35t14.5 36.5q0 2 6 1t10 -7.5t4 -19.5t-8 -34 q-10 -25 -31.5 -49.5t-51.5 -42.5q-30 -19 -64 -27q-17 -4 -34 -4t-34 4q-43 10 -70.5 45t-33.5 113q-38 -86 -90 -133q-45 -40 -95 -40q-9 0 -18 1q-25 2 -49.5 20.5t-43 49t-25.5 74.5z" />
<glyph unicode="b" horiz-adv-x="524" d="M8 233q4 51 11.5 104.5t16.5 112t17 124t13 143.5q3 49 3 93v22q-1 54 -6 110q29 18 58 27q25 8 52.5 8t49.5 -23q35 -33 38 -88v-19q0 -53 -13 -145q-8 -53 -19.5 -115.5t-22.5 -127t-21.5 -127t-18.5 -115.5q-8 -57 -9 -92t2 -54.5t9 -27.5t14 -10q14 -4 34 2 t41.5 24.5t40.5 51t34 82.5q-66 37 -88 126q-7 25 -7 49q0 12 2 24q5 36 23 64t48 44q25 13 57 13q8 0 16 -1q53 -4 91 -62q27 -41 27 -108q0 -28 -5 -61q-4 -16 -7.5 -30.5t-7.5 -29.5q49 10 82 48t49 83q0 2 5.5 1t10.5 -7t5 -19.5t-8 -33.5q-20 -41 -59.5 -72t-100.5 -41 q-25 -53 -62.5 -91t-82 -59.5t-91.5 -28.5q-25 -4 -49 -4q-21 0 -41 3q-65 10 -103 68q-30 46 -30 122q0 21 2 43zM291 340q4 -33 16 -58.5t35 -41.5v2q15 84 15 135q0 18 -2 32q-7 50 -26 50h-3q-18 -2 -32 -35q-8 -19 -8 -44q1 -18 5 -40z" />
<glyph unicode="c" horiz-adv-x="446" d="M2 256q6 86 47 145.5t94.5 93t107.5 39.5q13 2 24 2q37 0 63 -16q40 -24 56 -68q7 -20 7 -39q0 -26 -12 -53q-18 -41 -51 -48q-16 -4 -32 -4q-18 0 -34 4q-32 7 -52.5 20.5t-14.5 15.5q59 18 83 62q20 38 20 63q0 4 -1 8q-4 16 -30.5 17.5t-51.5 -23.5q-20 -23 -42.5 -77 t-26.5 -105q-2 -16 -2 -31q0 -30 8 -55q12 -37 33.5 -62.5t49 -40t54.5 -14.5t54.5 7t52 20.5t43 33t26.5 42.5q0 2 5 1t10.5 -7.5t5.5 -19.5t-9 -34q-10 -25 -36.5 -50.5t-64.5 -46t-86 -31.5q-31 -7 -63 -7q-18 0 -36 2q-35 2 -72 20.5t-67 51.5q-30 32 -48 78 q-14 35 -13 78q0 14 1 28z" />
<glyph unicode="d" horiz-adv-x="581" d="M4 126q-3 20 -3 43t3 50q8 68 42 119t83 86q49 36 107 52q49 14 94 13h16q12 78 19.5 139.5t10.5 115.5q2 40 2 76v24q-1 47 -7 98q29 14 57 21q17 3 34 3q8 0 18 -1q28 -2 50 -25q23 -23 36.5 -55.5t13.5 -84.5t-13.5 -128t-42.5 -183q-29 -111 -41 -185 q-10 -64 -10 -107v-14q2 -46 14.5 -67.5t30.5 -23.5q18 -4 35.5 6.5t31 25.5t22.5 33.5t16 35.5q0 2 6 1t10 -7.5t4 -19.5t-8 -34q-10 -25 -31.5 -48.5t-49.5 -41.5q-28 -17 -62 -27q-18 -5 -37 -6q-16 0 -33 4q-39 10 -64.5 40t-35.5 91q-36 -75 -92 -113q-49 -33 -99 -33 q-8 0 -16 1q-25 2 -48.5 17.5t-40 42t-22.5 66.5zM156 260q-6 -39 -6 -69q0 -36 9 -59q17 -42 44 -42q33 0 65.5 47t48.5 115q2 29 5.5 62.5t9.5 74.5q2 14 3 26.5t5 26.5q-61 0 -114.5 -45t-69.5 -137z" />
<glyph unicode="e" horiz-adv-x="471" d="M2 244q8 100 52 165.5t100 99.5t114 39q11 1 22 1q43 0 70 -17q52 -29 60 -89q1 -12 2 -23q0 -48 -25 -96q-25 -47 -89 -83q-58 -32 -131 -32h-17q18 -59 67 -88t90 -31h9q62 0 114 26q56 28 72 77q0 2 5 1t10 -7.5t5 -19.5t-8 -34q-12 -27 -40.5 -52.5t-69.5 -46.5 q-40 -20 -90 -30q-31 -6 -65 -6q-20 0 -40 2q-33 4 -73 20.5t-74 47.5q-32 30 -54 73q-17 34 -17 78q0 12 1 25zM154 244q33 8 60.5 29.5t48 49t30.5 59.5t10 62q1 54 -25 66q-6 3 -12 3q-20 0 -43 -30q-29 -35 -47 -89t-22 -113q-2 -12 -2 -21t2 -16z" />
<glyph unicode="f" horiz-adv-x="382" d="M-4 -152q4 68 12 147t17.5 161t18.5 163.5t17 155.5l-38 29q-20 12 -25 26q-3 10 -3 17t3 10q2 0 15.5 1t58.5 5l14 154q3 49 3 93v22q-1 55 -7 110q31 18 59 27q22 7 47 7h6q29 -1 52 -22q35 -33 40 -89q1 -10 1 -22q0 -53 -19 -138q-4 -20 -10 -54.5t-14 -79.5 q92 6 143 11.5t84 5.5q2 -6 4 -15q1 -6 1 -13q0 -13 -5 -30q-10 -27 -35 -39q-20 -9 -64 -9q-14 0 -32 1q-25 0 -52.5 2t-56.5 4l-12 -83q70 -86 105.5 -191.5t46.5 -216.5q8 -68 8 -134q0 -19 -1 -39q-3 -85 -22.5 -152.5t-58.5 -112.5t-102 -54q-14 -2 -27 -2 q-38 0 -68 18q-41 23 -65.5 69.5t-34.5 112.5q-6 42 -6 88q0 27 2 56zM140 -224v-20q0 -56 8 -98q8 -49 25 -74q13 -18 32 -18q7 0 14 2q29 8 45.5 52t22.5 106q5 46 5 97q0 17 -1 35q-2 70 -8 134q-6 72 -22.5 151.5t-57.5 157.5q-14 -96 -27.5 -191.5t-23.5 -181.5 q-10 -82 -12 -152z" />
<glyph unicode="g" horiz-adv-x="542" d="M-1 144q-3 16 -3 34q0 31 8 66q12 68 46 124t81 96t103 60q50 19 102 19h10q45 -2 78 -18.5t52.5 -40t24.5 -50t-5 -49.5q-16 -41 -51 -48q-17 -3 -34.5 -3t-34.5 3q-34 7 -57.5 20.5t-17.5 15.5q31 10 51 33q21 25 21 51q0 7 -1 15q-7 34 -48 36h-7q-53 0 -95 -60 q-46 -63 -64 -167q-9 -47 -9 -83q0 -34 8 -58q17 -50 42 -50q33 0 60.5 43t47.5 113l4 16t4 19q6 33 31 35.5t51.5 -8.5t47 -26.5t20.5 -19.5l-2 -22q-2 -23 -6 -55.5t-9.5 -71.5t-9.5 -76q53 25 103 86q12 16 23 34.5t16 35.5q0 2 6 1t11 -7.5t5 -19.5t-10 -34 q-29 -59 -72 -93t-90 -56q-27 -178 -83 -269.5t-115 -124.5q-45 -26 -86 -26q-13 0 -26 3q-52 11 -73 40q-29 41 -32 89v10q0 43 21 86q25 48 77.5 93t134.5 82q8 4 15 6t16 7v4l10 129q-35 -59 -79 -89q-37 -25 -78 -25q-8 0 -17 1q-25 2 -49.5 20.5t-42 49t-24.5 74.5z M76 -328q17 -35 55 -35q2 0 5 1q42 2 73 53q23 37 38 102.5t25 138.5q-8 -4 -14 -5t-10 -5q-119 -49 -159 -122q-24 -44 -24 -81q0 -25 11 -47z" />
<glyph unicode="h" horiz-adv-x="581" d="M2 70q-3 22 -3 48q0 32 4 70q7 70 19.5 155t24.5 181.5t19 192.5q4 61 4 114.5t-7 110.5q27 18 56 27q20 7 45 7h6q28 -1 51 -22q35 -33 39 -89q1 -9 1 -20q0 -53 -19 -140q-14 -68 -34 -170.5t-36 -204.5q29 55 66.5 94t78.5 62.5t82 30.5q17 3 33 3q23 0 43 -6 q25 -8 34 -24.5t8 -45t-9 -68.5t-14 -95q-8 -68 -8 -110q0 -21 2 -35q6 -44 30 -52q16 -6 31.5 3t30 25.5t25.5 38t18 42.5q0 2 6 1t10 -7.5t4 -19.5t-10 -34q-14 -31 -39 -60.5t-55.5 -49t-64.5 -27.5q-15 -4 -30 -4q-18 0 -36 6q-54 16 -70 78q-8 33 -9 77q0 40 7 89 q14 86 21.5 129t-9.5 51q-16 8 -45 -9.5t-58.5 -57.5t-56 -101t-36.5 -141q0 -53 2 -75t0 -22q-25 -10 -50.5 -14t-47 2t-37 21.5t-17.5 44.5z" />
<glyph unicode="i" horiz-adv-x="268" d="M1 272q3 64 15 117q12 51 35 77t49.5 33t55 -4.5t51.5 -33.5q2 0 -4 -17.5t-14.5 -46t-16.5 -69.5t-12 -88q-3 -30 -3 -53q0 -41 9 -64q14 -35 39 -39q18 -4 34.5 7t30 27.5t22.5 37t15 37.5q0 2 6 1t10.5 -7.5t4.5 -19.5t-9 -34q-10 -25 -31.5 -50.5t-50 -46 t-62.5 -31.5q-20 -6 -40 -6q-15 0 -29 3q-41 8 -64.5 50t-33.5 98q-8 43 -8 92q0 15 1 30zM47 717q4 45 42 71.5t81 26.5q44 -1 74 -27q26 -23 27 -61q0 -5 -1 -10q-2 -23 -19.5 -43.5t-41 -38t-45 -27.5t-33.5 -10t-27.5 10t-29.5 28q-13 18 -21 38q-6 16 -6 34v9z" />
<glyph unicode="j" horiz-adv-x="256" d="M-242 -207q25 49 76 95t127 79q12 6 23.5 10.5t21.5 8.5q8 61 11 108t6.5 90t5.5 88t6 105q2 51 21.5 81.5t47 44t59.5 8.5t60 -28q2 -2 -3 -20.5t-9 -56.5q-16 -94 -26.5 -181.5t-22.5 -181.5q23 12 46 31.5t46 48.5q29 33 39 70q2 2 8 1t10 -7.5t4 -20t-10 -33.5 q-29 -53 -67.5 -87t-81.5 -56v-6q-12 -113 -43 -191t-70 -127t-83 -71.5t-83 -26.5q-10 -1 -20 -1q-27 0 -51 8q-31 11 -46 34q-29 38 -29 85q0 49 27 99zM-217 -270q-2 -11 -2 -21q0 -20 8 -37q17 -35 55 -35q2 0 5 1q42 2 73 53q23 41 44.5 105.5t33.5 140.5 q-10 -4 -20.5 -7.5t-18.5 -7.5q-53 -23 -91 -54.5t-59.5 -67.5t-27.5 -70zM63 717q4 45 41 71.5t84 26.5q45 0 74 -27q25 -23 25 -60v-11q-2 -23 -19.5 -43.5t-40 -38t-44 -27.5t-33.5 -10t-28 10t-29 27.5t-23 38.5q-7 16 -7 35v8z" />
<glyph unicode="k" horiz-adv-x="581" d="M2 70q-3 22 -3 48q0 32 4 70q7 70 19.5 155t24.5 181.5t19 192.5q4 61 4 114.5t-7 110.5q27 18 56 27q20 7 45 7h6q28 -1 51 -22q35 -33 39 -89q1 -9 1 -20q0 -53 -19 -140q-14 -66 -34 -165.5t-36 -199.5q39 76 91 127q51 51 105 75q46 21 86 22q6 0 13 -1q45 -4 70 -37 q21 -30 20 -67q1 -5 1 -9q-2 -42 -25 -88.5t-64 -88.5t-92 -70q-12 -6 -7 -13.5t19 -19.5q6 -6 22.5 -19.5t36 -26.5t39 -24.5t31.5 -15.5q16 -6 31.5 3t30 25.5t24.5 38t17 42.5q0 2 6 1q6 -2 10 -8q5 -8 5 -21q0 -12 -9 -32q-14 -31 -39 -60.5t-55.5 -49t-64.5 -27.5 q-15 -4 -30 -4q-18 0 -36 6q-29 8 -59 31.5t-57.5 50t-49 51.5t-29.5 37q-16 25 -14 36t18 21q111 71 150 135q25 42 25 65q0 13 -7 21q-16 18 -50 3t-71 -59t-68.5 -114.5t-43.5 -160.5q0 -55 2 -77t0 -22q-25 -10 -50.5 -14t-47 2t-37 21.5t-17.5 44.5z" />
<glyph unicode="l" horiz-adv-x="266" d="M-1 220q1 70 17 169q16 104 26 182q11 77 16 141q4 53 4 100v18q-1 54 -7 112q31 14 62 21q18 3 37 3q8 0 18 -1q28 -2 51 -25q19 -20 29 -51q8 -26 8 -66v-17q-2 -52 -15.5 -129t-37.5 -188q-48 -226 -48 -317q0 -88 40 -94q18 -4 35.5 8t32 30.5t24.5 39t14 37.5 q0 2 6 1t10.5 -7.5t4.5 -19.5t-9 -34q-10 -25 -31.5 -51.5t-50 -47t-63.5 -31.5q-20 -6 -41 -6l-29 3q-33 8 -56 32q-24 26 -36 72q-12 43 -11 106v10z" />
<glyph unicode="m" horiz-adv-x="905" d="M10 173q0 69 4 128q4 61 4 115.5t-6 111.5q4 2 24 10q18 9 44 15q22 5 45 5h8q27 -1 47 -19q29 -25 34 -67q1 -10 1 -22q0 -37 -12 -92q61 96 140 138q51 27 92 26q23 0 42 -8q40 -15 40 -56v-6q-3 -46 -19 -145q29 61 67.5 105.5t79.5 71t81 34.5q16 3 31 3q22 0 42 -7 q39 -14 39 -57v-13q-6 -54 -21 -163q-8 -68 -8 -110q0 -21 2 -35q6 -44 31 -52q16 -6 31.5 3t28.5 25.5t24.5 38t17.5 42.5q0 2 6 1t10.5 -7.5t4.5 -19.5t-9 -34q-14 -31 -38.5 -60.5t-54 -49t-63.5 -27.5q-15 -4 -30 -4q-19 0 -37 6q-59 16 -73 78q-7 29 -7 67q0 44 9 99 q12 86 19 129t-9 51t-47 -16.5t-63 -75.5t-56.5 -126t-28.5 -165v-23q-23 -12 -49.5 -16t-48 1t-36.5 21.5t-17 47.5q-2 21 -2 41q0 25 3 48q5 42 11 83q12 86 19.5 129t-9.5 51q-16 8 -47 -16.5t-62.5 -77t-56 -127t-28.5 -164.5v-25q0 -6 2 -8q-32 -16 -62 -16 q-14 0 -27 4q-42 10 -51 65q-6 47 -6 116z" />
<glyph unicode="n" horiz-adv-x="581" d="M12 528q4 2 22 10q18 9 44 15q22 5 46 5h8q28 -1 48 -19q27 -25 33 -66q2 -11 2 -25q0 -36 -12 -88q59 92 135 132q52 28 98 28q20 0 39 -6q25 -8 34 -24.5t8 -45t-9 -68.5t-14 -95q-8 -72 -9 -115q0 -18 2 -30q5 -44 31 -52q16 -6 31.5 3t30 25.5t24.5 38t17 42.5 q0 2 6 1t10 -7.5t4 -19.5t-8 -34q-14 -31 -39 -60.5t-55.5 -49t-64.5 -27.5q-15 -4 -30 -4q-18 0 -36 6q-54 16 -70 79q-8 33 -9 77q0 40 7 88q12 86 20.5 129t-8.5 51q-16 8 -47 -16.5t-62.5 -77t-56 -127t-28.5 -164.5v-21q-32 -16 -63 -16q-13 0 -27 4q-44 10 -50 66 q-4 44 -4 102t4 129q4 61 4 115.5t-6 111.5z" />
<glyph unicode="o" horiz-adv-x="473" d="M2 244q6 82 39 137t76 87t89 41q24 5 46 5q19 0 35 -4q23 23 51 25q5 1 10 1q24 0 42 -16q20 -20 30 -56t11 -84q0 -10 1 -19q0 -39 -4 -80q-2 -47 -16 -93h2q18 2 33.5 12.5t26.5 23t18.5 22.5t9.5 14q4 6 16 -4q5 -4 6 -12q0 -11 -10 -29q-14 -23 -39.5 -47.5 t-68.5 -24.5h-9q-59 -133 -196 -143q-8 -1 -17 -1q-32 1 -62 13q-38 16 -66 47t-44 78q-11 34 -12 75q0 15 2 32zM156 268q-1 -11 -1 -22q1 -67 23 -109q26 -49 76 -51h5q27 0 49 18q24 20 42 52q-61 32 -84 108q-18 50 -20 112v11q0 55 20 94q-4 1 -8 1q-15 0 -31 -11 q-29 -23 -49 -76t-22 -127zM315 283q10 -66 54 -88q10 31 14 73q3 26 3 48q0 30 -5 52q-8 38 -29 38h-2q-23 0 -34 -37q-6 -19 -6 -42q0 -21 5 -44z" />
<glyph unicode="p" horiz-adv-x="569" d="M-28 -342q-1 4 -1 10q0 55 15 150q6 47 14 105.5t15.5 120.5t14.5 128t11 125q3 49 3 93v22q-1 55 -7 112q4 2 23.5 11.5t45.5 15.5q19 5 38 5q7 0 14 -1q26 -2 47 -20q34 -29 34 -93q0 -18 -3 -39q37 59 82 90q37 26 81 26q8 0 17 -1q51 -6 80 -54q23 -36 23 -110 q0 -25 -3 -55q-4 -29 -8 -52.5t-14 -45.5q41 -4 78.5 -10.5t64.5 -10.5q2 -2 4 -9q1 -3 1 -6q0 -4 -2 -9q-3 -9 -12.5 -14t-27.5 -1l-125 21q-23 -41 -54.5 -68.5t-65 -43t-65.5 -19.5t-57 2q-16 4 -26 17t-10 31.5t13 40t46 42.5q37 23 96 33q4 16 7 34.5t8 38.5q6 53 6 88 q0 27 -3 44q-8 40 -36 42q-16 2 -35.5 -19.5t-39 -57t-37 -80.5t-29.5 -90q-14 -72 -21.5 -143.5t-11.5 -162.5q-3 -41 -3 -86q0 -23 1 -47q2 -73 6 -178q-29 -18 -55 -26q-22 -8 -47 -8h-4q-27 1 -50 22q-35 33 -36 90zM234 90v-5q0 -20 20 -24q3 -1 6 -1q20 0 40 24 q24 27 42 80q-43 -6 -74 -25q-31 -23 -34 -49z" />
<glyph unicode="q" horiz-adv-x="561" d="M1 140q-3 16 -3 34q0 31 8 66q14 68 48 124t81 96t103 62q46 18 94 18q9 0 18 -1q43 -2 74 -18.5t48 -39t22 -49.5q1 -7 1 -15q0 -18 -8 -34q-18 -41 -51 -49q-16 -4 -32.5 -4t-31.5 4q-32 8 -53.5 21.5t-15.5 15.5q16 4 28.5 12t22.5 18q21 26 21 53q0 7 -1 14 q-7 34 -46 38h-7q-55 0 -97 -60q-44 -63 -64 -167q-8 -47 -8 -82.5t8 -60.5q16 -48 43 -48q39 0 72.5 60.5t50.5 158.5v10q4 2 19 2t34.5 -4t38 -14t31.5 -29q8 -12 7 -45.5t-5.5 -86t-11.5 -119t-9 -146.5q-3 -41 -3 -87q0 -23 1 -48q2 -74 6 -178q-29 -12 -55 -19 q-13 -2 -28 -2q-11 0 -23 1q-27 3 -49 26q-35 33 -37 89v13q0 55 14 148q8 55 23.5 143t29.5 174q-37 -72 -86 -109q-42 -31 -89 -31q-7 0 -15 1q-25 2 -49.5 20.5t-43 49t-25.5 74.5z" />
<glyph unicode="r" horiz-adv-x="456" d="M2 113q20 31 36.5 70.5t30 84.5t22.5 92.5t13 88.5q-43 29 -54 69q-4 16 -4 30q0 21 9 38q12 25 34 36q15 8 30 8q7 0 13 -2q20 -5 32 -30q10 -21 11 -60q0 -7 -1 -14q0 -4 -1 -5t-1 -5q18 -1 35 0q33 0 59 2q39 4 64.5 7t41 2t25.5 -11q5 -6 5 -22q0 -18 -7 -48 q-12 -54 -28 -163q-9 -68 -9 -110q0 -21 2 -35q7 -44 31 -52q16 -6 31.5 3t30 25.5t25.5 38t18 42.5q0 2 5 1t10 -7.5t5 -19.5t-8 -34q-14 -31 -39 -60.5t-55.5 -49t-64.5 -27.5q-15 -4 -30 -4q-18 0 -36 6q-57 16 -71 78q-7 32 -8 75q0 41 7 91q6 43 12 76.5t10 56.5 q6 27 13 47h-22q-33 0 -64 4q-16 -80 -45 -164t-64 -137q-12 -20 -22.5 -25.5t-16.5 -2.5t-9 9q-2 3 -2 5q0 1 1 2z" />
<glyph unicode="s" horiz-adv-x="428" d="M-4 113q18 27 34.5 62.5t32 75.5t27.5 82t21 81q-33 53 -47 102q-5 18 -4 34q0 28 14 50q14 20 38 30q16 7 30 8q6 0 14 -2q22 -6 36 -28q13 -20 14 -55q0 -5 -1 -10q-2 -18 -6 -38t-9 -42q23 -29 54.5 -61.5t60.5 -69.5t48.5 -78t19.5 -84q0 -53 -21 -98 q35 23 57.5 54.5t34.5 66.5q2 3 16 -7q6 -5 6 -16q0 -14 -9 -37q-12 -35 -40 -64.5t-65 -50t-79 -28.5q-24 -5 -48 -5q-18 0 -37 3q-76 6 -120 63q-12 14 -10.5 23.5t8 14.5t14.5 6t8 -1q12 -25 31.5 -37t40 -9t37 22.5t20.5 56.5q1 13 1 26q0 41 -14 87q-18 60 -50 110 q-25 -66 -54.5 -128t-54.5 -99q-12 -18 -22.5 -23.5t-16.5 -3.5t-9 8q-2 4 -2 7q0 1 1 2z" />
<glyph unicode="t" horiz-adv-x="296" d="M-77 616q-1 9 -1 15q0 8 2 10q2 0 23.5 1t93.5 5q4 63 5 109v18q0 36 -3 68q35 16 70 24q19 4 39 4q10 0 20 -1q30 -3 51 -25q17 -25 19 -69q0 -5 1 -11q0 -42 -10 -105q61 4 99.5 8.5t64.5 4.5q2 -6 4 -15q1 -6 1 -13q0 -14 -5 -30q-9 -27 -35 -39q-19 -9 -64 -9 q-15 0 -32 1h-23.5t-23.5 2l-18 -94q-23 -111 -32 -185q-8 -67 -8 -112v-10q1 -47 10 -69.5t28 -24.5q5 -1 10 -1q29 -1 55 29q30 34 41 76q2 2 7 1t9.5 -7t4.5 -19.5t-9 -33.5q-10 -25 -30.5 -48.5t-49 -42t-62.5 -27.5q-18 -5 -36 -5q-16 0 -33 4q-33 8 -54 29.5t-32 64.5 q-12 42 -13 110v13q0 64 9 156l21 213q-23 4 -42.5 5t-41.5 3q-27 2 -30 22z" />
<glyph unicode="u" horiz-adv-x="575" d="M3 130q-3 20 -3 43q0 27 4 58q6 45 11 81t8.5 67t3.5 58.5t-2 56.5l20 10t40 13q17 4 35 4q8 0 14 -1q24 -2 44 -20q29 -27 29 -74t-27 -139q-21 -73 -20 -119q0 -18 2 -32q12 -48 43 -48q33 0 65.5 48t48.5 114q1 55 7 110q6 59 27.5 93t49 46.5t57 3.5t56.5 -34 l-10 -45q-10 -47 -19 -145q-4 -57 -4 -96q1 -31 3 -51q6 -44 30 -52q16 -6 31.5 3t28 25.5t22.5 38t16 41.5q0 2 6.5 1t10.5 -7q5 -8 5 -20t-9 -31q-14 -33 -38 -61.5t-52.5 -48t-61.5 -26.5q-14 -3 -27 -3q-19 0 -38 6q-33 10 -53.5 52t-30.5 102q-36 -78 -92 -120 q-49 -37 -100 -37q-7 0 -15 1q-27 2 -50.5 17.5t-41 45t-24.5 71.5z" />
<glyph unicode="v" horiz-adv-x="483" d="M3 130q-3 20 -3 43q0 27 4 58q6 45 9 81t4 67t0 58.5t-3 56.5q2 2 21.5 10t45 13t52.5 3t47 -20q29 -29 29 -73t-29 -140q-21 -73 -20 -119q0 -18 2 -32q12 -48 43 -48q20 0 55 28.5t66 69.5q-16 16 -28.5 38t-18.5 46q-12 37 -12 81q-1 48 13 89q12 39 38 64.5t63 25.5 q31 -2 49.5 -25.5t22.5 -62.5q1 -12 2 -26q-1 -28 -7 -60q-8 -47 -28 -96q-8 -16 -16.5 -32.5t-18.5 -32.5q25 -10 47 -9q18 0 33.5 10.5t28 22.5t20.5 22.5t10 14.5q4 6 16 -3q5 -4 4 -12q0 -11 -9 -30q-12 -23 -39 -47.5t-72 -24.5q-31 0 -66 21q-29 -35 -61.5 -66 t-65 -53.5t-62.5 -34.5q-26 -10 -44 -10h-6q-27 2 -50.5 17.5t-41 45t-24.5 71.5zM328 287q4 -39 24 -64q6 10 11.5 19.5t9.5 19.5q24 54 24 92q0 43 -24 47h-3q-21 1 -34 -31q-10 -23 -10 -55q0 -13 2 -28z" />
<glyph unicode="w" horiz-adv-x="794" d="M3 130q-3 20 -3 43q0 27 4 58q6 45 9 81t3 67t-1 58.5t-3 56.5q4 2 22.5 10t44 13t53.5 3t48 -20q29 -29 29 -73t-29 -140q-21 -73 -20 -119q0 -18 2 -32q12 -48 43 -48q25 0 54.5 43t51.5 109v31.5t2 27.5q10 111 47 158q34 43 88 43h9q35 -4 45 -33q4 -11 4 -26 q0 -24 -10 -56q-10 -35 -22.5 -59.5t-22.5 -77.5q-6 -31 -6 -55q0 -41 17 -66q27 -39 56 -39q23 0 57.5 27.5t65.5 68.5q-16 18 -29.5 40t-19.5 46q-12 39 -12 85t12 85t37.5 64.5t62.5 25.5q33 -2 50.5 -25.5t22.5 -62.5q2 -14 2 -30q1 -26 -5 -56q-8 -47 -29 -96 q-14 -35 -33 -65q23 -10 45 -9q18 0 34 10.5t28 22.5t20.5 22.5t10.5 14.5q4 6 15 -3q4 -4 4 -11q0 -11 -9 -31q-12 -23 -40 -47.5t-71 -24.5q-35 0 -61 19q-57 -78 -126 -122q-63 -40 -110 -40h-8q-51 4 -76.5 50t-36.5 104q-45 -86 -100 -122q-50 -32 -91 -32h-9 q-27 2 -50.5 17.5t-41 45t-24.5 71.5zM641 287q2 -20 8 -35.5t17 -30.5l20 41q23 53 23 90v6q-2 39 -25 43h-3q-21 1 -33 -31q-9 -23 -9 -54q0 -14 2 -29z" />
<glyph unicode="x" horiz-adv-x="573" d="M-10 102q35 61 50 109.5t28 105.5l-25 43q-22 38 -22 69q1 17 7 33q20 42 62 46q6 1 11 1q35 -1 55 -23q17 -18 17 -50q0 -13 -3 -28q2 -6 12 -23q10 -14 26.5 -42t51.5 -75l25 -35q37 45 61 97q21 45 22 102q0 9 -1 19q0 18 -1 36.5t-4 36.5l20 10q14 7 34 11q11 2 24 2 q10 0 20 -1q24 -3 42 -22q34 -33 35 -86q0 -23 -7 -49q-12 -45 -68 -102.5t-126 -116.5q88 -96 164 -96q41 0 69.5 36.5t42.5 77.5q0 2 5.5 1t10.5 -7t5 -18t-8 -33q-14 -31 -36 -58.5t-49.5 -47t-61.5 -28.5q-16 -4 -33 -4q-18 0 -37 5q-66 16 -156 100l-33 -28 q-39 -35 -57.5 -60.5t-22.5 -44.5q-5 -1 -10 -1q-10 0 -20 3q-12 4 -23.5 9.5t-13.5 21.5q-4 23 13 44t56 56l58 52q-23 25 -44.5 50t-43.5 54q-33 -74 -70 -137q-12 -20 -21.5 -25.5t-16.5 -4.5t-11 7q-3 4 -3 6q0 1 1 2z" />
<glyph unicode="y" horiz-adv-x="548" d="M3 130q-3 20 -3 43q0 27 4 58q6 45 11 81t8.5 67t4.5 58.5t-1 56.5q2 2 19 10t40 13q16 4 34 4q7 0 14 -1q26 -2 46 -20q26 -26 26 -76q0 -48 -26 -137q-21 -73 -21 -119q0 -18 3 -32q12 -48 43 -48q29 0 60.5 42t47.5 101l29 154q20 98 78 117q16 4 31 4q42 0 81 -37 q2 -4 -15 -52t-32 -173q-6 -53 -12 -104.5t-14 -100.5q23 16 45 33.5t45 46.5q29 33 39 69q0 2 6 1t11 -7t5 -18t-10 -33q-31 -59 -68.5 -90t-82.5 -51q-16 -86 -40 -163t-65 -142q-37 -59 -80 -88t-83 -34q-12 -1 -23 -1q-26 0 -48 8q-30 12 -44 35q-18 31 -22 77 q-1 8 -1 15q0 39 19 81q22 50 73 99t144 86l6 4q0 4 1 6t1 7q4 35 5 64.5t5 55.5q-35 -53 -82 -80q-41 -25 -84 -25q-6 0 -12 1q-27 2 -50.5 17.5t-41 45t-24.5 71.5zM95 -272q-3 -15 -3 -29q0 -16 4 -29q6 -18 20 -25q11 -5 23 -5q5 0 11 1q18 3 36.5 15t30.5 33 q20 37 36.5 100.5t27.5 134.5q-55 -25 -94.5 -57.5t-62 -68.5t-29.5 -70z" />
<glyph unicode="z" horiz-adv-x="542" d="M2 101q-1 2 -1 4.5t1 3.5q29 53 52.5 125.5t35.5 144.5q-37 37 -48 87q-4 18 -4 36q0 33 13 67q9 29 31 43q16 10 34 10q6 0 11 -2q23 -4 39 -24.5t16 -58.5v-19.5t-2 -19.5q18 -10 49 -14.5t67 -5.5h36h36q36 1 66 5q45 66 75 73t44 -21q4 -12 0 -35t-20.5 -48.5 t-44 -52t-68.5 -47.5q-8 -16 -15.5 -31.5t-15.5 -33.5q-16 -39 -33.5 -74t-33.5 -66q59 -29 99 -42q32 -11 57 -11q6 0 10 1q28 3 45.5 25.5t31.5 67.5q0 2 6.5 1t10.5 -7t4 -18t-8 -33q-34 -79 -90 -119q-43 -31 -101 -31q-17 0 -35 3q-70 12 -123 39q-45 -45 -82 -45 q-8 0 -16 2q-31 8 -38 44q-2 10 -2 21q-1 27 13 54q18 39 61 63q24 14 56 14q23 0 51 -8q14 20 30.5 50t33.5 73l14 37q-14 -4 -27.5 -6.5t-29.5 -4.5q-17 -2 -33 -2q-26 1 -49 5q-37 6 -68 20q-20 -63 -45.5 -122.5t-50.5 -96.5q-12 -18 -21.5 -23.5t-15.5 -3.5t-8 7z" />
<glyph unicode="{" horiz-adv-x="894" d="M2 281q4 10 12 22q98 -8 150.5 29t74 107.5t20.5 169t-7 210.5q-12 254 115 367.5t419 64.5q25 -4 34 -14t8 -21.5t-12.5 -18.5t-27.5 -7q-104 8 -172.5 -17.5t-107.5 -82t-51.5 -138.5t-5.5 -182q6 -113 -8.5 -195.5t-45 -143t-74.5 -97.5t-96 -58q55 -20 102.5 -58 t79 -99.5t44 -146.5t-1.5 -197q-14 -111 -5 -191t47.5 -128t111.5 -64.5t186 2.5q16 2 28 -4t14.5 -16.5t-6 -21.5t-32.5 -18q-307 -78 -440.5 28t-104.5 374q12 109 15 199t-17.5 156.5t-68.5 107.5t-138 53q-4 0 -7 1t-7 1q-20 2 -24.5 9t-0.5 18z" />
<glyph unicode="|" horiz-adv-x="337" d="M38 -409q-3 87 3 243t19.5 391.5t35.5 577.5q4 63 4 116.5t-6 110.5q33 18 64 27q27 8 55.5 6t50.5 -23q35 -31 36 -87t-13 -162q-47 -334 -72 -562.5t-37 -377t-13 -230.5t1 -121q2 -47 4 -64.5t0 -17.5q-37 -16 -73 -8t-46 51t-13 130z" />
<glyph unicode="}" horiz-adv-x="894" d="M1 1196q-3 10 6 20.5t34 16.5q307 76 440 -29.5t103 -372.5q-12 -109 -15.5 -198.5t16 -156t67.5 -108.5t136 -55h19q18 -2 23.5 -9t0.5 -17q-4 -10 -12 -23q-98 8 -150.5 -28.5t-73 -107.5t-20.5 -169t7 -213q14 -250 -114 -364.5t-421 -65.5q-25 4 -34 15.5t-7 21.5 t13.5 18t27.5 6q104 -10 173 17.5t107 83t51 137.5t7 182q-8 113 6.5 196t45 143.5t73.5 97t96 57.5q-55 18 -102 57t-79 100.5t-44 146.5t2 200q14 109 5 188.5t-47 128.5t-110.5 65.5t-185.5 -1.5q-18 -4 -29.5 3t-14.5 17z" />
<glyph unicode="~" horiz-adv-x="450" d="M2 645q4 37 31.5 61.5t81.5 20.5q33 -2 65.5 -11t61 -21.5t53 -24t45.5 -13.5q33 -6 45 14.5t8 43.5l9 -3q10 -3 21 -10.5t20.5 -19.5t7.5 -31q-8 -76 -117 -73q-12 0 -38 4t-54.5 9t-56 11t-46.5 10q-53 12 -74.5 -3t-25.5 -34l-6 3q-6 2 -14.5 9t-13.5 21.5t-3 36.5z " />
<glyph unicode="&#xa1;" horiz-adv-x="360" d="M92 -102q-6 55 31 157q29 72 51.5 139.5t38.5 114.5q4 16 7 31.5t5 28.5q2 14 2 26q16 6 35 1t27 -27q6 -29 -1 -118t-12 -206q-4 -68 -2 -121t13 -104q-29 -18 -56 -27q-23 -8 -50 -7t-48 24q-35 33 -41 88zM158 567q8 25 26.5 43.5t40 30.5t42 18.5t32.5 6.5 q23 0 51.5 -27t26.5 -76q0 -45 -39 -72.5t-84 -27.5q-47 0 -77.5 30.5t-18.5 73.5z" />
<glyph unicode="&#xa2;" horiz-adv-x="436" d="M27 250q10 117 78.5 191.5t152.5 101.5q-2 25 -2 45v30q4 2 10 3h10.5t16.5 -5q14 -8 21.5 -20t4.5 -43q53 4 95 -14q41 -16 56 -51t-7 -64q-14 -18 -33.5 -19.5t-36 4t-22.5 9.5l-19 12q23 14 29 34.5t-10 35.5q-8 4 -23.5 8t-32.5 4q-2 -29 -4 -83t-5 -118.5t-5 -132 t-4 -119.5q47 2 80 39t49 90q0 2 6 0t10 -8t4 -18t-8 -33q-16 -35 -52 -73t-91 -54q-2 -12 -3 -23.5t-1 -17.5q-4 -16 -16.5 -17t-12.5 3q-2 8 -2 16v33q-29 -4 -59 0q-29 2 -62 20.5t-59.5 51t-43 77.5t-9.5 105zM168 276q-10 -88 17.5 -142t74.5 -71v345v44t-2 42l-4 -5 q-27 -25 -52.5 -78t-33.5 -135z" />
<glyph unicode="&#xa3;" horiz-adv-x="491" d="M14 15.5q-4 13.5 0 29.5t21 35q37 41 94 49l-10 78l-2 4q-16 4 -28.5 7t-22.5 7q-14 8 -19.5 22.5t-3.5 16.5q10 -2 20 -2t21.5 -1t26.5 -1q-8 84 3 143.5t36.5 96.5t64.5 54t88 19q39 0 71 -12t49 -32.5t17 -48t-20 -54.5q-23 -29 -44.5 -33t-41.5 2q-23 8 -45 25 q10 2 18 8q8 4 16.5 13.5t14.5 25.5q10 27 -3 49.5t-50 20.5q-53 -4 -72.5 -58.5t-5.5 -156.5q2 -16 3 -29.5t1 -28.5q41 4 63.5 6t32.5 4q2 -4 2 -10q0 -4 -1 -11t-3 -17q-12 -43 -90 -37h-10q-4 -16 -9.5 -32.5t-11.5 -33.5q45 -2 88 -24q78 -41 108 -35t32 57q0 2 6 4 t12 0t9 -12t1 -33q-6 -45 -50 -80t-122 -24q-51 10 -81.5 32.5t-43.5 44.5q-49 -57 -92 -71q-12 -4 -22.5 3t-14.5 20.5z" />
<glyph unicode="&#xa4;" horiz-adv-x="538" d="M-20 279l3 4l12 16t26.5 35.5t46.5 60.5q-25 45 -21 115q6 84 45 143q-29 29 -50.5 53.5t-31.5 38.5q-12 14 -12 24.5t4 17t10 8.5t8 2l6 -3q5 -3 17 -12.5t35.5 -28t62.5 -46.5q62 51 148 51q74 0 125 -56q49 47 73 64q16 12 26.5 13t16 -3t7.5 -10t2 -8l-3 -5 q-4 -5 -13 -17.5t-27.5 -36t-46.5 -62.5q16 -51 14 -109q-6 -80 -45 -139q31 -33 55.5 -59.5t34.5 -38.5q12 -16 13 -26.5t-3 -16.5t-10 -8t-8 -2l-6 3q-5 3 -19 14t-39.5 30.5t-68.5 52.5q-53 -39 -136 -39q-70 0 -120 41l-78 -72q-16 -12 -26.5 -12t-16.5 4t-8 10t-2 9z M182 524q-6 -98 15.5 -145t56.5 -47q33 0 53.5 49t28.5 127q12 102 -5.5 158.5t-51.5 56.5q-39 0 -64 -57.5t-33 -141.5z" />
<glyph unicode="&#xa5;" horiz-adv-x="555" d="M12 508q14 23 33 41q16 16 37.5 25.5t50.5 5.5q29 -6 49.5 -36t33.5 -69t20.5 -82t11.5 -78q0 -14 2 -29.5t4 -31.5l31 82q23 66 37 122t18 109q33 8 61 8q25 0 49.5 -9t38.5 -34q23 -37 14 -88t-81 -125q-16 -16 -30.5 -33.5t-31.5 -37.5q29 2 44.5 4t25.5 6q2 -4 2 -10 t-4 -23q-8 -33 -84 -28q-14 0 -25 2l-26 -37q45 4 69.5 6t34.5 6q2 -4 2 -10q0 -4 -4 -25q-10 -33 -84 -26h-22.5t-24.5 2q-10 -18 -20.5 -43t-19.5 -46.5t-15 -37.5l-6 -15q-16 0 -32.5 10.5t-16.5 36.5q0 12 11 39t28 64q-29 4 -43 10q-12 6 -17.5 17.5t-3.5 13.5l82 -4 l20 41q0 2 -2 2q-33 4 -60.5 7t-37.5 9q-14 4 -18 15.5t0 13.5h30q14 0 30.5 -1t37.5 -1q-10 25 -20.5 49t-18.5 39q-35 66 -69.5 108.5t-90.5 65.5z" />
<glyph unicode="&#xa6;" horiz-adv-x="346" d="M39 322q-8 29 7 149.5t24 319.5q2 82 -2.5 139t-10.5 100q12 25 35 35q18 10 49 8t74 -33q39 -27 43 -85t-8 -164q-12 -111 -22.5 -198t-24 -148.5t-36 -99.5t-58.5 -52q-25 -10 -44.5 -5t-25.5 34zM39 -551q-8 29 7 149.5t24 319.5q2 82 -2.5 139.5t-10.5 100.5 q12 25 35 35q18 10 49 8t74 -33q39 -27 43 -85.5t-8 -164.5q-12 -111 -22.5 -198t-24 -148t-36 -99t-58.5 -53q-25 -10 -44.5 -6t-25.5 35z" />
<glyph unicode="&#xa7;" horiz-adv-x="493" d="M40 28.5q9 28.5 30.5 47t49 22.5t56.5 -10q27 -14 32 -29.5t1 -29.5q-6 -16 -19 -33q-31 29 -59.5 19.5t-30.5 -31.5q-4 -33 26 -56.5t95 -23.5q63 0 96 20t41 51q2 14 0 28.5t-15 29t-38.5 30t-68.5 29.5q-84 27 -124 75t-26 107q16 70 111 97q-66 29 -94.5 71.5 t-16.5 96.5q12 47 62.5 75.5t125.5 24.5q59 -2 95.5 -18.5t52.5 -36t18 -40t-6 -30.5q-10 -16 -27.5 -20.5t-33 -2t-25.5 6.5t-8 6q29 39 8.5 68.5t-76.5 33.5q-41 4 -67.5 -10t-28.5 -31q0 -20 27.5 -38.5t95.5 -41.5q90 -29 129 -78t23 -128q-6 -29 -22.5 -54.5 t-43.5 -44.5q86 -55 66 -166q-12 -61 -75 -103t-159 -40q-25 0 -51.5 5t-51 16.5t-44 29t-27.5 43.5q-12 35 -3 63.5zM176 301q0 -20 27.5 -38.5t95.5 -41.5q10 -4 20.5 -8t20.5 -8q12 12 18 35q4 25 -11 51t-83 55q-39 -2 -62.5 -15.5t-25.5 -29.5z" />
<glyph unicode="&#xa8;" horiz-adv-x="489" d="M2 717q4 45 41 71.5t82 26.5t73.5 -26.5t24.5 -71.5q-2 -23 -19.5 -43.5t-40 -36.5t-44 -26.5t-33.5 -10.5t-27.5 10.5t-29 26.5t-21.5 36.5t-6 43.5zM266 717q4 45 41 71.5t82 26.5t73.5 -26.5t24.5 -71.5q-2 -23 -19 -43.5t-39.5 -36.5t-45.5 -26.5t-35 -10.5 t-26.5 10.5t-27.5 26.5t-21.5 36.5t-6.5 43.5z" />
<glyph unicode="&#xa9;" horiz-adv-x="538" d="M61 248q0 43 16.5 82t44.5 67.5t66.5 45t81.5 16.5h2q43 0 80 -16.5t64.5 -45t44 -67.5t16.5 -82q0 -45 -16.5 -84t-44 -67.5t-65.5 -45t-81 -16.5t-81.5 16.5t-66.5 45t-44.5 67.5t-16.5 84zM96 246q0 -78 50.5 -130.5t123.5 -52.5q72 0 123 53.5t51 131.5 q0 39 -13 72.5t-36.5 58t-55.5 39t-69 14.5q-74 0 -124 -54t-50 -132zM156 244q0 59 38.5 94t92.5 35q23 0 40 -5.5t27 -9.5q4 -2 0 -15t-8 -13q-8 4 -23.5 8t-35.5 4q-47 0 -70.5 -27.5t-23.5 -68.5t23.5 -68.5t70.5 -27.5q18 0 34.5 4t28.5 8q0 -2 2 -4t2 -4t2 -4l4 -13 q-37 -18 -79 -18q-59 0 -92 35.5t-33 89.5z" />
<glyph unicode="&#xab;" horiz-adv-x="606" d="M63 293v2l7 6q0 2 2 2l112 86q43 33 69 52.5t41 32.5t24.5 21.5t19.5 16.5q4 -2 10 -8q4 -4 8 -13.5t9 -19.5q6 -25 -8.5 -44t-61.5 -50q-20 -14 -47 -29.5t-52.5 -30t-48 -24.5t-36.5 -14l84 -74q39 -37 64.5 -57.5t40.5 -34t24.5 -20.5t19.5 -15q-2 -6 -6 -12 l-11.5 -11.5t-17.5 -11.5q-23 -10 -44 0t-62 51q-18 18 -40 43t-41.5 49.5t-33.5 45t-18 30.5q-10 18 -7 31zM241 285q7 8 11 10l108 84q43 33 69 52.5t41 32.5t24.5 21.5t19.5 16.5q4 -2 10 -8q10 -10 19 -33q4 -23 -9.5 -42t-62.5 -52q-18 -12 -44 -27.5t-50.5 -30 t-47 -25t-36.5 -16.5l86 -61q43 -31 69.5 -49.5t44 -29.5t27.5 -17.5t23 -14.5q-2 -6 -6 -12q-4 -4 -9.5 -11t-15.5 -14q-23 -12 -45.5 -5t-67.5 44q-20 16 -43.5 39t-46 45.5t-39 41t-22.5 28.5q-14 25 -7 33z" />
<glyph unicode="&#xad;" horiz-adv-x="444" d="M24.5 263q2.5 11 4.5 16h4t19.5 1t46 3t83.5 4q53 4 86 7t52.5 5t32 3t26.5 3q2 -4 4 -12q0 -6 -1 -16.5t-5 -20.5q-8 -23 -30 -31t-81 -8q-27 0 -59.5 2t-63 5t-55.5 7.5t-35 8.5q-31 12 -28.5 23z" />
<glyph unicode="&#xae;" horiz-adv-x="354" d="M61 371q0 47 34 79.5t83 32.5t82 -32.5t33 -79.5t-33 -80t-82 -33t-83 33t-34 80zM90 371q0 -37 24.5 -63.5t63.5 -26.5q37 0 61.5 26.5t24.5 63.5t-24.5 63.5t-61.5 26.5h-2q-37 0 -61.5 -26.5t-24.5 -63.5zM133 311v115q8 0 18.5 1t24.5 1q23 0 37 -7t14 -26 q0 -18 -22 -26v-2q14 -2 20 -27q2 -23 6 -29h-26q-4 4 -5 11.5t-5 17.5q-4 18 -23 18h-12v-47h-27zM162 377h12q10 0 17.5 3t7.5 11q0 18 -25 19q-10 0 -12 -2v-31z" />
<glyph unicode="&#xaf;" horiz-adv-x="487" d="M1 654.5q-1 7.5 2 13.5t5 6l6 1t26.5 3t58.5 3t102 5q61 4 106 7t78 5t55.5 4.5l40.5 4.5q2 -6 4 -15q4 -18 -4 -43q-10 -29 -36.5 -40t-96.5 -9q-37 2 -84 5t-92 7t-83 8.5t-54 8.5q-18 4 -25.5 11t-8.5 14.5z" />
<glyph unicode="&#xb0;" horiz-adv-x="489" d="M39 754q6 111 72 179t168 68q78 0 130 -59t44 -170q-6 -104 -66.5 -166.5t-163.5 -62.5q-86 0 -138 58t-46 153zM174 770q-8 -98 13.5 -146.5t56.5 -48.5q33 0 53.5 50.5t30.5 128.5q10 102 -7.5 158.5t-52.5 56.5q-39 0 -63.5 -57.5t-30.5 -141.5z" />
<glyph unicode="&#xb1;" horiz-adv-x="432" d="M37 78.5q2 11.5 4 15.5h4q4 0 19.5 1t46 3t84.5 4q53 4 85.5 7.5t52 5.5t32 3t26.5 3q2 -4 4 -12q0 -6 -1 -16.5t-5 -20.5q-8 -23 -29.5 -31t-80.5 -8q-27 0 -60 2t-63.5 5t-55 7t-34.5 8q-31 12 -29 23.5zM37 299.5q2 11.5 4 15.5h4t18.5 1t42 3.5t76.5 4.5 q-4 39 -6 62.5t-3 39.5t-2 26.5t-3 22.5q4 2 12 4q10 2 37 -4q23 -10 31 -31.5t8 -78.5v-18.5t-2 -18.5q66 4 90.5 7t46.5 7q2 -4 4 -12q0 -6 -1 -16.5t-5 -20.5q-8 -23 -29.5 -31t-80.5 -8h-29q-4 -35 -8 -64.5t-9 -39.5q-12 -31 -23 -28t-15 5q0 4 -2 20q-2 14 -3.5 39 t-3.5 72q-41 4 -74.5 9t-45.5 9q-31 12 -29 23.5z" />
<glyph unicode="&#xb4;" horiz-adv-x="380" d="M2 574.5q-2 9.5 0 11.5q0 2 16.5 11t83.5 46q92 47 143.5 83t73.5 69q16 -2 31 -11q10 -6 20.5 -17t10.5 -28q0 -76 -164 -121q-63 -18 -117.5 -31.5t-72.5 -17.5q-23 -4 -25 5.5z" />
<glyph unicode="&#xb5;" horiz-adv-x="575" d="M-45 -276.5q4 59.5 12 130t18.5 151.5t16.5 169q-4 31 2 57q6 45 11 81t8.5 67t3.5 58.5t-2 56.5l20 10t40 13t48.5 3t44.5 -20q29 -27 29 -74t-27 -139q-14 -51 -14 -88t9 -61.5t23.5 -37t30.5 -12.5q33 0 54.5 48t35.5 114q1 55 7 110q6 59 27.5 93t49 46.5t57 3.5 t56.5 -34l-10 -45q-10 -47 -19 -145q-8 -104 -1.5 -147.5t30.5 -51.5q16 -6 31.5 3t28 25.5t22.5 38t16 41.5q0 2 6.5 1t10.5 -7t5 -18t-9 -33q-14 -33 -38 -61.5t-52.5 -48t-61.5 -26.5t-65 3q-31 10 -51.5 49t-30.5 98q-25 -74 -58.5 -111.5t-101.5 -37.5q-33 0 -68 20 q-10 -94 -15 -187t-5 -157q0 -59 2 -81.5t0 -22.5q-47 -23 -83 -13.5t-44 66.5q-4 43 0 102.5z" />
<glyph unicode="&#xb6;" horiz-adv-x="1415" d="M39 489q-2 106 54.5 207t162.5 178.5t261.5 122.5t352.5 39q100 -4 192.5 -25.5t162 -64.5t110.5 -108.5t41 -153.5q0 -47 -16.5 -89t-42 -79t-57 -65.5t-62.5 -47.5q-14 -8 -22.5 1.5t-11.5 25.5t0 32.5t12 20.5q43 29 80.5 79t41.5 97q2 61 -25.5 115.5t-83.5 96.5 t-139 69t-192 33q-51 4 -104 0q20 -33 19 -86t-19 -142q-41 -190 -69 -334.5t-48.5 -254t-31.5 -186t-17 -132.5q-6 -43 -1 -60.5t3 -19.5q-35 -16 -68 -7t-43 50q-8 35 3.5 131.5t29.5 249.5q-74 -2 -157 9.5t-153.5 45t-116.5 94t-46 158.5zM764 -104.5q6 65.5 19.5 170 t29.5 252t29 341.5q4 51 3 110.5t-7 117.5q33 18 63 26q27 8 55.5 6.5t51.5 -22.5q35 -31 39 -88.5t-19 -161.5q-41 -190 -67.5 -319t-44 -220.5t-26.5 -152.5t-16 -117q-6 -43 -0.5 -60.5t3.5 -19.5q-35 -16 -68 -7t-43 50q-8 29 -2 94.5z" />
<glyph unicode="&#xb8;" horiz-adv-x="274" d="M2 -164q10 78 66.5 129t126.5 88q10 4 11 -7t-11 -17q-31 -16 -56.5 -68.5t-29.5 -118.5q-4 -39 9 -60.5t33.5 -28.5t46 -0.5t48.5 24.5q2 2 9 0t12 -6t7 -10.5t-6 -12.5q-37 -35 -87 -47t-92 -2t-68.5 44t-18.5 93z" />
<glyph unicode="&#xba;" horiz-adv-x="489" d="M39 754q6 111 72 179t168 68q78 0 130 -59t44 -170q-6 -104 -66.5 -166.5t-163.5 -62.5q-86 0 -138 58t-46 153zM174 770q-8 -98 13.5 -146.5t56.5 -48.5q33 0 53.5 50.5t30.5 128.5q10 102 -7.5 158.5t-52.5 56.5q-39 0 -63.5 -57.5t-30.5 -141.5z" />
<glyph unicode="&#xbb;" horiz-adv-x="606" d="M57 80q-4 23 9.5 42t60.5 52q20 12 45 27.5t49.5 29t47 23.5t38.5 16l-86 64q-43 31 -70.5 49t-44 29.5t-26.5 17.5t-23 14q2 6 6 13q4 4 9.5 10t15.5 14q23 12 44.5 5t68.5 -44q20 -16 43.5 -38.5t45 -45t39 -41t23.5 -28.5q14 -27 7 -35t-11 -8l-110 -84 q-43 -33 -69 -52.5t-41 -33t-24.5 -21.5t-19.5 -16q-4 2 -10 8q-10 10 -17 33zM236 70q-6 25 8 44t61 50q20 14 46 29.5t51.5 29t48 24.5t36.5 15l-81 74q-41 37 -66 57.5t-40 33.5t-24.5 20.5t-19.5 15.5q2 6 6 12q8 12 29 23q23 10 44 -0.5t62 -51.5q18 -18 40 -42.5 t41.5 -49t33.5 -45t18 -30.5q8 -23 7 -31v-2q0 -4 -7 -6v-2l-114 -86q-43 -33 -68.5 -52.5t-41 -33t-25 -21.5t-19.5 -16q-4 2 -10 8q-10 10 -16 33z" />
<glyph unicode="&#xbc;" horiz-adv-x="948" d="M39 842q0 16 4 35q25 4 49.5 19t46 33.5t38 36t24.5 27.5q6 8 17 10.5t22.5 -1t20.5 -8.5t9 -9q2 -4 -14 -60.5t-23 -179.5q-6 -119 -5 -201.5t-3 -117.5q-25 -4 -47 -4q-20 0 -40.5 2t-35.5 8q-23 10 -34.5 39.5t0.5 95.5q14 72 52 169.5t75 189.5q-25 -41 -48 -72 q-20 -27 -42.5 -46.5t-38.5 -10.5q-16 6 -21.5 18t-5.5 27zM156 23q6 47 39.5 135t78.5 194.5t91.5 218t80.5 207.5q27 74 32 122t5 85q20 4 43 4q18 0 38 -6t36 -22q23 -23 22 -76t-36 -125q-41 -80 -98.5 -184.5t-113 -209t-97 -194.5t-50.5 -143l-8 -58q-25 -6 -46 6.5 t-17 45.5zM408 63q2 33 33.5 54.5t78.5 15.5q2 0 4 -1t6 -1q0 4 2 6q25 59 37.5 119.5t15.5 114t-1 95.5t-15 66q0 2 12.5 8.5t31 11.5t41 4t42.5 -13q31 -18 32 -59.5t-15 -94.5q-23 -78 -54.5 -145.5t-66.5 -120.5q29 -4 61.5 -8t61.5 -6q10 29 21.5 54t21.5 48 q14 31 27.5 43t24.5 15t18.5 0t9.5 -7l-4 -7q-3 -7 -8 -23.5t-11 -47t-12 -78.5q72 6 80 39q0 2 13 0t15 -34q2 -43 -30.5 -74t-85.5 -37q-4 -47 -3 -80t4 -55.5t6 -37.5t5 -28q-18 -4 -37 -6q-16 -2 -33.5 0t-31.5 8q-29 12 -40.5 40t-0.5 100q2 12 6 29.5t8 33.5 q-88 16 -146 45q-37 -37 -67 -41q-23 -4 -42.5 11.5t-14.5 43.5z" />
<glyph unicode="&#xbd;" horiz-adv-x="1060" d="M39 842q0 16 4 35q25 4 49.5 19t46 33.5t38 36t24.5 27.5q6 8 17 10.5t22.5 -1t20.5 -8.5t9 -9q2 -4 -14 -60.5t-23 -179.5q-6 -119 -5 -201.5t-3 -117.5q-25 -4 -47 -4q-20 0 -40.5 2t-35.5 8q-23 10 -34.5 39.5t0.5 95.5q14 72 52 169.5t75 189.5q-25 -41 -48 -72 q-20 -27 -42.5 -46.5t-38.5 -10.5q-16 6 -21.5 18t-5.5 27zM156 23q6 47 39.5 135t78.5 194.5t91.5 218t80.5 207.5q27 74 32 122t5 85q20 4 43 4q18 0 38 -6t36 -22q23 -23 22 -76t-36 -125q-41 -80 -98.5 -184.5t-113 -209t-97 -194.5t-50.5 -143l-8 -58q-25 -6 -46 6.5 t-17 45.5zM489.5 386q-0.5 44 27.5 84t87.5 67.5t157.5 27.5q100 0 152.5 -26.5t68.5 -66.5t3 -88t-46 -93q-41 -53 -86 -102.5t-90 -90.5q106 -55 159.5 -27.5t80.5 111.5q0 2 6 1t10 -7t4 -19.5t-8 -33.5q-35 -78 -100.5 -117t-137.5 -29q-78 14 -123 37 q-29 -20 -53 -31.5t-41 -11.5q-29 0 -42 36t9 83q23 41 72 55.5t107 -14.5q16 16 37.5 42t46.5 60q43 59 55 112.5t1 93.5t-42 63.5t-76 23.5q-41 0 -67.5 -17t-40 -42t-12.5 -55.5t14 -59.5q8 -16 16 -25.5t14 -15.5q8 -8 15 -10q-33 -20 -64 -29q-27 -6 -54.5 -1t-43.5 40 q-16 31 -16.5 75z" />
<glyph unicode="&#xbe;" horiz-adv-x="1292" d="M39 387q-4 39 18 68q25 33 54.5 42t55.5 8t43 -8.5t19 -7.5q-2 -2 -16 -11t-29 -40q-31 -70 -5 -121t97 -53q55 -2 91 41t45 125q6 80 -28 118t-126 40q-12 -2 -24.5 -2h-22.5q-2 0 -5 8t-3 18.5t6 17.5t22 5q41 -8 87.5 1t84.5 44q29 27 47.5 64.5t22.5 82.5 q4 59 -27.5 95t-103.5 34q-41 0 -66.5 -17t-38 -43t-10.5 -56.5t15 -57.5q8 -16 16 -25t14 -16q8 -8 15 -10q-27 -18 -54 -26q-23 -6 -49 -1t-47 37q-23 33 -16.5 77t36 83t84 66.5t132.5 27.5q115 0 168 -41t57 -100q2 -43 -12.5 -79t-40 -63.5t-60 -50t-73.5 -36.5 q88 -16 135 -59.5t43 -100.5q-4 -45 -29.5 -88t-68.5 -77t-102.5 -54.5t-131.5 -20.5q-66 0 -114 25.5t-74.5 61.5t-30.5 75zM500 23q6 47 39.5 135t79 194.5t91.5 218t81 207.5q27 74 31.5 122t4.5 85q20 4 43 4q18 0 38 -6t36 -22q23 -23 22 -76t-36 -125 q-41 -80 -98.5 -184.5t-112.5 -209t-97 -194.5t-51 -143l-8 -58q-25 -6 -46 6.5t-17 45.5zM752 63q2 33 33.5 54.5t78.5 15.5q2 0 4 -1t6 -1q0 4 3 6q25 59 37 119.5t15 114t-1 95.5t-15 66q0 2 12.5 8.5t31 11.5t41 4t42.5 -13q31 -18 32 -59.5t-15 -94.5 q-23 -78 -54.5 -145.5t-66.5 -120.5q29 -4 61.5 -8t61.5 -6q10 29 21.5 54t21.5 48q14 31 27.5 43t24.5 15t18.5 0t9.5 -7l-3 -7t-8.5 -23.5t-11.5 -47t-12 -78.5q72 6 80 39q0 2 13 0t15 -34q2 -43 -30.5 -74t-85.5 -37q-4 -47 -3 -80t4 -55.5t6 -37.5t5 -28q-18 -4 -37 -6 q-16 -2 -33.5 0t-31.5 8q-29 12 -40.5 40t-0.5 100q2 12 6 29.5t8 33.5q-88 16 -145 45q-37 -37 -68 -41q-23 -4 -42 11.5t-15 43.5z" />
<glyph unicode="&#xbf;" horiz-adv-x="534" d="M4 -94q6 76 62.5 142.5t160.5 139.5q53 39 82 78t25 92q0 4 11 7.5t24.5 2.5t25 -10.5t8.5 -29.5q-6 -37 -57 -98.5t-137 -155.5q-39 -47 -57.5 -89t-16.5 -77q2 -53 39 -84t98 -31q41 0 67 17.5t37 43t9 56.5t-16 59q-16 31 -29 41q-8 6 -16 8q35 20 67 29q29 6 57.5 1 t47.5 -40q16 -31 16 -75t-27.5 -83.5t-87 -67.5t-157.5 -28q-125 0 -182.5 45.5t-53.5 106.5zM238 524q8 25 26.5 43.5t40 30.5t42 18.5t32.5 6.5q23 0 51.5 -27t28.5 -76q-2 -45 -42 -72.5t-85 -27.5q-43 0 -75.5 30.5t-18.5 73.5z" />
<glyph unicode="&#xc0;" horiz-adv-x="1239" d="M2 -107.5q6 50.5 33 101.5q39 72 91 123t106.5 83.5t104.5 46t85 11.5q35 -4 49 -24.5t15 -43t-4 -41t-7 -18.5q-121 16 -223 -17.5t-160 -127.5q-23 -37 -30 -79t2.5 -79t33 -63.5t60.5 -32.5q45 -8 96 21.5t103.5 89t101.5 148.5t90 202q59 166 115.5 285.5 t109.5 200.5t102.5 128t92.5 65q-4 33 -12.5 50.5t-18.5 29.5q33 18 66 27q29 8 59.5 7t54.5 -21q25 -23 37 -54.5t13 -84t-10 -128t-32 -184.5q-20 -98 -31.5 -179t-15.5 -149q23 10 39.5 18.5t28.5 16.5q10 -10 18 -24q14 -29 0 -72q-10 -29 -32.5 -46.5t-55.5 -27.5 q6 -129 38 -182t61 -57q18 -4 34.5 5t29.5 24.5t22.5 35t15.5 35.5q0 2 6 1t10 -7t4 -19.5t-8 -33.5q-10 -25 -32.5 -51.5t-53 -47t-65.5 -32t-72 -3.5q-27 6 -50.5 25.5t-41 56.5t-28.5 94.5t-15 139.5q-33 0 -71 3t-74.5 7t-71.5 12.5t-60 18.5q-47 -109 -106.5 -189 t-127 -129t-140 -66t-144.5 -1q-49 10 -81.5 39.5t-46 70.5t-7.5 91.5zM690 162q55 -2 122 -1t118 1q0 51 4 109t10 124q14 158 21.5 258.5t5.5 159.5q-29 -23 -58.5 -63.5t-61.5 -109.5t-66.5 -167t-71.5 -235zM844 1182q0 16 9 27.5t21 19.5q14 8 33 14q23 -33 71 -70.5 t144 -85.5q68 -35 85.5 -43t17.5 -10q2 -2 -1 -11t-26 -5q-18 4 -73.5 16.5t-118.5 28.5q-84 25 -123 51.5t-39 67.5z" />
<glyph unicode="&#xc1;" horiz-adv-x="1239" d="M2 -107.5q6 50.5 33 101.5q39 72 91 123t106.5 83.5t104.5 46t85 11.5q35 -4 49 -24.5t15 -43t-4 -41t-7 -18.5q-121 16 -223 -17.5t-160 -127.5q-23 -37 -30 -79t2.5 -79t33 -63.5t60.5 -32.5q45 -8 96 21.5t103.5 89t101.5 148.5t90 202q59 166 115.5 285.5 t109.5 200.5t102.5 128t92.5 65q-4 33 -12.5 50.5t-18.5 29.5q33 18 66 27q29 8 59.5 7t54.5 -21q25 -23 37 -54.5t13 -84t-10 -128t-32 -184.5q-20 -98 -31.5 -179t-15.5 -149q23 10 39.5 18.5t28.5 16.5q10 -10 18 -24q14 -29 0 -72q-10 -29 -32.5 -46.5t-55.5 -27.5 q6 -129 38 -182t61 -57q18 -4 34.5 5t29.5 24.5t22.5 35t15.5 35.5q0 2 6 1t10 -7t4 -19.5t-8 -33.5q-10 -25 -32.5 -51.5t-53 -47t-65.5 -32t-72 -3.5q-27 6 -50.5 25.5t-41 56.5t-28.5 94.5t-15 139.5q-33 0 -71 3t-74.5 7t-71.5 12.5t-60 18.5q-47 -109 -106.5 -189 t-127 -129t-140 -66t-144.5 -1q-49 10 -81.5 39.5t-46 70.5t-7.5 91.5zM690 162q55 -2 122 -1t118 1q0 51 4 109t10 124q14 158 21.5 258.5t5.5 159.5q-29 -23 -58.5 -63.5t-61.5 -109.5t-66.5 -167t-71.5 -235zM854 1013q-2 9 0 11q0 2 16.5 11t83.5 46q92 47 143.5 83 t73.5 69q16 -2 31 -10q10 -6 20.5 -17.5t10.5 -27.5q0 -76 -164 -121q-63 -18 -117.5 -31.5t-72.5 -17.5q-23 -4 -25 5z" />
<glyph unicode="&#xc2;" horiz-adv-x="1239" d="M2 -107.5q6 50.5 33 101.5q39 72 91 123t106.5 83.5t104.5 46t85 11.5q35 -4 49 -24.5t15 -43t-4 -41t-7 -18.5q-121 16 -223 -17.5t-160 -127.5q-23 -37 -30 -79t2.5 -79t33 -63.5t60.5 -32.5q45 -8 96 21.5t103.5 89t101.5 148.5t90 202q59 166 115.5 285.5 t109.5 200.5t102.5 128t92.5 65q-4 33 -12.5 50.5t-18.5 29.5q33 18 66 27q29 8 59.5 7t54.5 -21q25 -23 37 -54.5t13 -84t-10 -128t-32 -184.5q-20 -98 -31.5 -179t-15.5 -149q23 10 39.5 18.5t28.5 16.5q10 -10 18 -24q14 -29 0 -72q-10 -29 -32.5 -46.5t-55.5 -27.5 q6 -129 38 -182t61 -57q18 -4 34.5 5t29.5 24.5t22.5 35t15.5 35.5q0 2 6 1t10 -7t4 -19.5t-8 -33.5q-10 -25 -32.5 -51.5t-53 -47t-65.5 -32t-72 -3.5q-27 6 -50.5 25.5t-41 56.5t-28.5 94.5t-15 139.5q-33 0 -71 3t-74.5 7t-71.5 12.5t-60 18.5q-47 -109 -106.5 -189 t-127 -129t-140 -66t-144.5 -1q-49 10 -81.5 39.5t-46 70.5t-7.5 91.5zM690 162q55 -2 122 -1t118 1q0 51 4 109t10 124q14 158 21.5 258.5t5.5 159.5q-29 -23 -58.5 -63.5t-61.5 -109.5t-66.5 -167t-71.5 -235zM815 989q4 4 16 12q10 8 30 22.5t54 41.5q92 72 129 93.5 t54 10.5q10 -6 36.5 -29.5t56.5 -51t55.5 -53.5t31.5 -34q18 -18 9 -24t-11 -8q-2 0 -29.5 16t-93.5 51q-33 16 -55.5 28.5t-26.5 16.5q-14 -8 -29 -16q-12 -8 -26.5 -16.5t-28.5 -14.5q-41 -23 -81 -39t-60 -22q-25 -6 -29 3t-2 13z" />
<glyph unicode="&#xc3;" horiz-adv-x="1239" d="M2 -107.5q6 50.5 33 101.5q39 72 91 123t106.5 83.5t104.5 46t85 11.5q35 -4 49 -24.5t15 -43t-4 -41t-7 -18.5q-121 16 -223 -17.5t-160 -127.5q-23 -37 -30 -79t2.5 -79t33 -63.5t60.5 -32.5q45 -8 96 21.5t103.5 89t101.5 148.5t90 202q59 166 115.5 285.5 t109.5 200.5t102.5 128t92.5 65q-4 33 -12.5 50.5t-18.5 29.5q33 18 66 27q29 8 59.5 7t54.5 -21q25 -23 37 -54.5t13 -84t-10 -128t-32 -184.5q-20 -98 -31.5 -179t-15.5 -149q23 10 39.5 18.5t28.5 16.5q10 -10 18 -24q14 -29 0 -72q-10 -29 -32.5 -46.5t-55.5 -27.5 q6 -129 38 -182t61 -57q18 -4 34.5 5t29.5 24.5t22.5 35t15.5 35.5q0 2 6 1t10 -7t4 -19.5t-8 -33.5q-10 -25 -32.5 -51.5t-53 -47t-65.5 -32t-72 -3.5q-27 6 -50.5 25.5t-41 56.5t-28.5 94.5t-15 139.5q-33 0 -71 3t-74.5 7t-71.5 12.5t-60 18.5q-47 -109 -106.5 -189 t-127 -129t-140 -66t-144.5 -1q-49 10 -81.5 39.5t-46 70.5t-7.5 91.5zM690 162q55 -2 122 -1t118 1q0 51 4 109t10 124q14 158 21.5 258.5t5.5 159.5q-29 -23 -58.5 -63.5t-61.5 -109.5t-66.5 -167t-71.5 -235zM809 1098q4 37 31.5 61.5t81.5 20.5q33 -2 65.5 -11.5 t61 -21.5t53 -23.5t45.5 -13.5q33 -6 45 14t8 43l10 -3q9 -3 20 -10t20.5 -19.5t6.5 -30.5q-8 -76 -116 -74q-12 0 -38 4t-54.5 9.5t-56 11.5t-46.5 10q-53 12 -74.5 -3t-25.5 -34l-6 2q-6 2 -14.5 9.5t-13.5 21.5t-3 37z" />
<glyph unicode="&#xc4;" horiz-adv-x="1239" d="M2 -107.5q6 50.5 33 101.5q39 72 91 123t106.5 83.5t104.5 46t85 11.5q35 -4 49 -24.5t15 -43t-4 -41t-7 -18.5q-121 16 -223 -17.5t-160 -127.5q-23 -37 -30 -79t2.5 -79t33 -63.5t60.5 -32.5q45 -8 96 21.5t103.5 89t101.5 148.5t90 202q59 166 115.5 285.5 t109.5 200.5t102.5 128t92.5 65q-4 33 -12.5 50.5t-18.5 29.5q33 18 66 27q29 8 59.5 7t54.5 -21q25 -23 37 -54.5t13 -84t-10 -128t-32 -184.5q-20 -98 -31.5 -179t-15.5 -149q23 10 39.5 18.5t28.5 16.5q10 -10 18 -24q14 -29 0 -72q-10 -29 -32.5 -46.5t-55.5 -27.5 q6 -129 38 -182t61 -57q18 -4 34.5 5t29.5 24.5t22.5 35t15.5 35.5q0 2 6 1t10 -7t4 -19.5t-8 -33.5q-10 -25 -32.5 -51.5t-53 -47t-65.5 -32t-72 -3.5q-27 6 -50.5 25.5t-41 56.5t-28.5 94.5t-15 139.5q-33 0 -71 3t-74.5 7t-71.5 12.5t-60 18.5q-47 -109 -106.5 -189 t-127 -129t-140 -66t-144.5 -1q-49 10 -81.5 39.5t-46 70.5t-7.5 91.5zM690 162q55 -2 122 -1t118 1q0 51 4 109t10 124q14 158 21.5 258.5t5.5 159.5q-29 -23 -58.5 -63.5t-61.5 -109.5t-66.5 -167t-71.5 -235zM827 1151q4 45 41 71.5t82 26.5t74 -26.5t25 -71.5 q-2 -23 -19.5 -43.5t-40 -36.5t-44 -26.5t-34.5 -10.5q-12 0 -27.5 10.5t-28.5 26.5t-21.5 36.5t-6.5 43.5zM1092 1151q4 45 40.5 71.5t81.5 26.5t74 -26.5t25 -71.5q-2 -23 -19.5 -43.5t-40 -36.5t-45 -26.5t-34.5 -10.5t-26.5 10.5t-28 26.5t-21.5 36.5t-6 43.5z" />
<glyph unicode="&#xc5;" horiz-adv-x="1239" d="M2 -107.5q6 50.5 33 101.5q39 72 91 123t106.5 83.5t104.5 46t85 11.5q35 -4 49 -24.5t15 -43t-4 -41t-7 -18.5q-121 16 -223 -17.5t-160 -127.5q-23 -37 -30 -79t2.5 -79t33 -63.5t60.5 -32.5q45 -8 96 21.5t103.5 89t101.5 148.5t90 202q59 166 115.5 285.5 t109.5 200.5t102.5 128t92.5 65q-4 33 -12.5 50.5t-18.5 29.5q33 18 66 27q29 8 59.5 7t54.5 -21q25 -23 37 -54.5t13 -84t-10 -128t-32 -184.5q-20 -98 -31.5 -179t-15.5 -149q23 10 39.5 18.5t28.5 16.5q10 -10 18 -24q14 -29 0 -72q-10 -29 -32.5 -46.5t-55.5 -27.5 q6 -129 38 -182t61 -57q18 -4 34.5 5t29.5 24.5t22.5 35t15.5 35.5q0 2 6 1t10 -7t4 -19.5t-8 -33.5q-10 -25 -32.5 -51.5t-53 -47t-65.5 -32t-72 -3.5q-27 6 -50.5 25.5t-41 56.5t-28.5 94.5t-15 139.5q-33 0 -71 3t-74.5 7t-71.5 12.5t-60 18.5q-47 -109 -106.5 -189 t-127 -129t-140 -66t-144.5 -1q-49 10 -81.5 39.5t-46 70.5t-7.5 91.5zM690 162q55 -2 122 -1t118 1q0 51 4 109t10 124q14 158 21.5 258.5t5.5 159.5q-29 -23 -58.5 -63.5t-61.5 -109.5t-66.5 -167t-71.5 -235zM893 1118q10 35 62 64.5t124 29.5t108 -29.5t25 -64.5 q-10 -37 -62 -65.5t-124 -28.5t-107.5 28.5t-25.5 65.5zM995 1118q-8 -29 2 -50t33 -21q20 0 46 21.5t34 49.5q8 29 -2 49.5t-31 20.5q-23 0 -48 -20.5t-34 -49.5z" />
<glyph unicode="&#xc6;" horiz-adv-x="1656" d="M2 -105.5q6 50.5 33 101.5q39 72 91 123t106.5 84t104.5 46t85 11q35 -4 49 -24.5t15 -44t-4 -41t-7 -17.5q-121 14 -223 -18.5t-160 -126.5q-23 -39 -30 -81t2.5 -79t33 -62.5t60.5 -31.5q45 -8 97 26.5t107.5 100t109.5 158t103 200.5q72 160 138.5 273.5t126 189.5 t112 119t97.5 59q0 47 -6.5 69.5t-16.5 26.5q14 12 36.5 19.5t47.5 9.5t50.5 -5t45.5 -26q4 -6 9.5 -11t9.5 -13q72 45 156.5 66.5t168.5 19.5q121 -4 184.5 -63.5t63.5 -170.5q0 -76 -37 -132t-92 -88t-121.5 -35t-126.5 30q-20 10 -22 41t4 64q8 37 22 83 q68 -53 121 -73.5t92 -15t61.5 32t26.5 67.5q8 84 -46 139t-158 59q-63 2 -113.5 -20.5t-86.5 -60t-58.5 -90t-30.5 -109.5q-10 -82 9.5 -144.5t59 -102.5t93 -56.5t112.5 -3.5q18 4 26.5 -4.5t12.5 -18.5q4 -12 0 -31q-47 -10 -86 -12q-74 -14 -143.5 -42t-125.5 -72 t-94 -104t-48 -140q-12 -86 19.5 -154t93 -109.5t146.5 -56t183 4t201.5 72.5t201.5 153q14 14 23.5 12t13.5 -10q6 -9 8 -25q-115 -111 -242.5 -177.5t-252.5 -93t-238.5 -14t-197.5 58.5t-128 122.5t-32 181.5q10 72 41 131q-57 4 -118.5 11t-104.5 24q-55 -102 -120 -180 t-133.5 -127.5t-138 -69t-137.5 -4.5q-49 10 -81.5 39.5t-46 70.5t-7.5 91.5zM709 162q59 -2 124.5 0t112.5 4q10 55 20.5 114.5t20.5 110.5q27 147 41 246.5t19 165.5q-31 -20 -64 -60.5t-69.5 -105t-78.5 -159.5t-90 -226zM1110 240q76 40 178 69q-43 10 -78.5 25.5 t-64.5 38.5z" />
<glyph unicode="&#xc7;" horiz-adv-x="657" d="M2 291q4 203 62.5 350t152.5 240.5t214 133t245 27.5q55 -6 97 -27.5t69.5 -55t38 -77.5t2.5 -91q-16 -90 -66.5 -147.5t-115 -85.5t-136 -24.5t-131.5 35.5q-20 10 -21 41t5 64q8 37 20 84q66 -53 128.5 -74.5t112.5 -17.5t86 30.5t48 69.5q12 41 5 79t-28.5 66.5 t-58.5 47t-86 20.5q-84 6 -160.5 -27.5t-137 -109.5t-99.5 -197t-47 -293q-6 -139 17.5 -245.5t69.5 -182.5t108.5 -121t133.5 -63q117 -29 238 8t213 129q14 14 23.5 12t13.5 -10q6 -8 8 -24q-141 -137 -290.5 -187.5t-284.5 -27.5q-96 16 -180.5 69t-144.5 136t-94 196 t-30 250zM385 -549q10 78 66.5 129t126.5 88q10 4 11 -7t-11 -17q-31 -16 -56.5 -68.5t-29.5 -118.5q-4 -39 9 -60.5t33.5 -28.5t46 -0.5t48.5 24.5q2 2 9 0t12 -6t7 -10.5t-6 -12.5q-37 -35 -87 -47t-92 -2t-68.5 44t-18.5 93z" />
<glyph unicode="&#xc8;" horiz-adv-x="966" d="M-4 649q-8 109 46 205t156.5 171t244 126.5t307.5 69.5q246 25 379 -39t124 -191q-6 -84 -64.5 -154.5t-141 -114.5t-173 -56.5t-159.5 22.5q-59 29 -67.5 66t7.5 71q18 39 62 80q84 -63 169 -78.5t153.5 2t111.5 59.5t47 91q6 109 -120 155t-347 17q-104 -12 -201.5 -50 t-172 -96.5t-119.5 -133t-43 -158.5q2 -96 53 -173t133 -128.5t185.5 -73t209.5 -4.5q18 4 22.5 -5.5t0.5 -21.5q-4 -14 -15 -33q-4 0 -5 -1t-3 -1q-10 -10 -24 -10q-82 -10 -159 -33.5t-139.5 -63.5t-104.5 -96.5t-52 -131.5q-10 -76 20.5 -137.5t91 -100.5t146.5 -51.5 t184.5 10.5t206 82t211.5 164q14 14 22.5 12t12.5 -10q6 -8 8 -25q-121 -119 -253 -192.5t-259 -105.5t-239.5 -24.5t-194.5 49.5t-126 115.5t-32 176.5q16 135 123 225t277 143q-102 12 -191.5 44t-156 81t-106.5 113.5t-46 142.5zM551 1434q0 16 9 27.5t22 19.5 q14 8 32 14q23 -33 71 -71t144 -85q68 -35 85.5 -43t17.5 -10q2 -2 -1 -11t-26 -5q-18 4 -73.5 16.5t-118.5 28.5q-84 25 -123 51.5t-39 67.5z" />
<glyph unicode="&#xc9;" horiz-adv-x="966" d="M-4 649q-8 109 46 205t156.5 171t244 126.5t307.5 69.5q246 25 379 -39t124 -191q-6 -84 -64.5 -154.5t-141 -114.5t-173 -56.5t-159.5 22.5q-59 29 -67.5 66t7.5 71q18 39 62 80q84 -63 169 -78.5t153.5 2t111.5 59.5t47 91q6 109 -120 155t-347 17q-104 -12 -201.5 -50 t-172 -96.5t-119.5 -133t-43 -158.5q2 -96 53 -173t133 -128.5t185.5 -73t209.5 -4.5q18 4 22.5 -5.5t0.5 -21.5q-4 -14 -15 -33q-4 0 -5 -1t-3 -1q-10 -10 -24 -10q-82 -10 -159 -33.5t-139.5 -63.5t-104.5 -96.5t-52 -131.5q-10 -76 20.5 -137.5t91 -100.5t146.5 -51.5 t184.5 10.5t206 82t211.5 164q14 14 22.5 12t12.5 -10q6 -8 8 -25q-121 -119 -253 -192.5t-259 -105.5t-239.5 -24.5t-194.5 49.5t-126 115.5t-32 176.5q16 135 123 225t277 143q-102 12 -191.5 44t-156 81t-106.5 113.5t-46 142.5zM546.5 1246q-1.5 9 0.5 11q0 2 16.5 11.5 t83.5 46.5q92 47 143.5 83t73.5 68q16 -2 31 -10q10 -6 20.5 -17.5t10.5 -27.5q0 -76 -164 -121q-63 -18 -117.5 -31.5t-73.5 -17.5q-23 -4 -24.5 5z" />
<glyph unicode="&#xca;" horiz-adv-x="966" d="M-4 649q-8 109 46 205t156.5 171t244 126.5t307.5 69.5q246 25 379 -39t124 -191q-6 -84 -64.5 -154.5t-141 -114.5t-173 -56.5t-159.5 22.5q-59 29 -67.5 66t7.5 71q18 39 62 80q84 -63 169 -78.5t153.5 2t111.5 59.5t47 91q6 109 -120 155t-347 17q-104 -12 -201.5 -50 t-172 -96.5t-119.5 -133t-43 -158.5q2 -96 53 -173t133 -128.5t185.5 -73t209.5 -4.5q18 4 22.5 -5.5t0.5 -21.5q-4 -14 -15 -33q-4 0 -5 -1t-3 -1q-10 -10 -24 -10q-82 -10 -159 -33.5t-139.5 -63.5t-104.5 -96.5t-52 -131.5q-10 -76 20.5 -137.5t91 -100.5t146.5 -51.5 t184.5 10.5t206 82t211.5 164q14 14 22.5 12t12.5 -10q6 -8 8 -25q-121 -119 -253 -192.5t-259 -105.5t-239.5 -24.5t-194.5 49.5t-126 115.5t-32 176.5q16 135 123 225t277 143q-102 12 -191.5 44t-156 81t-106.5 113.5t-46 142.5zM477 1290q4 4 17 13q10 8 29.5 22 t54.5 41q92 72 128.5 93.5t53.5 10.5q10 -6 36.5 -29.5t56.5 -51t55.5 -53t31.5 -33.5q18 -18 9 -24.5t-11 -8.5q-2 0 -29.5 16.5t-93.5 50.5q-33 16 -55.5 28.5t-26.5 16.5l-28 -16q-12 -8 -26.5 -16.5t-29.5 -14.5q-41 -23 -81 -39t-60 -22q-25 -6 -29 3t-2 13z" />
<glyph unicode="&#xcb;" horiz-adv-x="966" d="M-4 649q-8 109 46 205t156.5 171t244 126.5t307.5 69.5q246 25 379 -39t124 -191q-6 -84 -64.5 -154.5t-141 -114.5t-173 -56.5t-159.5 22.5q-59 29 -67.5 66t7.5 71q18 39 62 80q84 -63 169 -78.5t153.5 2t111.5 59.5t47 91q6 109 -120 155t-347 17q-104 -12 -201.5 -50 t-172 -96.5t-119.5 -133t-43 -158.5q2 -96 53 -173t133 -128.5t185.5 -73t209.5 -4.5q18 4 22.5 -5.5t0.5 -21.5q-4 -14 -15 -33q-4 0 -5 -1t-3 -1q-10 -10 -24 -10q-82 -10 -159 -33.5t-139.5 -63.5t-104.5 -96.5t-52 -131.5q-10 -76 20.5 -137.5t91 -100.5t146.5 -51.5 t184.5 10.5t206 82t211.5 164q14 14 22.5 12t12.5 -10q6 -8 8 -25q-121 -119 -253 -192.5t-259 -105.5t-239.5 -24.5t-194.5 49.5t-126 115.5t-32 176.5q16 135 123 225t277 143q-102 12 -191.5 44t-156 81t-106.5 113.5t-46 142.5zM498 1397q4 45 40.5 71.5t82.5 26.5 q45 0 73.5 -26.5t24.5 -71.5q-2 -23 -19.5 -43.5t-40 -37t-44 -26.5t-33.5 -10t-27.5 10t-29 26.5t-21.5 37t-6 43.5zM762 1397q4 45 41 71.5t82 26.5t73.5 -26.5t24.5 -71.5q-2 -23 -19.5 -43.5t-40 -37t-45 -26.5t-34.5 -10t-26.5 10t-28 26.5t-21.5 37t-6 43.5z" />
<glyph unicode="&#xcc;" horiz-adv-x="997" d="M4 -83q12 71 80 120q51 37 109.5 44t125 -5.5t140 -39t155.5 -54.5q47 164 64 432q14 279 -14.5 400.5t-108.5 103.5q-61 -14 -94 -69.5t-39 -139.5t14.5 -190.5t65.5 -221.5q8 -23 7 -44.5t-8 -28.5t-20.5 2.5t-27.5 47.5q-49 127 -71 247t-9.5 216.5t61.5 162t141 85.5 q98 20 161 -2t97.5 -87t45 -172t2.5 -259q-18 -334 -115 -533q70 -18 141.5 -30.5t149.5 -14.5q2 -23 -4 -41q-4 -16 -15.5 -27.5t-33.5 -8.5q-74 6 -141.5 20t-133.5 35q-70 -111 -171 -169t-241 -63q-109 -4 -183.5 40t-108 108.5t-21.5 135.5zM75 -64.5 q-9 -56.5 17.5 -110.5t91 -93t162.5 -35q164 10 244 219q-76 31 -143.5 59.5t-125 46t-104.5 20.5t-84 -19q-49 -31 -58 -87.5zM401 1196q0 16 9.5 27.5t21.5 19.5q14 8 33 14q23 -33 71 -70.5t144 -84.5q68 -35 85 -43t17 -10q2 -2 -1 -11.5t-25 -5.5q-18 4 -74 16.5 t-119 28.5q-84 25 -123 51.5t-39 67.5z" />
<glyph unicode="&#xcd;" horiz-adv-x="997" d="M4 -83q12 71 80 120q51 37 109.5 44t125 -5.5t140 -39t155.5 -54.5q47 164 64 432q14 279 -14.5 400.5t-108.5 103.5q-61 -14 -94 -69.5t-39 -139.5t14.5 -190.5t65.5 -221.5q8 -23 7 -44.5t-8 -28.5t-20.5 2.5t-27.5 47.5q-49 127 -71 247t-9.5 216.5t61.5 162t141 85.5 q98 20 161 -2t97.5 -87t45 -172t2.5 -259q-18 -334 -115 -533q70 -18 141.5 -30.5t149.5 -14.5q2 -23 -4 -41q-4 -16 -15.5 -27.5t-33.5 -8.5q-74 6 -141.5 20t-133.5 35q-70 -111 -171 -169t-241 -63q-109 -4 -183.5 40t-108 108.5t-21.5 135.5zM75 -64.5 q-9 -56.5 17.5 -110.5t91 -93t162.5 -35q164 10 244 219q-76 31 -143.5 59.5t-125 46t-104.5 20.5t-84 -19q-49 -31 -58 -87.5zM395 1017q-2 9 0 11q0 2 16.5 11.5t84.5 45.5q92 47 143 83t74 69q16 -2 30 -10q10 -6 20.5 -17.5t10.5 -27.5q0 -76 -164 -121 q-63 -18 -117.5 -31.5t-72.5 -17.5q-23 -4 -25 5z" />
<glyph unicode="&#xce;" horiz-adv-x="997" d="M4 -83q12 71 80 120q51 37 109.5 44t125 -5.5t140 -39t155.5 -54.5q47 164 64 432q14 279 -14.5 400.5t-108.5 103.5q-61 -14 -94 -69.5t-39 -139.5t14.5 -190.5t65.5 -221.5q8 -23 7 -44.5t-8 -28.5t-20.5 2.5t-27.5 47.5q-49 127 -71 247t-9.5 216.5t61.5 162t141 85.5 q98 20 161 -2t97.5 -87t45 -172t2.5 -259q-18 -334 -115 -533q70 -18 141.5 -30.5t149.5 -14.5q2 -23 -4 -41q-4 -16 -15.5 -27.5t-33.5 -8.5q-74 6 -141.5 20t-133.5 35q-70 -111 -171 -169t-241 -63q-109 -4 -183.5 40t-108 108.5t-21.5 135.5zM75 -64.5 q-9 -56.5 17.5 -110.5t91 -93t162.5 -35q164 10 244 219q-76 31 -143.5 59.5t-125 46t-104.5 20.5t-84 -19q-49 -31 -58 -87.5zM356 1036q4 4 17 13q10 8 29.5 22t54.5 41q92 72 129 93.5t53 11.5q10 -6 36.5 -30t56.5 -51.5t55.5 -53t31.5 -33.5q18 -18 9 -24.5t-11 -8.5 q-2 0 -29.5 16.5t-93.5 50.5q-33 16 -55.5 28.5t-26.5 16.5l-28 -16q-12 -8 -26.5 -16.5t-29.5 -14.5q-41 -23 -80.5 -39t-60.5 -22q-25 -6 -29 3t-2 13z" />
<glyph unicode="&#xcf;" horiz-adv-x="997" d="M4 -83q12 71 80 120q51 37 109.5 44t125 -5.5t140 -39t155.5 -54.5q47 164 64 432q14 279 -14.5 400.5t-108.5 103.5q-61 -14 -94 -69.5t-39 -139.5t14.5 -190.5t65.5 -221.5q8 -23 7 -44.5t-8 -28.5t-20.5 2.5t-27.5 47.5q-49 127 -71 247t-9.5 216.5t61.5 162t141 85.5 q98 20 161 -2t97.5 -87t45 -172t2.5 -259q-18 -334 -115 -533q70 -18 141.5 -30.5t149.5 -14.5q2 -23 -4 -41q-4 -16 -15.5 -27.5t-33.5 -8.5q-74 6 -141.5 20t-133.5 35q-70 -111 -171 -169t-241 -63q-109 -4 -183.5 40t-108 108.5t-21.5 135.5zM75 -64.5 q-9 -56.5 17.5 -110.5t91 -93t162.5 -35q164 10 244 219q-76 31 -143.5 59.5t-125 46t-104.5 20.5t-84 -19q-49 -31 -58 -87.5zM367 1171q4 45 40.5 72t81.5 27t74 -27t25 -72q-2 -23 -19.5 -43t-40 -36.5t-44 -26.5t-33.5 -10t-27.5 10t-29 26.5t-21.5 37t-6 42.5z M631 1171q4 45 41 72t82 27t73.5 -27t24.5 -72q-2 -23 -19.5 -43t-40 -36.5t-45 -26.5t-34.5 -10t-26.5 10t-28 26.5t-21.5 37t-6 42.5z" />
<glyph unicode="&#xd0;" horiz-adv-x="1507" d="M5 -66.5q13 21.5 35.5 35t46.5 15.5t30 -13q25 -51 111.5 -102t252.5 -70q211 -23 361.5 22.5t247 137.5t142.5 221t50 277q2 121 -40 214t-123 155.5t-195.5 91t-255.5 20.5q-139 -10 -237.5 -45t-157 -78t-77 -84t4.5 -61q4 -4 -3.5 -12.5t-20.5 -12.5t-32.5 0 t-40.5 27q-27 27 -16.5 82t75 112.5t192.5 103.5t337 56q190 8 340 -20.5t252 -96t153.5 -174t45.5 -254.5q-8 -174 -81 -322.5t-204 -254t-318 -157.5t-427 -34q-104 8 -180 25.5t-129.5 40t-86 51.5t-49.5 57q-16 25 -3 46.5zM381 373.5q2 11.5 4 15.5q2 0 17.5 1t80.5 5 l15 223q4 61 3 114.5t-5 111.5q31 18 61 26q27 8 56.5 7.5t52.5 -21.5q35 -33 37.5 -89.5t-17.5 -160.5q-10 -59 -19.5 -108t-19.5 -92q35 4 52.5 5t35.5 5q2 -4 4 -13q0 -6 -1 -16t-5 -20q-8 -23 -28.5 -31t-73.5 -8q-16 -74 -28.5 -129.5t-21 -100.5t-12.5 -86t-4 -88 t4 -64.5t0 -19.5q-35 -16 -70.5 -7t-45.5 52q-6 25 -6.5 50.5t4 71.5t11.5 123t17 206q-25 4 -42 7t-27 7q-31 12 -29 23.5z" />
<glyph unicode="&#xd1;" horiz-adv-x="1439" d="M0 -158q0 31 11.5 46.5t24.5 21.5t23.5 5t10.5 -5q-4 -72 14 -123t74 -72q57 -18 111.5 -2.5t100.5 65.5t80.5 135t51.5 206q12 96 22.5 208.5t15.5 220t2 200t-16 149.5q-2 8 0 14q-6 10 2 15q35 18 85.5 29.5t78.5 -7.5q41 -23 90 -123t105 -311q55 -217 96 -346 t72.5 -196.5t57.5 -86t50 -14.5q27 4 48.5 63.5t33.5 170t12 269t-18 361.5q-4 63 -14.5 117.5t-26.5 110.5q27 20 55 30q25 10 52.5 12.5t54.5 -14.5q39 -29 49 -84.5t2 -161.5q-18 -289 -53 -477t-77 -298.5t-88 -155.5t-87 -45t-84 29.5t-87 97t-88 177t-89 267.5 q-39 137 -74 232.5t-63 160.5q16 -121 12 -255t-21 -314q-14 -143 -61 -244.5t-113.5 -163t-146.5 -82t-156 1.5q-68 18 -101.5 67.5t-33.5 98.5zM737 1071q4 37 32 61.5t81 20.5q33 -2 65.5 -11t61.5 -21.5t53.5 -24t44.5 -13.5q33 -6 45 14.5t8 43.5l10 -3q9 -3 20 -10.5 t20.5 -19.5t7.5 -31q-8 -76 -117 -73q-12 0 -37.5 4t-54.5 9t-56.5 11t-46.5 10q-53 12 -74.5 -3t-25.5 -34l-6 3q-6 2 -14.5 9t-13.5 21.5t-3 36.5z" />
<glyph unicode="&#xd2;" horiz-adv-x="1269" d="M2 315q10 180 75.5 315.5t160.5 233.5q-31 53 -46.5 107.5t-17.5 101.5t5 87t24 65q25 41 51.5 59.5t47 20.5t30.5 -8.5t2 -24.5q-12 -20 -18.5 -54t-6.5 -76t8.5 -89t28.5 -95q86 63 176 99.5t174 46.5q94 12 170 -2.5t127 -49t74 -89t10 -121.5q78 -72 118 -184.5 t36 -231.5q-4 -141 -54.5 -284.5t-138.5 -256t-212 -182.5t-275 -63q-137 4 -242.5 63t-176.5 153.5t-104.5 213t-25.5 245.5zM217 414q-12 -141 3.5 -268.5t61.5 -222.5t119.5 -154.5t178.5 -65.5q78 -6 145.5 16.5t121.5 63.5t95 99.5t66 125.5q29 76 46 161t23 169t3 161 t-15 138q-4 25 -13.5 47.5t-19.5 42.5q-33 -47 -91 -84t-132 -53.5t-158 -8t-168 53.5q-55 29 -97 61.5t-77 69.5q-74 -139 -92 -352zM387 881q33 -45 74 -84q63 -59 147 -88t162 -33t138.5 14.5t78.5 57.5q8 14 10 28q-41 51 -95 81t-101 38q-23 4 -23 10t15.5 12.5t40 9.5 t49.5 1q68 -6 116 -33q-14 41 -44.5 72.5t-73.5 51t-95.5 26t-107.5 -4.5q-86 -16 -159 -55t-132 -104zM549 1319q0 16 9 27.5t22 19.5q14 8 32 14q23 -33 71 -70.5t144 -84.5q68 -35 85.5 -43t17.5 -11q2 -2 -1 -11t-26 -5q-18 4 -73.5 16.5t-118.5 28.5q-84 25 -123 51.5 t-39 67.5z" />
<glyph unicode="&#xd3;" horiz-adv-x="1269" d="M2 315q10 180 75.5 315.5t160.5 233.5q-31 53 -46.5 107.5t-17.5 101.5t5 87t24 65q25 41 51.5 59.5t47 20.5t30.5 -8.5t2 -24.5q-12 -20 -18.5 -54t-6.5 -76t8.5 -89t28.5 -95q86 63 176 99.5t174 46.5q94 12 170 -2.5t127 -49t74 -89t10 -121.5q78 -72 118 -184.5 t36 -231.5q-4 -141 -54.5 -284.5t-138.5 -256t-212 -182.5t-275 -63q-137 4 -242.5 63t-176.5 153.5t-104.5 213t-25.5 245.5zM217 414q-12 -141 3.5 -268.5t61.5 -222.5t119.5 -154.5t178.5 -65.5q78 -6 145.5 16.5t121.5 63.5t95 99.5t66 125.5q29 76 46 161t23 169t3 161 t-15 138q-4 25 -13.5 47.5t-19.5 42.5q-33 -47 -91 -84t-132 -53.5t-158 -8t-168 53.5q-55 29 -97 61.5t-77 69.5q-74 -139 -92 -352zM387 881q33 -45 74 -84q63 -59 147 -88t162 -33t138.5 14.5t78.5 57.5q8 14 10 28q-41 51 -95 81t-101 38q-23 4 -23 10t15.5 12.5t40 9.5 t49.5 1q68 -6 116 -33q-14 41 -44.5 72.5t-73.5 51t-95.5 26t-107.5 -4.5q-86 -16 -159 -55t-132 -104zM544.5 1152q-1.5 9 0.5 11q0 2 16.5 11.5t83.5 46.5q92 47 143.5 82.5t73.5 68.5q16 -2 31 -10q10 -6 20.5 -17.5t10.5 -27.5q0 -76 -164 -121q-63 -18 -117.5 -31.5 t-73.5 -17.5q-23 -4 -24.5 5z" />
<glyph unicode="&#xd4;" horiz-adv-x="1269" d="M2 315q10 180 75.5 315.5t160.5 233.5q-31 53 -46.5 107.5t-17.5 101.5t5 87t24 65q25 41 51.5 59.5t47 20.5t30.5 -8.5t2 -24.5q-12 -20 -18.5 -54t-6.5 -76t8.5 -89t28.5 -95q86 63 176 99.5t174 46.5q94 12 170 -2.5t127 -49t74 -89t10 -121.5q78 -72 118 -184.5 t36 -231.5q-4 -141 -54.5 -284.5t-138.5 -256t-212 -182.5t-275 -63q-137 4 -242.5 63t-176.5 153.5t-104.5 213t-25.5 245.5zM217 414q-12 -141 3.5 -268.5t61.5 -222.5t119.5 -154.5t178.5 -65.5q78 -6 145.5 16.5t121.5 63.5t95 99.5t66 125.5q29 76 46 161t23 169t3 161 t-15 138q-4 25 -13.5 47.5t-19.5 42.5q-33 -47 -91 -84t-132 -53.5t-158 -8t-168 53.5q-55 29 -97 61.5t-77 69.5q-74 -139 -92 -352zM387 881q33 -45 74 -84q63 -59 147 -88t162 -33t138.5 14.5t78.5 57.5q8 14 10 28q-41 51 -95 81t-101 38q-23 4 -23 10t15.5 12.5t40 9.5 t49.5 1q68 -6 116 -33q-14 41 -44.5 72.5t-73.5 51t-95.5 26t-107.5 -4.5q-86 -16 -159 -55t-132 -104zM485 1141q4 4 17 12q10 8 29.5 22.5t54.5 41.5q92 72 129 93t53 11q10 -6 36.5 -29.5t56.5 -51.5t55.5 -53.5t31.5 -33.5q18 -18 9 -24.5t-11 -8.5q-2 0 -29.5 16.5 t-93.5 51.5q-33 16 -55.5 28.5t-26.5 16.5l-28 -16q-12 -8 -26.5 -16.5t-29.5 -14.5q-41 -23 -80.5 -39.5t-60.5 -22.5q-25 -6 -29 3.5t-2 13.5z" />
<glyph unicode="&#xd5;" horiz-adv-x="1269" d="M2 315q10 180 75.5 315.5t160.5 233.5q-31 53 -46.5 107.5t-17.5 101.5t5 87t24 65q25 41 51.5 59.5t47 20.5t30.5 -8.5t2 -24.5q-12 -20 -18.5 -54t-6.5 -76t8.5 -89t28.5 -95q86 63 176 99.5t174 46.5q94 12 170 -2.5t127 -49t74 -89t10 -121.5q78 -72 118 -184.5 t36 -231.5q-4 -141 -54.5 -284.5t-138.5 -256t-212 -182.5t-275 -63q-137 4 -242.5 63t-176.5 153.5t-104.5 213t-25.5 245.5zM217 414q-12 -141 3.5 -268.5t61.5 -222.5t119.5 -154.5t178.5 -65.5q78 -6 145.5 16.5t121.5 63.5t95 99.5t66 125.5q29 76 46 161t23 169t3 161 t-15 138q-4 25 -13.5 47.5t-19.5 42.5q-33 -47 -91 -84t-132 -53.5t-158 -8t-168 53.5q-55 29 -97 61.5t-77 69.5q-74 -139 -92 -352zM387 881q33 -45 74 -84q63 -59 147 -88t162 -33t138.5 14.5t78.5 57.5q8 14 10 28q-41 51 -95 81t-101 38q-23 4 -23 10t15.5 12.5t40 9.5 t49.5 1q68 -6 116 -33q-14 41 -44.5 72.5t-73.5 51t-95.5 26t-107.5 -4.5q-86 -16 -159 -55t-132 -104zM510 1235q4 37 31.5 61.5t81.5 20.5q33 -2 65.5 -11.5t61 -21.5t53 -23.5t45.5 -13.5q33 -6 45 14.5t8 43.5l9 -3q10 -4 21 -11t20.5 -19t6.5 -31q-8 -76 -116 -74 q-12 0 -38 4.5t-54.5 9.5t-56 11t-46.5 10q-53 12 -74.5 -3t-25.5 -34l-6 2q-6 2 -14.5 9.5t-13.5 21.5t-3 37z" />
<glyph unicode="&#xd6;" horiz-adv-x="1269" d="M2 315q10 180 75.5 315.5t160.5 233.5q-31 53 -46.5 107.5t-17.5 101.5t5 87t24 65q25 41 51.5 59.5t47 20.5t30.5 -8.5t2 -24.5q-12 -20 -18.5 -54t-6.5 -76t8.5 -89t28.5 -95q86 63 176 99.5t174 46.5q94 12 170 -2.5t127 -49t74 -89t10 -121.5q78 -72 118 -184.5 t36 -231.5q-4 -141 -54.5 -284.5t-138.5 -256t-212 -182.5t-275 -63q-137 4 -242.5 63t-176.5 153.5t-104.5 213t-25.5 245.5zM217 414q-12 -141 3.5 -268.5t61.5 -222.5t119.5 -154.5t178.5 -65.5q78 -6 145.5 16.5t121.5 63.5t95 99.5t66 125.5q29 76 46 161t23 169t3 161 t-15 138q-4 25 -13.5 47.5t-19.5 42.5q-33 -47 -91 -84t-132 -53.5t-158 -8t-168 53.5q-55 29 -97 61.5t-77 69.5q-74 -139 -92 -352zM387 881q33 -45 74 -84q63 -59 147 -88t162 -33t138.5 14.5t78.5 57.5q8 14 10 28q-41 51 -95 81t-101 38q-23 4 -23 10t15.5 12.5t40 9.5 t49.5 1q68 -6 116 -33q-14 41 -44.5 72.5t-73.5 51t-95.5 26t-107.5 -4.5q-86 -16 -159 -55t-132 -104zM479 1282q4 45 41 71.5t82 26.5t73.5 -26.5t24.5 -71.5q-2 -23 -19 -43t-40 -36.5t-44.5 -27t-33.5 -10.5t-27.5 10.5t-28.5 27t-21.5 37t-6.5 42.5zM743 1282 q4 45 41 71.5t82 26.5t74 -26.5t25 -71.5q-2 -23 -19.5 -43t-40 -36.5t-45 -27t-35.5 -10.5q-12 0 -26.5 10.5t-27.5 27t-21.5 37t-6.5 42.5z" />
<glyph unicode="&#xd7;" horiz-adv-x="364" d="M37 354q2 6 6 13q8 12 29 22q23 10 44 1t62 -50l25 -27q43 49 57 67.5t29 37.5q6 -2 12 -6q12 -8 21 -29q10 -23 0.5 -44.5t-50.5 -62.5q-4 -4 -9 -10t-11 -10q23 -29 39 -52.5t22 -33.5q12 -29 3 -35t-13 -8l-3 2t-13.5 11.5t-29.5 25.5t-52 47q-31 -27 -59.5 -47.5 t-41.5 -24.5q-29 -12 -35 -3t-8 14l3 3q2 3 11 14t27.5 31.5t51.5 57.5q-29 25 -47.5 40t-31 25.5t-21.5 17.5t-17 13z" />
<glyph unicode="&#xd8;" horiz-adv-x="1269" d="M2 315q10 180 75.5 315.5t160.5 233.5q-31 53 -46.5 107.5t-17.5 101.5t5 87t24 65q25 41 51.5 59.5t47 20.5t30.5 -8.5t2 -24.5q-12 -20 -18.5 -54t-6.5 -76t8.5 -89t28.5 -95q86 63 176 99.5t174 46.5q70 10 130.5 3t107.5 -26q29 59 38 103.5t15 79.5q27 2 49 -2 q20 -4 42 -14.5t38 -33.5q20 -29 11 -87t-62 -134l-8 -10q35 -63 20 -141q78 -72 118 -184.5t36 -231.5q-4 -141 -54.5 -284.5t-138.5 -256t-212 -182.5t-275 -63q-125 6 -232 57q-16 -35 -28 -60.5t-19 -44.5q-14 -37 -16 -52t-4 -13q-29 -4 -50.5 14.5t-11.5 52.5 q4 20 20.5 57.5t39.5 88.5q-66 47 -114 110.5t-79.5 138t-46 157.5t-8.5 169zM217 414q-16 -166 8.5 -307.5t87.5 -239.5l80 160t90 178t96.5 187t98.5 188q-47 4 -97.5 16t-97.5 39q-55 29 -97 61.5t-77 69.5q-74 -139 -92 -352zM369 -203q86 -86 211 -94q78 -6 145.5 16.5 t121.5 63.5t95 99.5t66 125.5q29 76 46 161t23 169t3 161t-15 138q-4 25 -13.5 47.5t-19.5 42.5q-33 -45 -87 -81t-126 -54q-59 -98 -120.5 -204.5t-121 -211t-112.5 -202t-96 -177.5zM387 881q33 -45 74 -84q55 -51 125.5 -80t142.5 -39l107 209q-10 4 -18.5 5t-16.5 3 q-41 8 -15.5 19.5t70.5 13.5l41 82q-45 25 -101.5 33t-117.5 -3q-86 -16 -159 -55t-132 -104zM870 680q43 8 74 24.5t43 43.5q8 14 10 28q-10 10 -20.5 21.5t-22.5 21.5q-18 -33 -39.5 -66.5t-44.5 -72.5z" />
<glyph unicode="&#xd9;" horiz-adv-x="1536" d="M2 151.5q-6 32.5 8.5 65.5t42.5 57q8 8 17.5 6.5t15.5 -8t9 -14.5t1 -10q-25 -18 -35 -41t-6 -42.5t26.5 -35.5t63.5 -25q72 -16 159 -7t173 42q-6 47 -8 99.5t0 107.5q6 184 36 315.5t78 213t112.5 116.5t138.5 27q55 -6 89.5 -52t47 -116t2.5 -158t-46 -176t-97.5 -169 t-149.5 -140l-25 -17q10 -205 68.5 -311t163.5 -106q66 0 128 57t117.5 183t99.5 327t73 485l6 60q0 2 1 3t1 5v2l6 14q4 12 30.5 12.5t58.5 -7t58.5 -20.5t30.5 -26q6 -23 5 -58.5t-7 -83.5t-14 -106.5t-17 -125.5q-23 -203 -30 -332t-0.5 -204t24 -104.5t39.5 -31.5 q18 -4 37.5 6t35 25.5t27 34t15.5 34.5q0 2 6 1t10 -7t4 -19.5t-8 -33.5q-10 -25 -30.5 -50.5t-48 -46t-64.5 -30.5t-80 -4q-80 10 -119 143t-16 408q-37 -168 -85 -287t-105.5 -193.5t-124 -109.5t-136.5 -35q-123 2 -212 121t-120 323q-92 -39 -181 -53t-171 2 q-61 12 -92 40t-37 60.5zM653 233l31 25q57 49 100 117.5t70 143.5t39 149.5t8 135t-26.5 99.5t-61.5 45q-37 4 -62.5 -35t-44 -107.5t-30 -162t-17.5 -197.5q-8 -117 -6 -213zM895 1176q0 16 9 27t22 20q14 8 32 14q23 -33 71 -71t145 -85q68 -35 85 -43t17 -10 q2 -2 -1 -11t-26 -5q-18 4 -73.5 16.5t-118.5 28.5q-84 25 -123 51.5t-39 67.5z" />
<glyph unicode="&#xda;" horiz-adv-x="1536" d="M2 151.5q-6 32.5 8.5 65.5t42.5 57q8 8 17.5 6.5t15.5 -8t9 -14.5t1 -10q-25 -18 -35 -41t-6 -42.5t26.5 -35.5t63.5 -25q72 -16 159 -7t173 42q-6 47 -8 99.5t0 107.5q6 184 36 315.5t78 213t112.5 116.5t138.5 27q55 -6 89.5 -52t47 -116t2.5 -158t-46 -176t-97.5 -169 t-149.5 -140l-25 -17q10 -205 68.5 -311t163.5 -106q66 0 128 57t117.5 183t99.5 327t73 485l6 60q0 2 1 3t1 5v2l6 14q4 12 30.5 12.5t58.5 -7t58.5 -20.5t30.5 -26q6 -23 5 -58.5t-7 -83.5t-14 -106.5t-17 -125.5q-23 -203 -30 -332t-0.5 -204t24 -104.5t39.5 -31.5 q18 -4 37.5 6t35 25.5t27 34t15.5 34.5q0 2 6 1t10 -7t4 -19.5t-8 -33.5q-10 -25 -30.5 -50.5t-48 -46t-64.5 -30.5t-80 -4q-80 10 -119 143t-16 408q-37 -168 -85 -287t-105.5 -193.5t-124 -109.5t-136.5 -35q-123 2 -212 121t-120 323q-92 -39 -181 -53t-171 2 q-61 12 -92 40t-37 60.5zM653 233l31 25q57 49 100 117.5t70 143.5t39 149.5t8 135t-26.5 99.5t-61.5 45q-37 4 -62.5 -35t-44 -107.5t-30 -162t-17.5 -197.5q-8 -117 -6 -213zM995 984q-2 9 0 11q0 2 16.5 11.5t84.5 46.5q92 47 143 82.5t74 68.5q16 -2 30 -10 q10 -6 20.5 -17.5t10.5 -27.5q0 -76 -164 -121q-63 -18 -117.5 -31.5t-72.5 -17.5q-23 -4 -25 5z" />
<glyph unicode="&#xdb;" horiz-adv-x="1536" d="M2 151.5q-6 32.5 8.5 65.5t42.5 57q8 8 17.5 6.5t15.5 -8t9 -14.5t1 -10q-25 -18 -35 -41t-6 -42.5t26.5 -35.5t63.5 -25q72 -16 159 -7t173 42q-6 47 -8 99.5t0 107.5q6 184 36 315.5t78 213t112.5 116.5t138.5 27q55 -6 89.5 -52t47 -116t2.5 -158t-46 -176t-97.5 -169 t-149.5 -140l-25 -17q10 -205 68.5 -311t163.5 -106q66 0 128 57t117.5 183t99.5 327t73 485l6 60q0 2 1 3t1 5v2l6 14q4 12 30.5 12.5t58.5 -7t58.5 -20.5t30.5 -26q6 -23 5 -58.5t-7 -83.5t-14 -106.5t-17 -125.5q-23 -203 -30 -332t-0.5 -204t24 -104.5t39.5 -31.5 q18 -4 37.5 6t35 25.5t27 34t15.5 34.5q0 2 6 1t10 -7t4 -19.5t-8 -33.5q-10 -25 -30.5 -50.5t-48 -46t-64.5 -30.5t-80 -4q-80 10 -119 143t-16 408q-37 -168 -85 -287t-105.5 -193.5t-124 -109.5t-136.5 -35q-123 2 -212 121t-120 323q-92 -39 -181 -53t-171 2 q-61 12 -92 40t-37 60.5zM653 233l31 25q57 49 100 117.5t70 143.5t39 149.5t8 135t-26.5 99.5t-61.5 45q-37 4 -62.5 -35t-44 -107.5t-30 -162t-17.5 -197.5q-8 -117 -6 -213zM862 1073q4 4 17 12q10 8 29.5 22.5t54.5 41.5q92 72 128.5 93.5t53.5 10.5q10 -6 36.5 -29.5 t56.5 -51t55.5 -53.5t31.5 -34q18 -18 9 -24t-11 -8q-2 0 -29.5 16t-93.5 51q-33 16 -55.5 28.5t-26.5 16.5l-28 -16q-12 -8 -26.5 -16.5t-29.5 -14.5q-41 -23 -81 -39t-60 -22q-25 -6 -29 3t-2 13z" />
<glyph unicode="&#xdc;" horiz-adv-x="1536" d="M2 151.5q-6 32.5 8.5 65.5t42.5 57q8 8 17.5 6.5t15.5 -8t9 -14.5t1 -10q-25 -18 -35 -41t-6 -42.5t26.5 -35.5t63.5 -25q72 -16 159 -7t173 42q-6 47 -8 99.5t0 107.5q6 184 36 315.5t78 213t112.5 116.5t138.5 27q55 -6 89.5 -52t47 -116t2.5 -158t-46 -176t-97.5 -169 t-149.5 -140l-25 -17q10 -205 68.5 -311t163.5 -106q66 0 128 57t117.5 183t99.5 327t73 485l6 60q0 2 1 3t1 5v2l6 14q4 12 30.5 12.5t58.5 -7t58.5 -20.5t30.5 -26q6 -23 5 -58.5t-7 -83.5t-14 -106.5t-17 -125.5q-23 -203 -30 -332t-0.5 -204t24 -104.5t39.5 -31.5 q18 -4 37.5 6t35 25.5t27 34t15.5 34.5q0 2 6 1t10 -7t4 -19.5t-8 -33.5q-10 -25 -30.5 -50.5t-48 -46t-64.5 -30.5t-80 -4q-80 10 -119 143t-16 408q-37 -168 -85 -287t-105.5 -193.5t-124 -109.5t-136.5 -35q-123 2 -212 121t-120 323q-92 -39 -181 -53t-171 2 q-61 12 -92 40t-37 60.5zM653 233l31 25q57 49 100 117.5t70 143.5t39 149.5t8 135t-26.5 99.5t-61.5 45q-37 4 -62.5 -35t-44 -107.5t-30 -162t-17.5 -197.5q-8 -117 -6 -213zM872 1137q4 45 41 71.5t82 26.5t74 -26.5t25 -71.5q-2 -23 -19.5 -43.5t-40 -37t-44 -26.5 t-34.5 -10q-12 0 -27.5 10t-28.5 26.5t-21.5 37t-6.5 43.5zM1137 1137q4 45 40.5 71.5t82.5 26.5q45 0 73.5 -26.5t24.5 -71.5q-2 -23 -19.5 -43.5t-40 -37t-45 -26.5t-34.5 -10t-26.5 10t-28 26.5t-21.5 37t-6 43.5z" />
<glyph unicode="&#xdd;" horiz-adv-x="1531" d="M2 151.5q-6 32.5 8.5 65.5t42.5 57q8 8 17.5 6.5t15.5 -8t9 -14.5t1 -10q-25 -18 -35 -41t-6 -42.5t26.5 -35.5t63.5 -25q72 -16 159 -7t173 42q-6 47 -8 99.5t0 107.5q6 184 36 315.5t78 213t112.5 116.5t138.5 27q55 -6 89.5 -52t47 -116t2.5 -158t-46 -176t-97.5 -169 t-149.5 -140l-25 -17q10 -205 68.5 -311t163.5 -106q68 0 130 58t117.5 186t99.5 332t73 495l6 53q2 12 29.5 14t60.5 -5t60.5 -20.5t31.5 -29.5q0 2 -2 -20.5t-4 -65.5q-12 -188 -23.5 -342t-22.5 -278.5t-21.5 -225t-20.5 -180.5q84 -6 157.5 -31.5t131.5 -68.5 q2 -2 0 -8.5t-8.5 -10.5t-18.5 -4t-33 12q-53 31 -113.5 45.5t-121.5 18.5q-10 -72 -21.5 -128t-25 -105.5t-27.5 -92.5t-31 -84q-37 -92 -86 -146t-99 -79t-101.5 -21.5t-93.5 26t-72.5 61t-42.5 88.5q-14 57 -5 123.5t44.5 132t101 125t168.5 100.5q57 25 117 37l4 28 q6 59 10 118t9 122.5t10.5 134t13.5 152.5q-37 -170 -85 -290t-106.5 -195.5t-124 -110.5t-137.5 -35q-123 2 -212 121t-120 323q-92 -39 -181 -53t-171 2q-61 12 -92 40t-37 60.5zM653 233l31 25q57 49 100 117.5t70 143.5t39 149.5t8 135t-26.5 99.5t-61.5 45 q-37 4 -62.5 -35t-44 -107.5t-30 -162t-17.5 -197.5q-8 -117 -6 -213zM850 -709q8 -66 46 -97.5t85 -30.5t93 37t71 110q35 98 49 195.5t23 177.5q-61 -12 -109 -31q-70 -25 -121 -69t-84 -95t-46 -103.5t-7 -93.5zM979 1002.5q-2 9.5 0 11.5q0 2 16.5 11t83.5 46 q92 47 143.5 83t73.5 69q16 -2 31 -11q10 -6 20.5 -17t10.5 -28q0 -75 -164 -120q-63 -18 -117.5 -32t-72.5 -18q-23 -4 -25 5.5z" />
<glyph unicode="&#xde;" horiz-adv-x="1202" d="M0.5 414q3.5 45 46.5 95t129 96t230 73q2 33 3 61.5t5 63.5q4 63 3 116.5t-7 110.5q33 18 63 27q27 8 55.5 6t51.5 -23q35 -31 36.5 -87t-14.5 -162l-12 -93q4 0 8 1t8 1q133 6 239.5 -7t178.5 -49t108.5 -96.5t30.5 -146.5q-4 -84 -57 -157.5t-137 -131t-192.5 -94 t-225.5 -45.5q-8 16 -8 31q0 10 5 20.5t25 12.5q61 4 130 32.5t125.5 74.5t94.5 105.5t40 127.5q2 115 -89.5 180.5t-291.5 52.5h-4q-37 -281 -57.5 -475t-30 -323t-10.5 -202t1 -110q2 -47 4 -64.5t0 -17.5q-35 -16 -70.5 -8t-47.5 51q-10 39 -13.5 115t1.5 207t15.5 326.5 t28.5 472.5q-90 -23 -151.5 -56.5t-97 -68.5t-44 -66t8.5 -49q4 -4 -2.5 -12t-20.5 -11.5t-33 0.5t-39 27q-23 23 -19.5 68z" />
<glyph unicode="&#xdf;" horiz-adv-x="555" d="M-96 -125q-4 6 5 15.5t25 17.5q14 6 30 21.5t30 62.5t29.5 135t29.5 240q12 123 48 227t89.5 179t118 113t131.5 27q25 -4 49.5 -18t43 -42t27.5 -66.5t3 -90.5q-10 -96 -67.5 -150t-133.5 -77q57 -23 105.5 -80t44.5 -153q-4 -98 -48 -153.5t-99.5 -76t-111.5 -7.5 t-85 50q-10 14 -9 24.5t7 15.5t14 6t8 -1q14 -31 41 -44t54.5 -2t50 48t33.5 105q18 123 -8.5 188.5t-92.5 65.5q-27 0 -16.5 12t33.5 16q6 0 8 2q88 23 119 179q18 92 8 146t-41 62q-20 6 -41 -8t-41.5 -58t-37.5 -121t-32 -198q-18 -168 -49 -280.5t-66.5 -183 t-72.5 -105.5t-70 -49q-45 -20 -63 6z" />
<glyph unicode="&#xe0;" d="M3 144q-7 44 5 100q14 68 48 124t80 96t102.5 60.5t113.5 18.5q43 -2 76 -18.5t52.5 -40t25.5 -50t-4 -49.5q-18 -41 -53 -48t-69 0t-57.5 20.5t-17.5 15.5q31 8 51 33q27 31 20 65.5t-48 36.5q-57 4 -101.5 -59.5t-64.5 -167.5q-16 -92 0 -141.5t43 -49.5 q37 0 69.5 60.5t53.5 154.5q0 10 2 17q0 8 22.5 2.5t48 -17.5t47 -26.5t19.5 -26.5q-10 -86 10.5 -123t46.5 -41q18 -4 36 6t32 25.5t24.5 35t14.5 36.5q0 2 6 1t10 -7.5t4 -19.5t-8 -34q-10 -25 -31.5 -49.5t-51.5 -42.5t-63.5 -26.5t-68.5 -0.5q-43 10 -70.5 45t-33.5 113 q-37 -86 -89.5 -133t-113.5 -39q-25 2 -49.5 20.5t-43 49t-25.5 74.5zM100 721q0 16 9.5 27.5t21.5 19.5q14 8 33 14q23 -33 71 -70.5t144 -84.5q68 -35 85 -43.5t17 -10.5q2 -2 -1 -11t-25 -5q-18 4 -74 16.5t-119 28.5q-84 25 -123 51.5t-39 67.5z" />
<glyph unicode="&#xe1;" d="M3 144q-7 44 5 100q14 68 48 124t80 96t102.5 60.5t113.5 18.5q43 -2 76 -18.5t52.5 -40t25.5 -50t-4 -49.5q-18 -41 -53 -48t-69 0t-57.5 20.5t-17.5 15.5q31 8 51 33q27 31 20 65.5t-48 36.5q-57 4 -101.5 -59.5t-64.5 -167.5q-16 -92 0 -141.5t43 -49.5 q37 0 69.5 60.5t53.5 154.5q0 10 2 17q0 8 22.5 2.5t48 -17.5t47 -26.5t19.5 -26.5q-10 -86 10.5 -123t46.5 -41q18 -4 36 6t32 25.5t24.5 35t14.5 36.5q0 2 6 1t10 -7.5t4 -19.5t-8 -34q-10 -25 -31.5 -49.5t-51.5 -42.5t-63.5 -26.5t-68.5 -0.5q-43 10 -70.5 45t-33.5 113 q-37 -86 -89.5 -133t-113.5 -39q-25 2 -49.5 20.5t-43 49t-25.5 74.5zM94 525.5q-2 9.5 0 11.5q0 2 16.5 11t84.5 46q92 47 143 83t74 68q16 -2 30 -10q10 -6 20.5 -17t10.5 -28q0 -76 -164 -121q-63 -18 -117.5 -31.5t-72.5 -17.5q-23 -4 -25 5.5z" />
<glyph unicode="&#xe2;" d="M3 144q-7 44 5 100q14 68 48 124t80 96t102.5 60.5t113.5 18.5q43 -2 76 -18.5t52.5 -40t25.5 -50t-4 -49.5q-18 -41 -53 -48t-69 0t-57.5 20.5t-17.5 15.5q31 8 51 33q27 31 20 65.5t-48 36.5q-57 4 -101.5 -59.5t-64.5 -167.5q-16 -92 0 -141.5t43 -49.5 q37 0 69.5 60.5t53.5 154.5q0 10 2 17q0 8 22.5 2.5t48 -17.5t47 -26.5t19.5 -26.5q-10 -86 10.5 -123t46.5 -41q18 -4 36 6t32 25.5t24.5 35t14.5 36.5q0 2 6 1t10 -7.5t4 -19.5t-8 -34q-10 -25 -31.5 -49.5t-51.5 -42.5t-63.5 -26.5t-68.5 -0.5q-43 10 -70.5 45t-33.5 113 q-37 -86 -89.5 -133t-113.5 -39q-25 2 -49.5 20.5t-43 49t-25.5 74.5zM51 555q4 4 17 12q10 8 29.5 22.5t54.5 41.5q92 72 128.5 93t53.5 11q10 -6 36.5 -29.5t56.5 -51t55.5 -53.5t31.5 -34q18 -18 9 -24t-11 -8q-2 0 -29.5 16t-93.5 51q-33 16 -55.5 28.5t-26.5 16.5 l-28 -16q-12 -8 -26.5 -16.5t-29.5 -14.5q-41 -23 -81 -39t-60 -22q-25 -6 -29 3t-2 13z" />
<glyph unicode="&#xe3;" d="M3 144q-7 44 5 100q14 68 48 124t80 96t102.5 60.5t113.5 18.5q43 -2 76 -18.5t52.5 -40t25.5 -50t-4 -49.5q-18 -41 -53 -48t-69 0t-57.5 20.5t-17.5 15.5q31 8 51 33q27 31 20 65.5t-48 36.5q-57 4 -101.5 -59.5t-64.5 -167.5q-16 -92 0 -141.5t43 -49.5 q37 0 69.5 60.5t53.5 154.5q0 10 2 17q0 8 22.5 2.5t48 -17.5t47 -26.5t19.5 -26.5q-10 -86 10.5 -123t46.5 -41q18 -4 36 6t32 25.5t24.5 35t14.5 36.5q0 2 6 1t10 -7.5t4 -19.5t-8 -34q-10 -25 -31.5 -49.5t-51.5 -42.5t-63.5 -26.5t-68.5 -0.5q-43 10 -70.5 45t-33.5 113 q-37 -86 -89.5 -133t-113.5 -39q-25 2 -49.5 20.5t-43 49t-25.5 74.5zM72 621q4 37 31.5 61.5t80.5 19.5q33 -2 66 -11t61.5 -21.5t53 -23.5t45.5 -13q33 -6 45 14t8 43l9 -3t20.5 -10t20.5 -19.5t7 -30.5q-8 -76 -117 -74q-12 0 -37.5 4t-54 9t-56.5 11.5t-46 10.5 q-53 12 -74.5 -3.5t-25.5 -33.5l-7 2q-6 2 -14 9t-13 21.5t-3 37.5z" />
<glyph unicode="&#xe4;" d="M3 144q-7 44 5 100q14 68 48 124t80 96t102.5 60.5t113.5 18.5q43 -2 76 -18.5t52.5 -40t25.5 -50t-4 -49.5q-18 -41 -53 -48t-69 0t-57.5 20.5t-17.5 15.5q31 8 51 33q27 31 20 65.5t-48 36.5q-57 4 -101.5 -59.5t-64.5 -167.5q-16 -92 0 -141.5t43 -49.5 q37 0 69.5 60.5t53.5 154.5q0 10 2 17q0 8 22.5 2.5t48 -17.5t47 -26.5t19.5 -26.5q-10 -86 10.5 -123t46.5 -41q18 -4 36 6t32 25.5t24.5 35t14.5 36.5q0 2 6 1t10 -7.5t4 -19.5t-8 -34q-10 -25 -31.5 -49.5t-51.5 -42.5t-63.5 -26.5t-68.5 -0.5q-43 10 -70.5 45t-33.5 113 q-37 -86 -89.5 -133t-113.5 -39q-25 2 -49.5 20.5t-43 49t-25.5 74.5zM53 680q4 45 41 71.5t82 26.5t73.5 -26.5t24.5 -71.5q-2 -23 -19 -43.5t-39.5 -36.5t-44 -26.5t-34.5 -10.5q-12 0 -27.5 10.5t-28.5 26.5t-21.5 36.5t-6.5 43.5zM317 680q4 45 41 71.5t82 26.5 t74 -26.5t25 -71.5q-2 -23 -19.5 -43.5t-40 -36.5t-45 -26.5t-35.5 -10.5q-12 0 -26.5 10.5t-27.5 26.5t-21.5 36.5t-6.5 43.5z" />
<glyph unicode="&#xe5;" d="M3 144q-7 44 5 100q14 68 48 124t80 96t102.5 60.5t113.5 18.5q43 -2 76 -18.5t52.5 -40t25.5 -50t-4 -49.5q-18 -41 -53 -48t-69 0t-57.5 20.5t-17.5 15.5q31 8 51 33q27 31 20 65.5t-48 36.5q-57 4 -101.5 -59.5t-64.5 -167.5q-16 -92 0 -141.5t43 -49.5 q37 0 69.5 60.5t53.5 154.5q0 10 2 17q0 8 22.5 2.5t48 -17.5t47 -26.5t19.5 -26.5q-10 -86 10.5 -123t46.5 -41q18 -4 36 6t32 25.5t24.5 35t14.5 36.5q0 2 6 1t10 -7.5t4 -19.5t-8 -34q-10 -25 -31.5 -49.5t-51.5 -42.5t-63.5 -26.5t-68.5 -0.5q-43 10 -70.5 45t-33.5 113 q-37 -86 -89.5 -133t-113.5 -39q-25 2 -49.5 20.5t-43 49t-25.5 74.5zM135 639q10 35 62.5 64.5t124.5 29.5t107.5 -29.5t25.5 -64.5q-10 -37 -62.5 -65.5t-124.5 -28.5t-107.5 28.5t-25.5 65.5zM238 639q-8 -29 1.5 -50.5t32.5 -21.5q20 0 46 21.5t34 50.5t-2 49.5 t-31 20.5q-23 0 -48 -20.5t-33 -49.5z" />
<glyph unicode="&#xe6;" horiz-adv-x="706" d="M3 144.5q-7 44.5 5 99.5q16 84 58.5 138t94.5 82t108.5 31t103.5 -18q27 29 60.5 32t66.5 -15q88 33 147 -11q35 -27 53.5 -75t-4.5 -97q-25 -47 -81 -77.5t-140 -26.5q10 -59 45 -87t76 -30q53 -2 94 26.5t55 76.5q0 2 6.5 1t10.5 -7.5t4 -19.5t-8 -34 q-12 -27 -36 -52.5t-58.5 -46t-76.5 -30.5t-91 -4q-51 6 -101.5 44t-66.5 110q-35 -78 -91.5 -119t-115.5 -35q-25 2 -50.5 20.5t-43 49t-24.5 75zM153 200q1 -36 9 -60.5t20.5 -37t24.5 -12.5q35 0 68.5 52.5t48.5 123.5l2 2l4 23q-4 39 6 98q2 14 6 26.5t8 22.5 q-27 6 -54.5 1t-54 -23.5t-47 -52t-32.5 -82.5q-10 -45 -9 -81zM475 233q31 8 56.5 28t44 45.5t28.5 55t10 58.5q0 53 -24.5 62.5t-48.5 -25.5q-27 -35 -44.5 -85.5t-21.5 -103.5q-2 -20 0 -35z" />
<glyph unicode="&#xe7;" horiz-adv-x="446" d="M2 256q6 86 47 145.5t94.5 93t107.5 40t87 -14.5q39 -23 55.5 -67.5t-4.5 -92.5q-18 -41 -51 -48t-65.5 0t-53 20.5t-14.5 15.5q59 18 82.5 62.5t19.5 70.5q-4 16 -30.5 17.5t-51.5 -23.5q-20 -23 -42.5 -77t-26.5 -105q-6 -49 6 -86t33.5 -62.5t49 -40t54.5 -14.5 t54.5 7t52 20.5t43 33t26.5 42.5q0 2 5 1t10.5 -7.5t5.5 -19.5t-9 -34q-10 -23 -33.5 -46.5t-57.5 -43.5t-75.5 -32.5t-89.5 -12.5q-23 -27 -36 -69t-17 -89q-4 -39 9.5 -60.5t34 -28.5t45.5 -0.5t48 24.5q2 2 9.5 0t12.5 -6.5t7 -10.5t-6 -12q-37 -35 -87 -47t-92 -2 t-69 44t-18 93q8 55 38.5 96t73.5 72q-33 6 -67.5 25.5t-61 51.5t-42 77t-11.5 100z" />
<glyph unicode="&#xe8;" horiz-adv-x="471" d="M2 244q8 100 52 165.5t100.5 99.5t114 39t91.5 -16q53 -29 60.5 -89t-23.5 -119q-25 -47 -89 -83t-148 -32q18 -59 67 -88t90 -31q66 -2 122.5 26.5t72.5 76.5q0 2 5 1t10 -7.5t5 -19.5t-8 -34q-12 -27 -40.5 -52.5t-69.5 -46t-90.5 -30.5t-104.5 -4q-33 4 -73 20.5 t-73.5 47t-55 73.5t-15.5 103zM37 721q0 16 9 27.5t22 19.5q14 8 32 14q23 -33 71 -70.5t144 -84.5q68 -35 85.5 -43.5t17.5 -10.5q2 -2 -1 -11t-26 -5q-18 4 -73.5 16.5t-118.5 28.5q-84 25 -123 51.5t-39 67.5zM154 244q33 8 60.5 29.5t48 49t30.5 59.5t10 62 q0 55 -25.5 66.5t-54.5 -27.5q-29 -35 -47 -89t-22 -113q-4 -23 0 -37z" />
<glyph unicode="&#xe9;" horiz-adv-x="471" d="M2 244q8 100 52 165.5t100.5 99.5t114 39t91.5 -16q53 -29 60.5 -89t-23.5 -119q-25 -47 -89 -83t-148 -32q18 -59 67 -88t90 -31q66 -2 122.5 26.5t72.5 76.5q0 2 5 1t10 -7.5t5 -19.5t-8 -34q-12 -27 -40.5 -52.5t-69.5 -46t-90.5 -30.5t-104.5 -4q-33 4 -73 20.5 t-73.5 47t-55 73.5t-15.5 103zM18 537.5q-2 9.5 0 11.5q0 2 16.5 11t84.5 46q92 47 143 83t74 69q16 -2 31 -10q10 -6 20 -17.5t10 -28.5q0 -75 -164 -120q-63 -18 -117.5 -31.5t-72.5 -18.5q-23 -4 -25 5.5zM154 244q33 8 60.5 29.5t48 49t30.5 59.5t10 62q0 55 -25.5 66.5 t-54.5 -27.5q-29 -35 -47 -89t-22 -113q-4 -23 0 -37z" />
<glyph unicode="&#xea;" horiz-adv-x="471" d="M-25 543q4 4 17 12q10 8 29.5 22.5t54.5 40.5q92 72 129 93.5t53 11.5q10 -6 37 -29.5t56.5 -51.5t55 -53.5t31.5 -33.5q18 -18 9 -24.5t-11 -8.5q-2 0 -29.5 16.5t-93.5 51.5q-33 16 -55 28.5t-27 16.5q-14 -8 -28 -17q-12 -8 -26.5 -16t-29.5 -14q-41 -23 -80.5 -39.5 t-60.5 -22.5q-25 -6 -29 3.5t-2 13.5zM2 244q8 100 52 165.5t100.5 99.5t114 39t91.5 -16q53 -29 60.5 -89t-23.5 -119q-25 -47 -89 -83t-148 -32q18 -59 67 -88t90 -31q66 -2 122.5 26.5t72.5 76.5q0 2 5 1t10 -7.5t5 -19.5t-8 -34q-12 -27 -40.5 -52.5t-69.5 -46 t-90.5 -30.5t-104.5 -4q-33 4 -73 20.5t-73.5 47t-55 73.5t-15.5 103zM154 244q33 8 60.5 29.5t48 49t30.5 59.5t10 62q0 55 -25.5 66.5t-54.5 -27.5q-29 -35 -47 -89t-22 -113q-4 -23 0 -37z" />
<glyph unicode="&#xeb;" horiz-adv-x="471" d="M0 668q4 45 41 71.5t82 26.5t73.5 -26.5t24.5 -71.5q-2 -23 -19.5 -43.5t-40 -37t-44 -26.5t-33.5 -10t-27.5 10t-29 26.5t-21.5 37t-6 43.5zM2 244q8 100 52 165.5t100.5 99.5t114 39t91.5 -16q53 -29 60.5 -89t-23.5 -119q-25 -47 -89 -83t-148 -32q18 -59 67 -88 t90 -31q66 -2 122.5 26.5t72.5 76.5q0 2 5 1t10 -7.5t5 -19.5t-8 -34q-12 -27 -40.5 -52.5t-69.5 -46t-90.5 -30.5t-104.5 -4q-33 4 -73 20.5t-73.5 47t-55 73.5t-15.5 103zM154 244q33 8 60.5 29.5t48 49t30.5 59.5t10 62q0 55 -25.5 66.5t-54.5 -27.5q-29 -35 -47 -89 t-22 -113q-4 -23 0 -37zM264 668q4 45 41 71.5t82 26.5t73.5 -26.5t24.5 -71.5q-2 -23 -19 -43.5t-40 -37t-45.5 -26.5t-34.5 -10t-26.5 10t-27.5 26.5t-21.5 37t-6.5 43.5z" />
<glyph unicode="&#xec;" horiz-adv-x="268" d="M-47 733q0 16 9 27.5t22 19.5q14 8 32 15q23 -33 71 -71t144 -85q68 -35 85.5 -43t17.5 -10q2 -2 -1 -11.5t-26 -5.5q-18 4 -73.5 16.5t-118.5 28.5q-84 25 -123 51.5t-39 67.5zM1 271.5q3 64.5 15 117.5q12 51 35 77t49.5 33t55 -4.5t51.5 -33.5q2 0 -4 -17.5t-14.5 -46 t-16.5 -69.5t-12 -88q-8 -82 6 -117t39 -39q18 -4 34.5 7t30 27.5t22.5 37t15 37.5q0 2 6 1t10.5 -7.5t4.5 -19.5t-9 -34q-10 -25 -31.5 -50.5t-50 -46t-62.5 -31.5t-69 -3q-41 8 -64.5 50t-33.5 98.5t-7 121z" />
<glyph unicode="&#xed;" horiz-adv-x="268" d="M-53.5 550q-1.5 9 0.5 11q0 2 16.5 11.5t83.5 45.5q92 47 143.5 83t73.5 69q16 -2 31 -10q10 -6 20.5 -17.5t10.5 -27.5q0 -76 -164 -121q-63 -18 -117.5 -31.5t-73.5 -17.5q-23 -4 -24.5 5zM1 271.5q3 64.5 15 117.5q12 51 35 77t49.5 33t55 -4.5t51.5 -33.5 q2 0 -4 -17.5t-14.5 -46t-16.5 -69.5t-12 -88q-8 -82 6 -117t39 -39q18 -4 34.5 7t30 27.5t22.5 37t15 37.5q0 2 6 1t10.5 -7.5t4.5 -19.5t-9 -34q-10 -25 -31.5 -50.5t-50 -46t-62.5 -31.5t-69 -3q-41 8 -64.5 50t-33.5 98.5t-7 121z" />
<glyph unicode="&#xee;" horiz-adv-x="268" d="M-109 555q4 4 17 12q10 8 29.5 22.5t54.5 41.5q92 72 129 93t53 11q10 -6 37 -29.5t56.5 -51t55 -53.5t31.5 -34q18 -18 9 -24t-11 -8q-2 0 -29.5 16t-93.5 51q-33 16 -55 28.5t-27 16.5l-28 -16q-12 -8 -26.5 -16.5t-29.5 -14.5q-41 -23 -80.5 -39t-60.5 -22 q-25 -6 -29 3t-2 13zM1 271.5q3 64.5 15 117.5q12 51 35 77t49.5 33t55 -4.5t51.5 -33.5q2 0 -4 -17.5t-14.5 -46t-16.5 -69.5t-12 -88q-8 -82 6 -117t39 -39q18 -4 34.5 7t30 27.5t22.5 37t15 37.5q0 2 6 1t10.5 -7.5t4.5 -19.5t-9 -34q-10 -25 -31.5 -50.5t-50 -46 t-62.5 -31.5t-69 -3q-41 8 -64.5 50t-33.5 98.5t-7 121z" />
<glyph unicode="&#xef;" horiz-adv-x="268" d="M-94 717q4 45 41 71.5t82 26.5t73.5 -26.5t24.5 -71.5q-2 -23 -19.5 -43.5t-40 -36.5t-44 -26.5t-33.5 -10.5t-27.5 10.5t-29 26.5t-21.5 36.5t-6 43.5zM1 271.5q3 64.5 15 117.5q12 51 35 77t49.5 33t55 -4.5t51.5 -33.5q2 0 -4 -17.5t-14.5 -46t-16.5 -69.5t-12 -88 q-8 -82 6 -117t39 -39q18 -4 34.5 7t30 27.5t22.5 37t15 37.5q0 2 6 1t10.5 -7.5t4.5 -19.5t-9 -34q-10 -25 -31.5 -50.5t-50 -46t-62.5 -31.5t-69 -3q-41 8 -64.5 50t-33.5 98.5t-7 121zM170 717q4 45 41 71.5t82 26.5t73.5 -26.5t24.5 -71.5q-2 -23 -19.5 -43.5t-40 -36.5 t-45 -26.5t-34.5 -10.5t-26.5 10.5t-28 26.5t-21.5 36.5t-6 43.5z" />
<glyph unicode="&#xf0;" horiz-adv-x="552" d="M2 225q2 49 25.5 96.5t68.5 80t108.5 42t147.5 -21.5v6q-2 47 -7 88t-13 78q-29 -2 -50.5 -1t-39.5 3q-20 0 -28.5 6t-10.5 12.5t0 12.5t2 8q2 2 31.5 9t74.5 18q-25 66 -53 104q-2 2 0 11t9 18.5t18.5 12.5t29.5 -7q33 -20 60.5 -48t50.5 -61q31 8 50.5 14.5t31.5 11.5 t21.5 9t23.5 8q4 -6 8 -14q6 -14 2 -43q-4 -25 -22.5 -41t-69.5 -27q37 -88 43 -190q6 -82 -8 -156t-48 -130t-84 -93t-116 -43q-115 -10 -189.5 47t-66.5 180zM162 242q-8 -92 26.5 -150.5t85.5 -52.5q45 4 60.5 97t17.5 241q-174 47 -190 -135z" />
<glyph unicode="&#xf1;" horiz-adv-x="581" d="M12 528q4 2 22.5 10.5t44 14.5t53.5 5t48 -19q27 -25 33 -66t-10 -113q59 92 135 132t137 22q25 -8 34 -24.5t8 -45t-9 -68.5t-14 -95q-12 -102 -7 -145.5t31 -51.5q16 -6 31.5 3t30 25.5t24.5 38t17 42.5q0 2 6 1t10 -7.5t4 -19.5t-8 -34q-14 -31 -39 -60.5t-55.5 -49 t-64.5 -27.5t-66 2q-55 16 -70.5 79t-1.5 165q12 86 20.5 129t-8.5 51q-16 8 -47 -16.5t-62.5 -77t-56 -127t-28.5 -164.5v-21q-47 -23 -90.5 -12.5t-49.5 66.5q-8 88 0 231q4 61 4 115.5t-6 111.5zM55 670q4 37 32 61.5t81 20.5q33 -2 65.5 -11.5t61.5 -21.5t53.5 -23.5 t44.5 -13.5q33 -6 45 14t8 43l10 -3q9 -3 20 -10t20.5 -19.5t7.5 -30.5q-8 -76 -117 -74q-12 0 -37.5 4t-54.5 9.5t-56.5 11.5t-45.5 10q-53 12 -75 -3.5t-26 -33.5l-6 2q-6 2 -14.5 9t-13.5 21.5t-3 37.5z" />
<glyph unicode="&#xf2;" horiz-adv-x="473" d="M2 244q6 82 39 137t76 87t89 41t81 1q23 23 51 25q31 4 51.5 -15.5t30.5 -55.5t11 -84t-3 -99q-2 -47 -16 -93h2q18 2 33.5 12.5t26.5 23t18.5 22.5t9.5 14q4 6 16 -4t-4 -41q-14 -23 -39.5 -47.5t-68.5 -24.5h-9q-59 -133 -196 -143q-41 -4 -79 11.5t-66.5 47t-44 78.5 t-9.5 107zM55 733q0 16 9.5 27.5t21.5 19.5q14 8 33 15q23 -33 71 -71t144 -85q68 -35 85 -43t17 -10q2 -2 -1 -11.5t-25 -5.5q-18 4 -74 16.5t-119 28.5q-84 25 -123 51.5t-39 67.5zM156 268q-4 -82 21.5 -131t76.5 -51q29 -2 53.5 17.5t42.5 52.5q-61 32 -84 108 q-18 51 -20 112.5t20 104.5q-18 4 -39 -10q-29 -23 -49 -76t-22 -127zM315 283q10 -66 54 -88q10 31 14 73q6 61 -2 100.5t-31 37.5q-23 0 -34 -37t-1 -86z" />
<glyph unicode="&#xf3;" horiz-adv-x="473" d="M2 244q6 82 39 137t76 87t89 41t81 1q23 23 51 25q31 4 51.5 -15.5t30.5 -55.5t11 -84t-3 -99q-2 -47 -16 -93h2q18 2 33.5 12.5t26.5 23t18.5 22.5t9.5 14q4 6 16 -4t-4 -41q-14 -23 -39.5 -47.5t-68.5 -24.5h-9q-59 -133 -196 -143q-41 -4 -79 11.5t-66.5 47t-44 78.5 t-9.5 107zM43 550q-2 9 0 11q0 2 16.5 11.5t83.5 45.5q92 47 143.5 83t73.5 69q16 -2 31 -10q10 -6 20.5 -17.5t10.5 -27.5q0 -76 -164 -121q-63 -18 -117.5 -31.5t-72.5 -17.5q-23 -4 -25 5zM156 268q-4 -82 21.5 -131t76.5 -51q29 -2 53.5 17.5t42.5 52.5q-61 32 -84 108 q-18 51 -20 112.5t20 104.5q-18 4 -39 -10q-29 -23 -49 -76t-22 -127zM315 283q10 -66 54 -88q10 31 14 73q6 61 -2 100.5t-31 37.5q-23 0 -34 -37t-1 -86z" />
<glyph unicode="&#xf4;" horiz-adv-x="473" d="M-6 567q4 4 16 13q10 8 29.5 22t54.5 41q92 72 129 93.5t53 11.5q10 -6 37 -30t56.5 -51.5t55.5 -53t32 -33.5q18 -18 9 -24.5t-11 -8.5q-2 0 -30 16.5t-93 50.5q-33 16 -55.5 28.5t-26.5 16.5q-14 -8 -29 -16q-12 -8 -26.5 -16.5t-28.5 -14.5q-41 -23 -81 -39t-60 -22 q-25 -6 -29 3t-2 13zM2 244q6 82 39 137t76 87t89 41t81 1q23 23 51 25q31 4 51.5 -15.5t30.5 -55.5t11 -84t-3 -99q-2 -47 -16 -93h2q18 2 33.5 12.5t26.5 23t18.5 22.5t9.5 14q4 6 16 -4t-4 -41q-14 -23 -39.5 -47.5t-68.5 -24.5h-9q-59 -133 -196 -143q-41 -4 -79 11.5 t-66.5 47t-44 78.5t-9.5 107zM156 268q-4 -82 21.5 -131t76.5 -51q29 -2 53.5 17.5t42.5 52.5q-61 32 -84 108q-18 51 -20 112.5t20 104.5q-18 4 -39 -10q-29 -23 -49 -76t-22 -127zM315 283q10 -66 54 -88q10 31 14 73q6 61 -2 100.5t-31 37.5q-23 0 -34 -37t-1 -86z" />
<glyph unicode="&#xf5;" horiz-adv-x="473" d="M2 244q6 82 39 137t76 87t89 41t81 1q23 23 51 25q31 4 51.5 -15.5t30.5 -55.5t11 -84t-3 -99q-2 -47 -16 -93h2q18 2 33.5 12.5t26.5 23t18.5 22.5t9.5 14q4 6 16 -4t-4 -41q-14 -23 -39.5 -47.5t-68.5 -24.5h-9q-59 -133 -196 -143q-41 -4 -79 11.5t-66.5 47t-44 78.5 t-9.5 107zM12 645q4 37 32 61.5t81 20.5q33 -2 65.5 -11t61.5 -21.5t53.5 -24t44.5 -13.5q33 -6 45 14.5t8 43.5l9 -3q10 -3 21 -10.5t20.5 -19.5t7.5 -31q-8 -76 -117 -73q-12 0 -37.5 4t-54.5 9t-56.5 11t-45.5 10q-53 12 -75 -3t-26 -34l-6 3q-6 2 -14.5 9t-13.5 21.5 t-3 36.5zM156 268q-4 -82 21.5 -131t76.5 -51q29 -2 53.5 17.5t42.5 52.5q-61 32 -84 108q-18 51 -20 112.5t20 104.5q-18 4 -39 -10q-29 -23 -49 -76t-22 -127zM315 283q10 -66 54 -88q10 31 14 73q6 61 -2 100.5t-31 37.5q-23 0 -34 -37t-1 -86z" />
<glyph unicode="&#xf6;" horiz-adv-x="473" d="M2 244q6 82 39 137t76 87t89 41t81 1q23 23 51 25q31 4 51.5 -15.5t30.5 -55.5t11 -84t-3 -99q-2 -47 -16 -93h2q18 2 33.5 12.5t26.5 23t18.5 22.5t9.5 14q4 6 16 -4t-4 -41q-14 -23 -39.5 -47.5t-68.5 -24.5h-9q-59 -133 -196 -143q-41 -4 -79 11.5t-66.5 47t-44 78.5 t-9.5 107zM2 717q4 45 41 71.5t82 26.5t73.5 -26.5t24.5 -71.5q-2 -23 -19.5 -43.5t-40 -36.5t-44 -26.5t-33.5 -10.5t-27.5 10.5t-29 26.5t-21.5 36.5t-6 43.5zM156 268q-4 -82 21.5 -131t76.5 -51q29 -2 53.5 17.5t42.5 52.5q-61 32 -84 108q-18 51 -20 112.5t20 104.5 q-18 4 -39 -10q-29 -23 -49 -76t-22 -127zM266 717q4 45 41 71.5t82 26.5t73.5 -26.5t24.5 -71.5q-2 -23 -19 -43.5t-39.5 -36.5t-45.5 -26.5t-35 -10.5t-26.5 10.5t-27.5 26.5t-21.5 36.5t-6.5 43.5zM315 283q10 -66 54 -88q10 31 14 73q6 61 -2 100.5t-31 37.5 q-23 0 -34 -37t-1 -86z" />
<glyph unicode="&#xf7;" horiz-adv-x="432" d="M37 324.5q2 11.5 4 15.5h4t19.5 1t46 3t84.5 4q53 4 85.5 7t52 5t32 3.5t26.5 3.5q2 -4 4 -13q0 -6 -1 -16t-5 -21q-8 -23 -29.5 -30.5t-80.5 -7.5q-27 0 -60 2t-63.5 5t-55 7t-34.5 8q-31 12 -29 23.5zM133 104q0 45 40 73t85 28t76.5 -31t19.5 -74q-8 -25 -26.5 -43 t-40 -30.5t-42 -18.5t-32.5 -6q-23 0 -51.5 26.5t-28.5 75.5zM141 530q2 47 41 75t84 28t76.5 -32t19.5 -75q-8 -25 -26.5 -43t-40 -30.5t-42 -18.5t-32.5 -6q-23 0 -51.5 26.5t-28.5 75.5z" />
<glyph unicode="&#xf8;" horiz-adv-x="473" d="M2 244q6 74 33.5 126t65.5 84.5t81 47t78 12.5q12 49 16.5 84t4.5 64q20 6 43 6q18 0 37.5 -7.5t35.5 -23.5q16 -18 20.5 -54t-11.5 -87q18 -35 22 -92.5t0 -122.5q-2 -47 -16 -93h2q18 2 33.5 12.5t26.5 23t18.5 22.5t9.5 14q4 6 16 -4t-4 -41q-14 -23 -39.5 -47.5 t-68.5 -24.5h-9q-59 -133 -196 -143q-10 -2 -18.5 -1t-16.5 1q-4 -10 -6 -21.5t-4 -23.5q-8 -33 -8.5 -45t-2.5 -12q-23 -6 -44 6t-17 45q2 41 12 76q-47 29 -74.5 85t-19.5 134zM155 236.5q1 -15.5 3 -29.5q16 45 36.5 105.5t49.5 144.5l6 24q-12 -2 -23 -10 q-29 -23 -49 -76t-22 -127q-2 -16 -1 -31.5zM203 104q20 -18 51 -18q29 -2 53.5 17.5t42.5 52.5q-49 25 -76 84q-20 -35 -37.5 -68t-33.5 -68zM311 305q0 -6 1 -11t3 -11q10 -66 54 -88q10 30 14 73q10 106 -21 133q-12 -27 -25 -50z" />
<glyph unicode="&#xf9;" horiz-adv-x="575" d="M3 130q-7 42 1 101q6 45 11 81t8.5 67t3.5 58.5t-2 56.5l20 10t40 13t48.5 3t44.5 -20q29 -27 29 -74t-27 -139q-29 -102 -17.5 -150.5t42.5 -48.5q33 0 65.5 48t48.5 114q1 55 7 110q6 59 27.5 93t49 46.5t57 3.5t56.5 -34l-10 -45q-10 -47 -19 -145 q-8 -104 -1.5 -147.5t30.5 -51.5q16 -6 31.5 3t28 25.5t22.5 38t16 41.5q0 2 6.5 1t10.5 -7t5 -18t-9 -33q-14 -33 -38 -61.5t-52.5 -48t-61.5 -26.5t-65 3q-33 10 -53.5 52t-30.5 102q-35 -78 -91.5 -120t-115.5 -36q-27 2 -50.5 17.5t-41 45t-24.5 71.5zM94 709 q0 16 9.5 27.5t21.5 19.5q14 8 33 14q23 -33 70.5 -70.5t144.5 -85.5q68 -35 85 -43t17 -10q2 -2 -1 -11t-25 -5q-18 4 -74 16.5t-119 28.5q-84 25 -123 51.5t-39 67.5z" />
<glyph unicode="&#xfa;" horiz-adv-x="575" d="M3 130q-7 42 1 101q6 45 11 81t8.5 67t3.5 58.5t-2 56.5l20 10t40 13t48.5 3t44.5 -20q29 -27 29 -74t-27 -139q-29 -102 -17.5 -150.5t42.5 -48.5q33 0 65.5 48t48.5 114q1 55 7 110q6 59 27.5 93t49 46.5t57 3.5t56.5 -34l-10 -45q-10 -47 -19 -145 q-8 -104 -1.5 -147.5t30.5 -51.5q16 -6 31.5 3t28 25.5t22.5 38t16 41.5q0 2 6.5 1t10.5 -7t5 -18t-9 -33q-14 -33 -38 -61.5t-52.5 -48t-61.5 -26.5t-65 3q-33 10 -53.5 52t-30.5 102q-35 -78 -91.5 -120t-115.5 -36q-27 2 -50.5 17.5t-41 45t-24.5 71.5zM100 574.5 q-2 9.5 0 11.5q0 2 16.5 11t84.5 46q92 47 143 83t74 69q16 -2 31 -11q10 -6 20 -17t10 -28q0 -76 -164 -121q-63 -18 -117.5 -31.5t-72.5 -17.5q-23 -4 -25 5.5z" />
<glyph unicode="&#xfb;" horiz-adv-x="575" d="M3 130q-7 42 1 101q6 45 11 81t8.5 67t3.5 58.5t-2 56.5l20 10t40 13t48.5 3t44.5 -20q29 -27 29 -74t-27 -139q-29 -102 -17.5 -150.5t42.5 -48.5q33 0 65.5 48t48.5 114q1 55 7 110q6 59 27.5 93t49 46.5t57 3.5t56.5 -34l-10 -45q-10 -47 -19 -145 q-8 -104 -1.5 -147.5t30.5 -51.5q16 -6 31.5 3t28 25.5t22.5 38t16 41.5q0 2 6.5 1t10.5 -7t5 -18t-9 -33q-14 -33 -38 -61.5t-52.5 -48t-61.5 -26.5t-65 3q-33 10 -53.5 52t-30.5 102q-35 -78 -91.5 -120t-115.5 -36q-27 2 -50.5 17.5t-41 45t-24.5 71.5zM45 580q4 4 16 12 q10 8 30 22.5t54 40.5q92 72 129 93.5t54 11.5q10 -6 36.5 -29.5t56.5 -51.5t55.5 -53.5t31.5 -33.5q18 -18 9 -24.5t-11 -8.5q-2 0 -29.5 16.5t-93.5 51.5q-33 16 -55.5 28.5t-26.5 16.5q-14 -8 -29 -17q-12 -8 -26.5 -16t-28.5 -14q-41 -23 -81 -39.5t-60 -22.5 q-25 -6 -29 3t-2 14z" />
<glyph unicode="&#xfc;" horiz-adv-x="575" d="M3 130q-7 42 1 101q6 45 11 81t8.5 67t3.5 58.5t-2 56.5l20 10t40 13t48.5 3t44.5 -20q29 -27 29 -74t-27 -139q-29 -102 -17.5 -150.5t42.5 -48.5q33 0 65.5 48t48.5 114q1 55 7 110q6 59 27.5 93t49 46.5t57 3.5t56.5 -34l-10 -45q-10 -47 -19 -145 q-8 -104 -1.5 -147.5t30.5 -51.5q16 -6 31.5 3t28 25.5t22.5 38t16 41.5q0 2 6.5 1t10.5 -7t5 -18t-9 -33q-14 -33 -38 -61.5t-52.5 -48t-61.5 -26.5t-65 3q-33 10 -53.5 52t-30.5 102q-35 -78 -91.5 -120t-115.5 -36q-27 2 -50.5 17.5t-41 45t-24.5 71.5zM43 692 q4 45 41 72t82 27t73.5 -27t24.5 -72q-2 -23 -19.5 -43t-40 -36.5t-44 -27t-33.5 -10.5t-27.5 10.5t-29 27t-21.5 37t-6 42.5zM307 692q4 45 41 72t82 27t73.5 -27t24.5 -72q-2 -23 -19 -43t-40 -36.5t-45.5 -27t-34.5 -10.5t-26.5 10.5t-27.5 27t-21.5 37t-6.5 42.5z" />
<glyph unicode="&#xfd;" horiz-adv-x="548" d="M3 130q-7 42 1 101q6 45 11 81t8.5 67t4.5 58.5t-1 56.5q2 2 19 10t40 13t48.5 3t45.5 -20q25 -25 26 -73t-26 -140q-29 -102 -17.5 -150.5t42.5 -48.5q29 0 60.5 42t47.5 101l29 154q20 98 78.5 116.5t111.5 -32.5q2 -4 -15 -52t-32 -173q-6 -53 -12 -104.5t-14 -100.5 q23 16 45 33.5t45 46.5q29 33 39 69q0 2 6 1t11 -7t5 -18t-10 -33q-31 -59 -68.5 -90t-82.5 -51q-16 -86 -40 -163t-65 -142q-37 -59 -80 -88t-83 -34t-70.5 7t-44.5 35q-18 31 -22.5 77t18 96t73.5 99t144 86l6 4q0 4 1 6t1 7q4 35 5 64.5t5 55.5q-35 -53 -82 -80.5 t-96 -23.5q-27 2 -50.5 17.5t-41 45t-24.5 71.5zM95 -271.5q-7 -33.5 1 -58.5q6 -18 20.5 -25t33 -4t37 15t30.5 33q20 37 36.5 100.5t27.5 134.5q-55 -25 -94.5 -57.5t-62 -68.5t-29.5 -69.5zM98 574.5q-2 9.5 0 11.5q0 2 16.5 11t84.5 46q92 47 143 83t74 69q16 -2 30 -11 q10 -6 20.5 -17t10.5 -28q0 -76 -164 -121q-63 -18 -117.5 -31.5t-72.5 -17.5q-23 -4 -25 5.5z" />
<glyph unicode="&#xfe;" horiz-adv-x="522" d="M-60.5 -344.5q-0.5 56.5 15.5 162.5q25 186 47.5 371.5t34.5 383.5q6 80 2 142.5t-10 120.5q4 2 21.5 11t41 15t49 4t45.5 -20q16 -14 25.5 -29.5t12.5 -40t0 -61.5t-9 -92q-4 -35 -10 -96.5t-15 -125.5q39 59 91.5 91t103.5 28q25 -4 48.5 -20.5t39.5 -47t24.5 -74.5 t0.5 -102q-12 -76 -52 -129t-92.5 -82.5t-111 -34.5t-103.5 15q-10 -68 -12 -154q-2 -63 0 -135.5t6 -177.5q-29 -18 -55 -27q-25 -8 -52.5 -7t-50.5 24q-35 31 -35.5 87.5zM143 90q27 -14 56.5 -14t57.5 16.5t50.5 52t34.5 93.5q18 94 -1 142t-44 48q-31 0 -69 -48 t-54 -114q-6 -35 -6 -43q-16 -74 -25 -133z" />
<glyph unicode="&#xff;" horiz-adv-x="548" d="M3 130q-7 42 1 101q6 45 11 81t8.5 67t4.5 58.5t-1 56.5q2 2 19 10t40 13t48.5 3t45.5 -20q25 -25 26 -73t-26 -140q-29 -102 -17.5 -150.5t42.5 -48.5q29 0 60.5 42t47.5 101l29 154q20 98 78.5 116.5t111.5 -32.5q2 -4 -15 -52t-32 -173q-6 -53 -12 -104.5t-14 -100.5 q23 16 45 33.5t45 46.5q29 33 39 69q0 2 6 1t11 -7t5 -18t-10 -33q-31 -59 -68.5 -90t-82.5 -51q-16 -86 -40 -163t-65 -142q-37 -59 -80 -88t-83 -34t-70.5 7t-44.5 35q-18 31 -22.5 77t18 96t73.5 99t144 86l6 4q0 4 1 6t1 7q4 35 5 64.5t5 55.5q-35 -53 -82 -80.5 t-96 -23.5q-27 2 -50.5 17.5t-41 45t-24.5 71.5zM57 705q4 45 41 71.5t82 26.5t74 -26.5t25 -71.5q-2 -23 -19.5 -43.5t-40 -37t-44 -26.5t-34.5 -10q-12 0 -27.5 10t-28.5 26.5t-21.5 37t-6.5 43.5zM95 -271.5q-7 -33.5 1 -58.5q6 -18 20.5 -25t33 -4t37 15t30.5 33 q20 37 36.5 100.5t27.5 134.5q-55 -25 -94.5 -57.5t-62 -68.5t-29.5 -69.5zM322 705q4 45 40.5 71.5t81.5 26.5t74 -26.5t25 -71.5q-2 -23 -19.5 -43.5t-40 -37t-45 -26.5t-35.5 -10q-12 0 -26.5 10t-27.5 26.5t-21.5 37t-5.5 43.5z" />
<glyph unicode="&#x152;" horiz-adv-x="2105" d="M2 317q10 180 74.5 315.5t159.5 233.5q-31 53 -45.5 107.5t-16.5 101.5t5 87t24 65q25 41 51.5 59.5t47 20.5t30.5 -8.5t2 -24.5q-12 -20 -19.5 -54t-7.5 -76t9.5 -89t29.5 -94q86 63 176 100t174 47q94 12 170 -3t127 -50t74 -89.5t10 -121.5q23 -20 41.5 -43t34.5 -51 q12 92 63.5 161.5t124 115.5t158.5 67.5t170 19.5q121 -4 183.5 -63.5t62.5 -169.5q0 -76 -37 -132.5t-92 -88t-122 -34.5t-126 29q-20 10 -21 41t5 64q8 37 22 84q68 -53 121 -73.5t91 -15.5t60.5 31.5t26.5 67.5q8 84 -46 139.5t-159 59.5q-63 2 -112 -20.5t-86 -60.5 t-58.5 -90.5t-29.5 -109.5q-10 -82 9 -144.5t58 -102.5t92.5 -56t112.5 -4q18 4 26.5 -4t12.5 -19q4 -12 0 -30q-43 -10 -80 -13q-147 -29 -245.5 -112.5t-120.5 -245.5q-12 -86 19.5 -153.5t93 -109.5t146.5 -56.5t183 4t201.5 73t201.5 152.5q14 14 22.5 12t12.5 -10 q6 -9 8 -25q-100 -98 -212.5 -161.5t-224.5 -94t-217 -31.5t-191 26.5t-147.5 79.5t-86.5 128q-88 -109 -208 -173t-267 -60q-137 4 -242.5 63t-176.5 153.5t-104.5 213t-25.5 245.5zM217 414q-12 -141 3.5 -267.5t61.5 -222.5t119.5 -154.5t178.5 -64.5q78 -6 145.5 16.5 t121.5 63.5t95 99.5t66 125.5q29 78 46 163t23 168t3 160t-15 138q-4 25 -13.5 47.5t-19.5 42.5q-33 -45 -91 -82t-132 -54.5t-158 -9t-168 53.5q-55 29 -97 61.5t-77 69.5q-35 -70 -58.5 -157t-33.5 -197zM387 885q33 -49 74 -84q63 -59 147 -89t162 -34t138.5 14.5 t78.5 57.5q8 14 10 28q-41 51 -95 82t-101 39q-23 4 -22 10t15.5 11.5t39 8.5t49.5 1q66 -6 116 -31q-14 39 -44.5 70.5t-73.5 51t-95.5 26t-107.5 -4.5q-86 -16 -159 -54t-132 -103zM1221 322q81 51 190 86q-115 23 -182 92q2 -18 2 -36v-36q-2 -27 -4 -52.5t-6 -53.5z" />
<glyph unicode="&#x153;" horiz-adv-x="763" d="M2 244q6 82 39 137t76 87t89 41t81 1q10 10 22.5 16t28.5 9q45 4 66.5 -36t25.5 -106q27 41 64.5 67.5t75.5 37t74 7.5t61 -22q35 -27 53 -75t-4 -97q-25 -47 -82.5 -77.5t-139.5 -26.5q10 -59 45 -87t76 -30q53 -2 94 26.5t56 76.5q0 2 6 1t10 -7.5t4 -19.5t-8 -34 q-12 -27 -35.5 -52.5t-57.5 -46t-77 -30.5t-90 -4q-47 4 -94 38t-70 97q-29 -61 -78 -95t-112 -40q-41 -4 -80 12.5t-66.5 48t-43 77.5t-9.5 106zM154 268q-2 -82 23.5 -131t76.5 -51q27 -2 52.5 17.5t43.5 54.5q-61 32 -84 106q-18 53 -20 113.5t20 103.5q-20 2 -41 -10 q-29 -23 -49 -76t-22 -127zM313 283q8 -63 56 -86q4 14 8 34q0 4 1 6.5t1 6.5q0 10 1 18t3 19q4 57 -4 92t-31 35q-20 -2 -31.5 -39t-3.5 -86zM530 246q33 10 59.5 35.5t44 55.5t25 59.5t3.5 47.5q-6 23 -26 21t-42 -31q-18 -23 -38 -62.5t-24 -90.5q-2 -10 -2 -18.5v-16.5z " />
<glyph unicode="&#x178;" horiz-adv-x="1531" d="M2 151.5q-6 32.5 8.5 65.5t42.5 57q8 8 17.5 6.5t15.5 -8t9 -14.5t1 -10q-25 -18 -35 -41t-6 -42.5t26.5 -35.5t63.5 -25q72 -16 159 -7t173 42q-6 47 -8 99.5t0 107.5q6 184 36 315.5t78 213t112.5 116.5t138.5 27q55 -6 89.5 -52t47 -116t2.5 -158t-46 -176t-97.5 -169 t-149.5 -140l-25 -17q10 -205 68.5 -311t163.5 -106q68 0 130 58t117.5 186t99.5 332t73 495l6 53q2 12 29.5 14t60.5 -5t60.5 -20.5t31.5 -29.5q0 2 -2 -20.5t-4 -65.5q-12 -188 -23.5 -342t-22.5 -278.5t-21.5 -225t-20.5 -180.5q84 -6 157.5 -31.5t131.5 -68.5 q2 -2 0 -8.5t-8.5 -10.5t-18.5 -4t-33 12q-53 31 -113.5 45.5t-121.5 18.5q-10 -72 -21.5 -128t-25 -105.5t-27.5 -92.5t-31 -84q-37 -92 -86 -146t-99 -79t-101.5 -21.5t-93.5 26t-72.5 61t-42.5 88.5q-14 57 -5 123.5t44.5 132t101 125t168.5 100.5q57 25 117 37l4 28 q6 59 10 118t9 122.5t10.5 134t13.5 152.5q-37 -170 -85 -290t-106.5 -195.5t-124 -110.5t-137.5 -35q-123 2 -212 121t-120 323q-92 -39 -181 -53t-171 2q-61 12 -92 40t-37 60.5zM653 233l31 25q57 49 100 117.5t70 143.5t39 149.5t8 135t-26.5 99.5t-61.5 45 q-37 4 -62.5 -35t-44 -107.5t-30 -162t-17.5 -197.5q-8 -117 -6 -213zM850 -709q8 -66 46 -97.5t85 -30.5t93 37t71 110q35 98 49 195.5t23 177.5q-61 -12 -109 -31q-70 -25 -121 -69t-84 -95t-46 -103.5t-7 -93.5zM868 1126q4 45 41 72t82 27t74 -27t25 -72 q-2 -23 -19.5 -43t-40 -36.5t-44 -26.5t-34.5 -10q-12 0 -27.5 10t-28.5 26.5t-21.5 37t-6.5 42.5zM1133 1126q4 45 40.5 72t81.5 27t74 -27t25 -72q-2 -23 -19.5 -43t-40 -36.5t-45 -26.5t-35.5 -10q-12 0 -26 10t-27.5 26.5t-22 37t-5.5 42.5z" />
<glyph unicode="&#x2c6;" horiz-adv-x="477" d="M2 580q4 4 16 12q10 8 30 22.5t54 40.5q92 72 129 93.5t54 11.5q10 -6 36.5 -29.5t56.5 -51.5t55.5 -53.5t31.5 -33.5q18 -18 9 -24.5t-11 -8.5q-2 0 -29.5 16.5t-93.5 51.5q-33 16 -55.5 28.5t-26.5 16.5q-14 -8 -29 -17q-12 -8 -26.5 -16t-28.5 -14q-41 -23 -81 -39.5 t-60 -22.5q-25 -6 -29 3t-2 14z" />
<glyph unicode="&#x2dc;" horiz-adv-x="450" d="M2 645q4 37 31.5 61.5t81.5 20.5q33 -2 65.5 -11t61 -21.5t53 -24t45.5 -13.5q33 -6 45 14.5t8 43.5l9 -3q10 -3 21 -10.5t20.5 -19.5t7.5 -31q-8 -76 -117 -73q-12 0 -38 4t-54.5 9t-56 11t-46.5 10q-53 12 -74.5 -3t-25.5 -34l-6 3q-6 2 -14.5 9t-13.5 21.5t-3 36.5z " />
<glyph unicode="&#x2000;" horiz-adv-x="747" />
<glyph unicode="&#x2001;" horiz-adv-x="1495" />
<glyph unicode="&#x2002;" horiz-adv-x="747" />
<glyph unicode="&#x2003;" horiz-adv-x="1495" />
<glyph unicode="&#x2004;" horiz-adv-x="498" />
<glyph unicode="&#x2005;" horiz-adv-x="373" />
<glyph unicode="&#x2006;" horiz-adv-x="249" />
<glyph unicode="&#x2007;" horiz-adv-x="249" />
<glyph unicode="&#x2008;" horiz-adv-x="186" />
<glyph unicode="&#x2009;" horiz-adv-x="299" />
<glyph unicode="&#x200a;" horiz-adv-x="83" />
<glyph unicode="&#x2010;" horiz-adv-x="444" d="M24.5 263q2.5 11 4.5 16h4t19.5 1t46 3t83.5 4q53 4 86 7t52.5 5t32 3t26.5 3q2 -4 4 -12q0 -6 -1 -16.5t-5 -20.5q-8 -23 -30 -31t-81 -8q-27 0 -59.5 2t-63 5t-55.5 7.5t-35 8.5q-31 12 -28.5 23z" />
<glyph unicode="&#x2011;" horiz-adv-x="444" d="M24.5 263q2.5 11 4.5 16h4t19.5 1t46 3t83.5 4q53 4 86 7t52.5 5t32 3t26.5 3q2 -4 4 -12q0 -6 -1 -16.5t-5 -20.5q-8 -23 -30 -31t-81 -8q-27 0 -59.5 2t-63 5t-55.5 7.5t-35 8.5q-31 12 -28.5 23z" />
<glyph unicode="&#x2012;" horiz-adv-x="444" d="M24.5 263q2.5 11 4.5 16h4t19.5 1t46 3t83.5 4q53 4 86 7t52.5 5t32 3t26.5 3q2 -4 4 -12q0 -6 -1 -16.5t-5 -20.5q-8 -23 -30 -31t-81 -8q-27 0 -59.5 2t-63 5t-55.5 7.5t-35 8.5q-31 12 -28.5 23z" />
<glyph unicode="&#x2013;" horiz-adv-x="542" d="M24.5 263q2.5 11 4.5 16h4t19.5 1t46 3t83.5 4q109 4 200 9t120 9q2 -4 4 -12q0 -6 -1 -16.5t-5 -20.5q-8 -23 -30 -31t-81 -8q-27 0 -78 2t-105 5t-98.5 7.5t-54.5 8.5q-31 12 -28.5 23z" />
<glyph unicode="&#x2014;" horiz-adv-x="616" d="M24.5 263q2.5 11 4.5 16h4t19.5 1t46 3t83.5 4t116.5 5t120 5t99.5 4t57 4q2 -4 5 -12q0 -6 -1 -16.5t-6 -20.5q-8 -23 -29.5 -31t-80.5 -8q-16 0 -52 1t-79 3t-89 4t-86 4t-69 5.5t-35 5.5q-31 12 -28.5 23z" />
<glyph unicode="&#x2018;" horiz-adv-x="299" d="M124 612q-5 52 28 140q27 72 52 109.5t40 47.5q12 10 27.5 7t19.5 -15q0 -2 -12.5 -46t-12.5 -132q0 -59 11.5 -105.5t21.5 -80.5q-25 -10 -49 -15q-23 -4 -46.5 -2t-41.5 17q-33 23 -38 75z" />
<glyph unicode="&#x2019;" horiz-adv-x="274" d="M98 903q25 8 49 12q20 4 44 2t45 -16q33 -23 38 -75t-28 -138q-27 -72 -52.5 -110.5t-39.5 -49.5q-12 -10 -27.5 -7t-20.5 18q6 20 13 45q4 23 9 54.5t5 76.5q0 59 -11 106t-24 82z" />
<glyph unicode="&#x201a;" horiz-adv-x="176" d="M0 276q25 8 49 13q20 4 44 2t44 -17q33 -23 38 -75t-28 -138q-27 -72 -52 -110.5t-40 -48.5q-12 -10 -27.5 -7t-19.5 17q6 20 12 45q4 23 9.5 54.5t5.5 76.5q0 59 -11.5 106.5t-23.5 81.5z" />
<glyph unicode="&#x201c;" horiz-adv-x="395" d="M0 643.5q0 57.5 41 120.5q37 63 76 95t53 42q12 8 26.5 2t16.5 -18q-18 -20 -33 -47q-12 -23 -24.5 -55.5t-18.5 -73.5q-10 -55 -5 -98.5t11 -78.5q-20 -2 -43 0q-18 2 -39.5 8.5t-37.5 22.5q-23 23 -23 80.5zM195 612q-5 52 28 140q27 72 52.5 109.5t39.5 47.5 q10 10 25.5 7t19.5 -15q0 -2 -12 -46t-12 -132q0 -59 11 -105.5t24 -80.5q-25 -10 -49 -15q-23 -4 -46.5 -2t-42.5 17q-33 23 -38 75z" />
<glyph unicode="&#x201d;" horiz-adv-x="481" d="M98 903q25 8 49 12q20 4 44 2t45 -16q33 -23 38 -75t-28 -138q-27 -72 -52.5 -110.5t-39.5 -49.5q-12 -10 -27.5 -7t-20.5 18q6 20 13 45q4 23 9 54.5t5 76.5q0 59 -11 106t-24 82zM256 549q16 23 31 51q12 25 25.5 59.5t19.5 75.5q8 57 4 100.5t-8 77.5q27 6 51 5 q23 -2 43 -9.5t37 -23.5q23 -29 21.5 -71.5t-42.5 -108.5q-18 -31 -39.5 -60t-41 -52.5t-36 -38.5t-22.5 -19q-14 -8 -28.5 -3t-14.5 17z" />
<glyph unicode="&#x201e;" horiz-adv-x="382" d="M0 276q25 8 49 13q20 4 44 2t44 -17q33 -23 38 -75t-28 -138q-27 -72 -52 -110.5t-40 -48.5q-12 -10 -27.5 -7t-19.5 17q6 20 12 45q4 23 9.5 54.5t5.5 76.5q0 59 -11.5 106.5t-23.5 81.5zM158 -78q16 23 30 51q12 25 25.5 60t19.5 76q8 57 4 100t-8 78q27 6 52 4 q23 -2 43 -9.5t36 -23.5q23 -29 22 -71.5t-42 -108.5q-18 -31 -39.5 -59.5t-41 -52t-36 -39t-22.5 -19.5q-14 -8 -28.5 -3t-14.5 17z" />
<glyph unicode="&#x2022;" horiz-adv-x="432" d="M37 410q0 37 17.5 66.5t46 51t63.5 32.5t72 11q35 0 67.5 -13t55 -35.5t31.5 -53t-1 -63.5q-12 -41 -43 -71t-64.5 -49.5t-66.5 -28.5t-51 -9t-41 10t-42.5 30.5t-31.5 51.5t-12 70z" />
<glyph unicode="&#x2026;" horiz-adv-x="1042" d="M74 104q0 45 40 73t85 28t76.5 -31t19.5 -74q-8 -25 -26.5 -43t-40 -30.5t-42 -18.5t-32.5 -6q-25 0 -52.5 26.5t-27.5 75.5zM422 104q0 45 40 73t85 28t76.5 -31t19.5 -74q-8 -25 -26.5 -43t-40 -30.5t-42 -18.5t-32.5 -6q-25 0 -52.5 26.5t-27.5 75.5zM770 104 q0 45 39 73t86 28q45 0 76.5 -31t19.5 -74q-8 -25 -27.5 -43t-41 -30.5t-41 -18.5t-31.5 -6q-25 0 -52.5 26.5t-27.5 75.5z" />
<glyph unicode="&#x202f;" horiz-adv-x="299" />
<glyph unicode="&#x2039;" horiz-adv-x="428" d="M63 293v2l7 6q0 2 2 2l112 86q43 33 69 52.5t41 32.5t24.5 21.5t19.5 16.5q4 -2 10 -8q4 -4 8 -13.5t9 -19.5q6 -25 -8.5 -44t-61.5 -50q-20 -14 -47 -29.5t-52.5 -30t-48 -24.5t-36.5 -14l84 -74q39 -37 64.5 -57.5t40.5 -34t24.5 -20.5t19.5 -15q-2 -6 -6 -12 l-11.5 -11.5t-17.5 -11.5q-23 -10 -44 0t-62 51q-18 18 -40 43t-41.5 49.5t-33.5 45t-18 30.5q-10 18 -7 31z" />
<glyph unicode="&#x203a;" horiz-adv-x="428" d="M63 70q-6 25 8.5 44t61.5 50q20 14 46 29.5t51.5 29t48 24.5t36.5 15l-82 74q-41 37 -65.5 57.5t-39.5 33.5t-24.5 20.5t-19.5 15.5q2 6 6 12q8 12 29 23q23 10 44 -0.5t62 -51.5q18 -18 40 -42.5t41.5 -49t33.5 -45t18 -30.5q8 -23 7 -31v-2l-3 -4q-2 0 -2 -1t-2 -1 q-6 -6 -29.5 -23.5t-84.5 -64.5q-43 -33 -68.5 -52.5t-41 -33t-25 -21.5t-19.5 -16q-4 2 -10 8q-10 10 -17 33z" />
<glyph unicode="&#x205f;" horiz-adv-x="373" />
<glyph unicode="&#x20ac;" horiz-adv-x="550" d="M0 219q-2 10 2 12q8 -2 18 -2t21.5 -1t24.5 -1q0 14 2 23q0 20 2 31q-16 4 -28.5 5t-18.5 5q-12 4 -14.5 14t-0.5 12q10 -2 21 -2q10 0 22 -1t27 -1q18 76 57 126t87 78t96.5 32t84.5 -10q27 -12 44.5 -31t24.5 -38t5 -38.5t-10 -32.5q-20 -25 -48 -25.5t-52.5 8.5 t-42 22.5t-15.5 13.5q39 12 57.5 36.5t8.5 45.5q-8 16 -30.5 16t-47.5 -27q-25 -23 -48.5 -65.5t-35.5 -108.5q43 4 67.5 6.5t34.5 6.5q2 -4 2 -11q0 -4 -4 -24q-12 -33 -84 -27h-24v-37q43 4 67.5 6.5t34.5 6.5q2 -4 2 -11q0 -4 -4 -24q-10 -33 -82 -27h-12q10 -55 42 -86 t75 -35q51 -4 87 35t52 94q0 2 6 0t10 -8t4 -18t-8 -33q-10 -25 -30.5 -50.5t-50 -46t-68.5 -31.5t-86 -5q-27 2 -55.5 16.5t-54 39t-44 60t-22.5 83.5q-37 2 -52 10q-14 4 -16 14z" />
<glyph unicode="&#x2122;" horiz-adv-x="520" d="M61 446v31h158v-31h-61v-155h-37v155h-60zM229 291l15 186h55l33 -92l12 -45h2l12 45l33 92h53l15 -186h-37l-8 110v52h-4l-15 -56l-35 -104h-36l-35 108l-13 52h-2q0 -12 -1 -25.5t-1 -26.5l-6 -110h-37z" />
<glyph unicode="&#x25fc;" horiz-adv-x="542" d="M0 0v543h543v-543h-543z" />
</font>
</defs>
</svg>
